<svg xmlns="http://www.w3.org/2000/svg" viewBox="0 0 180 340">
  <title>VF_Pass_overlay</title>
  <g stroke="none" stroke-width="1" fill="none" fill-rule="evenodd" opacity="0.650000036">
    <path d="M180,12V56a5,5,0,0,0,0,10h0V328a12,12,0,0,1-12,12H12A12,12,0,0,1,0,328V66a5,5,0,0,0,5-5,5,5,0,0,0-5-5H0V12A12,12,0,0,1,12,0H168A12,12,0,0,1,180,12ZM67,21.49A5.51,5.51,0,0,0,72.53,27h35a5.5,5.5,0,1,0,0-11h-35A5.51,5.51,0,0,0,67,21.49Z" style="fill:#595959;fill-rule:evenodd"/>
    <path d="M12,0A12,12,0,0,0,0,12V56H0a5,5,0,0,1,5,5,5,5,0,0,1-5,5v2.15a121.66,121.66,0,0,0,90,39.66,121.63,121.63,0,0,0,90-39.65V66a5,5,0,0,1,0-10V12A12,12,0,0,0,168,0Zm95.48,16a5.5,5.5,0,1,1,0,11h-35a5.5,5.5,0,1,1,0-11Z" style="fill:#4C1E1E"/>
    <path d="M10,60 C9.44771525,60 9,60.4477153 9,61 C9,61.5522847 9.44771525,62 10,62 C10.5522847,62 11,61.5522847 11,61 C11,60.4477153 10.5522847,60 10,60 Z M15.9,60 C15.3477153,60 14.9,60.4477153 14.9,61 C14.9,61.5522847 15.3477153,62 15.9,62 C16.4522847,62 16.9,61.5522847 16.9,61 C16.9025832,60.4845219 16.5129013,60.051542 16,60 L15.9,60 Z M21.8,60 C21.2477153,60 20.8,60.4477153 20.8,61 C20.8,61.5522847 21.2477153,62 21.8,62 C22.3522847,62 22.8,61.5522847 22.8,61 C22.8025832,60.4845219 22.4129013,60.051542 21.9,60 L21.8,60 Z M27.7,60 C27.1477153,60 26.7,60.4477153 26.7,61 C26.7,61.5522847 27.1477153,62 27.7,62 C28.2522847,62 28.7,61.5522847 28.7,61 C28.7025832,60.4845219 28.3129013,60.051542 27.8,60 L27.7,60 Z M33.6,60 C33.0477153,60 32.6,60.4477153 32.6,61 C32.6,61.5522847 33.0477153,62 33.6,62 C34.1522847,62 34.6,61.5522847 34.6,61 C34.6025832,60.4845219 34.2129013,60.051542 33.7,60 L33.6,60 Z M39.5,60 C38.9477153,60 38.5,60.4477153 38.5,61 C38.5,61.5522847 38.9477153,62 39.5,62 C40.0522847,62 40.5,61.5522847 40.5,61 C40.5097357,60.5172392 40.1731232,60.0964736 39.7,60 L39.5,60 Z M45.4,60 C44.8477153,60 44.4,60.4477153 44.4,61 C44.4,61.5522847 44.8477153,62 45.4,62 C45.9522847,62 46.4,61.5522847 46.4,61 C46.4097357,60.5172392 46.0731232,60.0964736 45.6,60 L45.4,60 Z M51.3,60 C50.7477153,60 50.3,60.4477153 50.3,61 C50.3,61.5522847 50.7477153,62 51.3,62 C51.8522847,62 52.3,61.5522847 52.3,61 C52.3097357,60.5172392 51.9731232,60.0964736 51.5,60 L51.3,60 Z M57.2,60 C56.6477153,60 56.2,60.4477153 56.2,61 C56.2,61.5522847 56.6477153,62 57.2,62 C57.7522847,62 58.2,61.5522847 58.2,61 C58.2207659,60.5463999 57.9333092,60.1357475 57.5,60 L57.2,60 Z M63.1,60 C62.5477153,60 62.1,60.4477153 62.1,61 C62.1,61.5522847 62.5477153,62 63.1,62 C63.6522847,62 64.1,61.5522847 64.1,61 C64.1207659,60.5463999 63.8333092,60.1357475 63.4,60 L63.1,60 Z M69,60 C68.4477153,60 68,60.4477153 68,61 C68,61.5522847 68.4477153,62 69,62 C69.5522847,62 70,61.5522847 70,61 C70.0207659,60.5463999 69.7333092,60.1357475 69.3,60 L69,60 Z M74.9,60 C74.3477153,60 73.9,60.4477153 73.9,61 C73.9,61.5522847 74.3477153,62 74.9,62 C75.4522847,62 75.9,61.5522847 75.9,61 C75.9207659,60.5463999 75.6333092,60.1357475 75.2,60 L74.9,60 Z M80.8,60 C80.2477153,60 79.8,60.4477153 79.8,61 C79.8,61.5522847 80.2477153,62 80.8,62 C81.3522847,62 81.8,61.5522847 81.8,61 C81.8351845,60.572479 81.5937818,60.1701412 81.2,60 L80.8,60 Z M86.7,60 C86.1477153,60 85.7,60.4477153 85.7,61 C85.7,61.5522847 86.1477153,62 86.7,62 C87.2522847,62 87.7,61.5522847 87.7,61 C87.7351845,60.572479 87.4937818,60.1701412 87.1,60 L86.7,60 Z M92.6,60 C92.0477153,60 91.6,60.4477153 91.6,61 C91.6,61.5522847 92.0477153,62 92.6,62 C93.1522847,62 93.6,61.5522847 93.6,61 C93.6351845,60.572479 93.3937818,60.1701412 93,60 L92.6,60 Z M98.5,60 C97.9477153,60 97.5,60.4477153 97.5,61 C97.5,61.5522847 97.9477153,62 98.5,62 C99.0522847,62 99.5,61.5522847 99.5,61 C99.5351845,60.572479 99.2937818,60.1701412 98.9,60 L98.5,60 Z M104.4,60 C103.847715,60 103.4,60.4477153 103.4,61 C103.4,61.5522847 103.847715,62 104.4,62 C104.952285,62 105.4,61.5522847 105.4,61 C105.452643,60.5959286 105.254843,60.2003283 104.9,60 L104.4,60 Z M110.3,60 C109.747715,60 109.3,60.4477153 109.3,61 C109.3,61.5522847 109.747715,62 110.3,62 C110.852285,62 111.3,61.5522847 111.3,61 C111.352643,60.5959286 111.154843,60.2003283 110.8,60 L110.3,60 Z M116.2,60 C115.647715,60 115.2,60.4477153 115.2,61 C115.2,61.5522847 115.647715,62 116.2,62 C116.752285,62 117.2,61.5522847 117.2,61 C117.252643,60.5959286 117.054843,60.2003283 116.7,60 L116.2,60 Z M122.1,60 C121.547715,60 121.1,60.4477153 121.1,61 C121.1,61.5522847 121.547715,62 122.1,62 C122.652285,62 123.1,61.5522847 123.1,61 C123.152643,60.5959286 122.954843,60.2003283 122.6,60 L122.1,60 Z M128,60 C127.447715,60 127,60.4477153 127,61 C127,61.5522847 127.447715,62 128,62 C128.552285,62 129,61.5522847 129,61 C129.072893,60.6172029 128.916783,60.2269269 128.6,60 L128,60 Z M133.9,60 C133.347715,60 132.9,60.4477153 132.9,61 C132.9,61.5522847 133.347715,62 133.9,62 C134.452285,62 134.9,61.5522847 134.9,61 C134.972893,60.6172029 134.816783,60.2269269 134.5,60 L133.9,60 Z M139.8,60 C139.247715,60 138.8,60.4477153 138.8,61 C138.8,61.5522847 139.247715,62 139.8,62 C140.352285,62 140.8,61.5522847 140.8,61 C140.872893,60.6172029 140.716783,60.2269269 140.4,60 L139.8,60 Z M145.7,60 C145.147715,60 144.7,60.4477153 144.7,61 C144.7,61.5522847 145.147715,62 145.7,62 C146.252285,62 146.7,61.5522847 146.7,61 C146.772893,60.6172029 146.616783,60.2269269 146.3,60 L145.7,60 Z M151.6,60 C151.047715,60 150.6,60.4477153 150.6,61 C150.6,61.5522847 151.047715,62 151.6,62 C152.152285,62 152.6,61.5522847 152.6,61 C152.695752,60.636778 152.579879,60.2505327 152.3,60 L151.6,60 Z M157.5,60 C156.947715,60 156.5,60.4477153 156.5,61 C156.5,61.5522847 156.947715,62 157.5,62 C158.052285,62 158.5,61.5522847 158.5,61 C158.595752,60.636778 158.479879,60.2505327 158.2,60 L157.5,60 Z M163.4,60 C162.847715,60 162.4,60.4477153 162.4,61 C162.4,61.5522847 162.847715,62 163.4,62 C163.952285,62 164.4,61.5522847 164.4,61 C164.495752,60.636778 164.379879,60.2505327 164.1,60 L163.4,60 Z M169.3,60 C168.747715,60 168.3,60.4477153 168.3,61 C168.3,61.5522847 168.747715,62 169.3,62 C169.852285,62 170.3,61.5522847 170.3,61 C170.395752,60.636778 170.279879,60.2505327 170,60 L169.3,60 Z" id="Shape" fill="#595959"></path>
  </g>
</svg>