<svg xmlns="http://www.w3.org/2000/svg" viewBox="0 0 180 340">
  <title>VF_Pass</title>
  <path d="M180,12V56a5,5,0,0,0,0,10h0V328a12,12,0,0,1-12,12H12A12,12,0,0,1,0,328V66a5,5,0,0,0,5-5,5,5,0,0,0-5-5H0V12A12,12,0,0,1,12,0H168A12,12,0,0,1,180,12ZM67,21.49A5.51,5.51,0,0,0,72.53,27h35a5.5,5.5,0,1,0,0-11h-35A5.51,5.51,0,0,0,67,21.49Z" style="fill:#fff;fill-rule:evenodd"/>
  <path d="M12,0A12,12,0,0,0,0,12V56H0a5,5,0,0,1,5,5,5,5,0,0,1-5,5v2.15a121.66,121.66,0,0,0,90,39.66,121.63,121.63,0,0,0,90-39.65V66a5,5,0,0,1,0-10V12A12,12,0,0,0,168,0Zm95.48,16a5.5,5.5,0,1,1,0,11h-35a5.5,5.5,0,1,1,0-11Z" style="fill:#ed1c24"/>
  <path d="M160.4,176.5a1,1,0,1,0,1,1A1,1,0,0,0,160.4,176.5Zm5.9,0a1,1,0,1,0,1,1A1,1,0,0,0,166.4,176.5Zm5.9,0a1,1,0,1,0,1,1A1,1,0,0,0,172.3,176.5Zm5.9,0a1,1,0,1,0,1,1A1,1,0,0,0,178.2,176.5Zm5.9,0a1,1,0,1,0,1,1A1,1,0,0,0,184.1,176.5Zm5.9,0a1,1,0,1,0,1,1A1,1,0,0,0,190.1,176.5Zm5.9,0a1,1,0,1,0,1,1A1,1,0,0,0,196,176.5Zm5.9,0a1,1,0,1,0,1,1A1,1,0,0,0,201.9,176.5Zm5.9,0a1,1,0,1,0,1,1A1,1,0,0,0,207.9,176.5Zm5.9,0a1,1,0,1,0,1,1A1,1,0,0,0,213.8,176.5Zm5.9,0a1,1,0,1,0,1,1A1,1,0,0,0,219.7,176.5Zm5.9,0a1,1,0,1,0,1,1A1,1,0,0,0,225.6,176.5Zm5.9,0a1,1,0,1,0,1,1A1,1,0,0,0,231.6,176.5Zm5.9,0a1,1,0,1,0,1,1A1,1,0,0,0,237.5,176.5Zm5.9,0a1,1,0,1,0,1,1A1,1,0,0,0,243.4,176.5Zm5.9,0a1,1,0,1,0,1,1A1,1,0,0,0,249.3,176.5Zm5.9,0a1,1,0,1,0,1,1A1,1,0,0,0,255.3,176.5Zm5.9,0a1,1,0,1,0,1,1A1,1,0,0,0,261.2,176.5Zm5.9,0a1,1,0,1,0,1,1A1,1,0,0,0,267.1,176.5Zm5.9,0a1,1,0,1,0,1,1A1,1,0,0,0,273,176.5Zm5.9,0a1,1,0,1,0,1,1A1,1,0,0,0,279,176.5Zm5.9,0a1,1,0,1,0,1,1A1,1,0,0,0,284.9,176.5Zm5.9,0a1,1,0,1,0,1,1A1,1,0,0,0,290.8,176.5Zm5.9,0a1,1,0,1,0,1,1A1,1,0,0,0,296.7,176.5Zm5.9,0a1,1,0,1,0,1,1A1,1,0,0,0,302.7,176.5Zm5.9,0a1,1,0,1,0,1,1A1,1,0,0,0,308.6,176.5Zm5.9,0a1,1,0,1,0,1,1A1,1,0,0,0,314.5,176.5Zm5.9,0a1,1,0,1,0,1,1A1,1,0,0,0,320.4,176.5Z" transform="translate(-150.4 -116.5)" style="fill: #fff"/>
</svg>