<svg xmlns="http://www.w3.org/2000/svg" viewBox="0 0 2 163">
  <g fill="#fff" data-name="Isolation Mode">
    <circle cx="1" cy="1" r="1"/>
    <circle cx="1" cy="6.93" r="1"/>
    <circle cx="1" cy="12.86" r="1"/>
    <circle cx="1" cy="18.79" r="1"/>
    <circle cx="1" cy="24.71" r="1"/>
    <circle cx="1" cy="30.64" r="1"/>
    <circle cx="1" cy="36.57" r="1"/>
    <circle cx="1" cy="42.5" r="1"/>
    <circle cx="1" cy="48.43" r="1"/>
    <circle cx="1" cy="54.36" r="1"/>
    <circle cx="1" cy="60.29" r="1"/>
    <circle cx="1" cy="66.22" r="1"/>
    <circle cx="1" cy="72.14" r="1"/>
    <circle cx="1" cy="78.07" r="1"/>
    <circle cx="1" cy="84" r="1"/>
    <circle cx="1" cy="89.93" r="1"/>
    <circle cx="1" cy="95.86" r="1"/>
    <circle cx="1" cy="101.79" r="1"/>
    <circle cx="1" cy="107.72" r="1"/>
    <circle cx="1" cy="113.64" r="1"/>
    <circle cx="1" cy="119.57" r="1"/>
    <circle cx="1" cy="125.5" r="1"/>
    <circle cx="1" cy="131.43" r="1"/>
    <circle cx="1" cy="137.36" r="1"/>
    <circle cx="1" cy="143.29" r="1"/>
    <circle cx="1" cy="149.22" r="1"/>
    <circle cx="1" cy="155.15" r="1"/>
    <circle cx="1" cy="161.07" r="1"/>
  </g>
</svg>
