<svg id="svg2" 
    xmlns="http://www.w3.org/2000/svg" viewBox="0 0 1777.2 847.2">
    <defs>
        <style>
            .cls-1 {
                fill: #818181;
            }

            .cls-1:hover{
                fill: #E60000;
            }

     </style>
    </defs>
    <title>world-map</title>
    <path id="AF" class="cls-1" d="M1171.9,259.4h-5.4l-3.8-.5-2.5,2.9-2.1.7-1.5,1.3-2.6-2.1-1-5.4-1.6-.3v-2l-3.2-1.5-1.7,2.3.2,2.6-.6.9-3.2-.1-.9,3-2.1-1.3-3.3,2.1-1.8-.8-4.3-1.4h-2.9l-1.6-.2-2.9-1.7-.3,2.3-4.1,1.2.1,5.2-2.5,2-4,.9-.4,3-3.9.8-5.9-2.4-.5,8-.5,4.7,2.5.9L1102,288l2.7,5.1,1.1,4,4.3,1.1,1.1,4-3.9,5.8,9.6,3.2,5.3-.9,3.3.8.9-1.4,3.8.5,6.6-2.6-.8-5.4,2.3-3.6h4l.2-1.7,4-.9,2.1.6,1.7-1.8-1.1-3.8,1.5-3.8,3-1.6-3-4.2,5.1.2.9-2.3-.8-2.5,2-2.7-1.4-3.2-1.9-2.8,2.4-2.8,5.3-1.3,5.8-.8,2.4-1.2,2.8-.7-1.4-1.9Z" transform="translate(-1.5 -1.5)"/>
    <path id="AO" class="cls-1" d="M870.3,535.2l-16.6-.1-1.9.7-1.7-.1-2.3.9-.5,1.2,2.8,4,1.1,4.3,1.6,6.1-1.7,2.6-.3,1.3,1.3,3.8,1.5,3.9,1.6,2.2.3,3.6-.7,4.8-1.8,2.8-3.3,4.2-1.3,2.6-1.9,5.7-.3,2.7-2,5.9-.9,5.5.5,4,2.7-1.2,3.3-1,3.6.1,3.2,2.9.9-.4,22.5-.3,3.7,3,13.4.9,10.3-2.5-3.5-4-3.6-5.2.8-20.3,11.6.1-.5-2.2.9-2.4-.9-3,.7-3-.5-2-2.6-.4-3.5,1-2.4-.2-1.4.6.5-7.6-1.9-2.3-.3-4,.9-3.8-1.2-2.4v-4h-6.8l.5-2.3h-2.9L891,543l-3.4.3-1.5,3.7-.9,1.6-3-.9-1.9.9-3.7.5-2.1-3.3-1.3-2.1-1.6-3.8-1.3-4.7Zm-21.8-1.3.2-2.7.9-1.7,2-1.3-2-2.2-1.8,1.1-2.2,2.7,1.4,4.8,1.5-.7Z" transform="translate(-1.5 -1.5)"/>
    <path id="AL" class="cls-1" d="M879.5,226.1l-2,3.1.5,1.9h0l1,1-.5,1.9-.1,4.3.7,3,3,2.1.2,1.4,1,.4,2.1-3,.1-2.1,1.6-.9v-1.6l-2.3-1.6-.9-2.6.4-2.1h0l-.5-2.3-1.3-.6-1.3-1.6-1.3.5-.4-1.2Z" transform="translate(-1.5 -1.5)"/>
    <path id="AE" class="cls-1" d="M1085.9,334.2l-1.3-2.2-3,3.9-3.7,4.1-3.3,4.3-3.3-.2-4.6-.2-4.2,1-.3-1.7-1,.3.4,1.5,2.6,6.4,16.8,3.2,1-1.3-.1-2.6,1.4-2.6-.3-2.6,2.4-1.3-1.1-.8.1-4.2h2.8l-1.3-5Z" transform="translate(-1.5 -1.5)"/>
    <path id="AR" class="cls-1" d="M471.8,846.3l.9-3-7.3-1.5-7.7-3.6-4.3-4.6-3-2.8,5.9,13.5h5l2.9.2,3.3,2.1,4.3-.3ZM421.4,638.2l-7.4-1.5-4,5.7.9,1.6-1.1,6.6-5.6,3.2,1.6,10.6-.9,2,2,2.5-3.2,4-2.6,5.9-.9,5.8,1.7,6.2-2.1,6.5,4.9,10.9,1.6,1.2,1.3,5.9-1.6,6.2,1.4,5.4-2.9,4.3,1.5,5.9,3.3,6.3-2.5,2.4.3,5.7.7,6.4,3.3,7.6-1.6,1.2,3.6,7.1,3.1,2.3-.8,2.6,2.8,1.3,1.3,2.3-1.8,1.1,1.8,3.7,1.1,8.2-.7,5.3,1.8,3.2-.1,3.9-2.7,2.7L422,817l2.6,2.2,3.1-.4,1.8,4.6L433,827l12,.8,4.8.9,2.2.4-4.7-3.6-4.1-6.3.9-2.9,3.5-2.5.5-7.2,4.7-3.5-.2-5.6-5.2-1.3-6.4-4.5-.1-4.7,2.9-3.1,4.7-.1.2-3.3-1.2-6.1,2.9-3.9,4.1-1.9-2.5-3.2-2.2,2-4-1.9-2.5-6.2,1.5-1.6,5.6,2.3,5-.9,2.5-2.2-1.8-3.1L456,749l-2-3.8,5.8.6,10.2-1.3,6.9-3.4,3.3-8.3-.3-3.2-3.9-2.8-.1-4.5-7.8-5.5-.3-3.3-.4-4.2.9-1.4-1.1-6.3.3-6.5.5-5.1,5.9-8.6,5.3-6.2,3.3-2.6,4.2-3.5-.5-5.1-3.1-3.7-2.6,1.2-.3,5.7-4.3,4.8-4.2,1.1-6.2-1-5.7-1.8,4.2-9.6-1.1-2.8-5.9-2.5-7.2-4.7-4.6-1L434,639.3l-1-1.3-6.3-.3-1.6,5.1-3.7-4.6Z" transform="translate(-1.5 -1.5)"/>
    <path id="AM" class="cls-1" d="M1021,250.7l-.9-4.4-2.5-1.1-2.5-1.7,1-2-3.1-2.2.7-1.5-2.2-1.1-1.4-1.7-6.9,1,1.3,2.2v3.1l4.2,1.5,2.4,1.9,1-.2,1.8,1.7h2.3l.2,1,2.8,3.7,1.8-.2Z" transform="translate(-1.5 -1.5)"/>
    <path id="AU" class="cls-1" d="M1528.7,757.6l-3-.5-1.9,2.9-.6,5.4-2.1,4-.5,5.3,3,.2.8.3,6.6-4.3.6,1.7,4-4.9,3.2-2.2,4.5-7.3-2.8-.5-4.8,1.2-3.4.9-3.6-2.2Zm50.1-172.3.5-2.3.1-3.6-1.6-3.2.1-2.7-1.3-.8.1-3.9-1.2-3.2-2.3,2.4-.4,1.8-1.5,3.5-1.8,3.4.6,2.1-1.2,1.3-1.5,4.8.1,3.7-.7,1.8.3,3.1-2.6,5-1.3,3.5-1.7,2.9-1.7,3.4-4.1,2.1-4.9-2.1-.5-2-2.5-1.6h-1.6l-3.3-3.8-2.5-2.2-3.9-2-3.9-3.5-.1-1.8,2.5-3.1,2.1-3.2-.3-2.6,1.9-.2,2.5-2.5,2-3.4-2.2-3.2-1.5,1.2-2-.5-3.5,1.8-3.2-2-1.7.7-4.5-1.6-2.7-2.7-3.5-1.5-3.1.9,3.9,2.1-.3,3.2-4.8,1.2-2.8-.7-3.6,2.2-2.9,3.7.6,1.5-2.7,1.7-3.4,5.1.6,3.5-3.4-.6H1493l-2.5-3.8-3.7-2.9-2.8.8-2.6.9-.3,1.6-2.4-.7-.3,1.8-3,1.1-1.7,2.5-3.5,3.1-1.4,4.8-2.3-1.3-2.2,3.1,1.5,3-2.6,1.2-1.4-5.5-4.8,5.4-.8,3.5-.7,2.5-3.8,3.3-2,3.4-3.5,2.8-6.1,1.9-3.1-.2-1.5.6-1.1,1.4-3.5.7-4.7,2.4-1.4-.8-2.6.5-4.6,2.3-3.2,2.7-4.8,2.1-3.1,4.4.4-4.8-3.1,4.6-.1,3.7-1.3,3.2-1.5,1.5-1.3,3.7.9,1.9.1,2,1.6,5-.7,3.3-1-2.5-2.3-1.8.4,5.9-1.7-2.8.1,2.8,1.8,5-.6,5,1.7,2.5-.4,1.9.9,4.1-1.3,3.6-.3,3.6.7,6.5-.7,3.7-2.2,4.4-.6,2.3-1.5,1.5-2.9.8-1.5,3.7,2.4,1.2,4,4.1h3.6l3.8.3,3.3-2.1,3.4-1.8,1.4.3,4.5-3.4,3.8-.3,4.1-.7,4.2,1.2,3.6-.6,4.6-.2,3-2.6,2.3-3.3,5.2-1.5,6.9-3.2,5,.4,6.9-2.1,7.8-2.3,9.8-.6,4,3.1,3.7.2,5.3,3.8-1.6,1.5,1.8,2.4,1.3,4.6-1.6,3.4,2.9,2.6,4.3-5.1,4.3-2.1,6.7-5.5-1.6,4.7-3.4,3.2-2.5,3.7-4.4,3.5,5.2-1.2,4.7-4.4-.9,4.8-3.2,3.1,4.7.8,1.3,2.6-.4,3.3-1.5,4.9,1.4,4,4,1.9,2.8.4,2.4,1,3.5,1.8,7.2-4.7,3.5-1.2-2.7,3.4,2.6,1.1,2.7,2.8,4.7-2.7,3.8-2.5,6.3-2.7,6-.2,4.2-2.3.9-2,3-4.5,3.9-4.8,3.6-3.2,4.4-5.6,3.3-3.1,4.4-5,5.4-3.1,5-5.8,3.1-4.5,1.4-3.6,3.8-5.7,2.1-2.9,2.5-5.7-.7-5.4,1.7-3.9,1.1-3.7v-5.1l-2.8-5.1-1.9-2.5-2.9-3.9.7-6.7-1.5,1-1.6-2.8-2.5,1.4-.6-6.9-2.2-4,1-1.5-3.1-2.8-3.2-3-5.3-3.3-.9-4.3,1.3-3.3-.4-5.5-1.3-.7-.2-3.2-.2-5.5,1.1-2.8-2.3-2.5-1.4-2.7-3.9,2.4-1.2-5Z" transform="translate(-1.5 -1.5)"/>
    <path id="AT" class="cls-1" d="M862.2,189.6l-2.3-1.2-2.3.3-4-1.9-1.7.5-2.6,2.5-3.8-2-1.5,2.9-1.7.8,1,4-.4,1.1-1.7-1.3-2.4-.2-3.4,1.2L831,196l-.6,1.6-2.6-1.7-1.5.3.2,1.1-.7,1.6,2.3,1.1,2.6.2,3.1.9.5-1.2,4.8-1.1,1.3,2.2,7.2,1.6,4.2.4,2.4-1.4,4.3-.1.9-1.1,1.3-4-1.1-1.3h2.8l.2-2.6-.7-2.1.3-.8Z" transform="translate(-1.5 -1.5)"/>
    <path id="AZ" class="cls-1" d="M1012.1,244.5l-1,.2,1.2,2.4,3.2,2.9,3.7.9-2.8-3.7-.2-1h-2.3l-1.8-1.7Zm10.4-9.3-4.3-3.8-1.5-.2-1.1.9,3.2,3.4-.6.7-2.8-.4-4.2-1.8-1.1,1,1.4,1.7,2.2,1.1-.7,1.5,3.1,2.2-1,2,2.5,1.7,2.5,1.1.9,4.4,5.3-4.7,1.9-.5,1.9,1.9-1.2,3.1,3.8,3.4,1.3-.3-.8-3.2,1.7-1.5.4-2.2-.1-5,4.2-.5-2-1.7-2.5-.2-3.5-4.5-3.4-3.2h0l-2.6,2.5-.5,1.5-2.4-.4Z" transform="translate(-1.5 -1.5)"/>
    <path id="BI" class="cls-1" d="M950.2,515.6l-.3-2.5h0l-3-.4-1.7,3.6-3.5-.5,1.4,2.9.1,1.1,2,6.1-.1.3.6-.1,2.1-2.3,2.2-3.3,1.4-1.4v-2l-1.2-1.5Z" transform="translate(-1.5 -1.5)"/>
    <path id="BE" class="cls-1" d="M802.7,171.8l-4.4,1.3-3.6-.5h0l-3.8,1.2.7,2.2,2.2.1,2.4,2.4,3.4,2.9,2.5-.4,4.4,2.8.4-3.5,1.3-.2.4-4.2-2.8-1.4-3.1-2.7Z" transform="translate(-1.5 -1.5)"/>
    <path id="BJ" class="cls-1" d="M798.9,423.6l-4.3-3.7h-2l-1.9,1.9-1.2,1.9-2.7.6-1.2,2.8-1.9.7-.7,3.3,1.7,1.9,2,2.3.2,3.1,1.1,1.3-.2,14.6,1.4,4.4,4.6-.8.3-10.2-.1-4.1,1-4,1.7-1.9,2.7-4-.6-1.7,1.1-2.5-1.2-3.8.2-2.1Z" transform="translate(-1.5 -1.5)"/>
    <path id="BF" class="cls-1" d="M780.8,402.8h-3.6l-1.4-1.2-3,.9-5.2,2.6-1.1,2-4.3,2.9-.8,1.6-2.3,1.3-2.7-.9-1.6,1.6L754,418l-4.5,5.2.2,2.2-1.6,2.7.4,3.7,2.5,1.4,1,2.1,2.5,1.3,1.9-1.6,2.7-.2,3.8,1.6-.8-4.8.2-3.6,9.7-.3,2.4.5,1.8-1,2.6.5,4.9.1,1.9-.7,1.2-2.8,2.7-.6,1.2-1.9.1-4.4-6.4-1.4-.2-3.1-3.1-4.1-.8-2.9.5-3.1Z" transform="translate(-1.5 -1.5)"/>
    <path id="BD" class="cls-1" d="M1288.5,357.5l-4.5-10.1-1.5.1-.2,4-3.5-3.3,1.1-3.6,2.4-.4,1.6-5.3-3.4-1.1-5,.1-5.4-.9-1.2-4.4-2.7-.4-4.8-2.7-1.2,4.3,4.6,3.4-3.1,2.4-.8,2.3,3.7,1.7-.4,3.8,2.6,4.8,1.6,5.2,2.2.6,1.7.7.6-1.2,2.5,1.3,1.3-3.5-.9-2.6,5.1.2,2.8,3.7,1.5,3.1.8,3.2,2,3.3-1.1-5.1,2.1,1-.5-4.6Z" transform="translate(-1.5 -1.5)"/>
    <path id="BG" class="cls-1" d="M923.6,219.9l-3-.7-4-2.2-5.8,1.4-2.3,1.6-7.5-.3-4-1-1.9.5-1.8-2.6-1.1,1.4.7,2.3,2.8,2.6-1.7,1.9-.7,2,.6.7-.7.9,2.8,2,.8,4.1,3.8.2,3.9-1.7,3.9,2.1,4.6-.6-.3-3,5-2,4.5.8-2.1-3.5,1.3-4.4,2.2-2.5Z" transform="translate(-1.5 -1.5)"/>
    <path id="BA" class="cls-1" d="M864.2,210.5l-2.3.1-1,1.3-1.9-1.4-.9,2.5,2.7,2.9,1.3,1.9,2.5,2.3,2,1.4,2.2,2.5,4.7,2.4.4-3.4,1.5-1.4.9-.6,1.2-.3.5-2.9-2.7-2.3,1-2.7h-1.8l-2.4-1.4-3.5.1-4.4-1Z" transform="translate(-1.5 -1.5)"/>
    <path id="BY" class="cls-1" d="M914.8,145l-5.2-1.5-4.6,2.3-2.6,1,.9,2.6-3.5,2-.5,3.4-4.8,2.2h-4.6l.6,2.7,1.7,2.3.3,2.4-2.7,1.2,1.9,2.9.5,2.7,2.2-.3,2.4-1.6,3.7-.2,5,.5,5.6,1.5,3.8.1,2,.9,1.6-1.1,1.5,1.5,4.3-.3,2,.6-.2-3.1,1.2-1.4,4.1-.3h0l-2-3.9-1.5-2,.8-.6,3.9.2,1.6-1.3-1.7-1.6-3.4-1.1.1-1.1-2.2-1.1-3.7-3.9.6-1.6-1-2.9-4.8-1.4-2.3.7-1-1.4Z" transform="translate(-1.5 -1.5)"/>
    <path id="BZ" class="cls-1" d="M284.5,396.7l1.4-2.2,1-.2,1.3-1.7,1-3.2-.3-.6.9-2.3-.4-1,1.3-2.7.3-1.8h-1.1l.1-.9h-1l-2.5,3.9-.9-.8-.7.3-.1,1-.7,5-1.2,7.2Z" transform="translate(-1.5 -1.5)"/>
    <path id="BO" class="cls-1" d="M457.7,626.1l1.6-1.3-.8-3.6,1.3-2.8.5-5-1.6-4-3.2-1.7-.8-2.6.6-3.6-10.7-.3-2.7-7.4,1.6-.1-.3-2.8-1.2-1.8-.5-3.7-3.3-1.9-3.5.1-2.5-1.9-3.8-1.2-2.4-2.4-6.3-1-6.4-5.7.3-4.3-.9-2.5.4-4.7-7.3,1.1-2.8,2.3-4.8,2.6-1.1,1.9-2.9.2-4.2-.6,5.5,10.3-1.1,2.1.1,4.5.3,5.4-1.9,3.2,1.2,2.4-1.1,2.1,2.8,5.3-2.8,6.9,3.1,4.3,1.2,4.6,3.2,2.7-1.1,6.2,3.7,7.1,3.1,8.8,3.8-.9,4-5.7,7.4,1.5,3.7,4.6,1.6-5.1,6.3.3,1,1.3,1.5-7.6-.2-3.4,2.1-5.6,9.5-1.9,5.1.1,5.4,3.3.3,1.9Z" transform="translate(-1.5 -1.5)"/>
    <path id="BR" class="cls-1" d="M461,485.7l-1.4.2-3.1-.5-1.8,1.7-2.6,1.1-1.7.2-.7,1.3-2.7-.3-3.5-3-.3-2.9-1.4-3.3,1-5.4,1.6-2.2-1.2-3-1.9-.9.8-2.8-1.3-1.5-2.9.3.7,1.8-2.1,2.4-6.4,2.4-4,1-1.7,1.5-4.4-1.6-4.2-.8-1,.6,2.4,1.6-.3,4.3.7,4,4.8.5.3,1.4-4.1,1.8-.7,2.7-2.3,1-4.2,1.5-1.1,1.9-4.4.5-3-3.4-1.1.8-1-3.8-1.6-2-1.9,2.2-10.9-.1v3.9l3.3.7-.2,2.4-1.1-.6-3.2,1v4.6l2.5,2.4.9,3.6-.1,2.8-2.2,17.4-5.1-.3-.7,1-4.6,1.2-6.2,4.3-.4,3-1.3,2.2.7,3.4-3.3,1.9.1,2.7-1.5,1.1,2.6,5.8,3.3,3.8-1,2.8,3.7.3,2.3,3.4,4.9.2,4.4-3.8.2,9.7,2.6.7,3-1.1,4.2.6,2.9-.2,1.1-1.9,4.8-2.6,2.8-2.3,7.3-1.1-.4,4.7.9,2.5-.3,4.3,6.4,5.7,6.3,1,2.4,2.4,3.8,1.2,2.5,1.9,3.5-.1,3.3,1.9.5,3.7,1.2,1.8.3,2.8-1.6.1,2.7,7.4,10.7.3-.6,3.6.8,2.6,3.2,1.7,1.6,4-.5,5-1.3,2.8.8,3.6-1.6,1.3,1.9,3.6.4,8.6,6,1.2,2.1-1.2L472,640l1.2,1.9,1,5.8.9,2.5,2,.3,2-1.1,2.1,1.2.3,3.5-.3,3.8-.7,3.6,2.6-1.2,3.1,3.7.5,5.1-4.2,3.5-3.3,2.6-5.3,6.2L468,690l3.4-.7,6.2,4.9,1.9-.2,6.2,4.1,4.8,3.5,3.8,4.3-1.9,3,2.1,3.7,2.9-3.7,1.5-6,3.2-3,3.9-5,4.5-11.2,3.4-3.5.8-3.1.3-6.4-1.3-3.5.3-4.8,4.1-6.3,6-5.1,6-1.8,3.6-2.9,8.5-2.4h5.9l1.1-3.8,4.2-2.8.6-6.5,5.1-8.3.5-8.5,1.6-2.6.3-4.1,1.1-9.9-1-11.9,1.4-4.7,1.4-.1,3.9-5.5,3.3-7.2,7.7-8.8L582,555l2-10.5-1-3.9-2-8.1-2.1-2-4.8-.2-4.3-1.9-7.3-7.1-8.4-5.3-8.4.3-10.9-3.4-6.5,2,.8-3.5-2.7-3.8-9.4-3.8-7.1-2.3-4.2,4.1-.3-6.3-9.9-1-1.7-2,4.2-5.2-.1-4.4-3-1-3-11.2-1.3-3.5-1.9.3-3.5,5.8-1.8,4.7-2.1,2.4-2.7.5-.8-1.8-1.2-.3-1.8,1.8-2.4-1.3-3.2-1.4-2.7.7-2.3-.6-.5,1.8.9,1.3-.5,1.3-3.1-.5Z" transform="translate(-1.5 -1.5)"/>
    <path id="BN" class="cls-1" d="M1419.8,469l2.7,3.3,1.1-2.2,2.7.2.1-4.1.1-3.1-4.6,3.5-2.1,2.4Z" transform="translate(-1.5 -1.5)"/>
    <path id="BT" class="cls-1" d="M1276.7,321.1l-2.7-1.8-2.9-.1-4.2-1.5-2.6,1.6-2.6,4.8.3,1.2,5.5,2.5,3.2-1,4.7.4,4.4-.2-.4-3.9-2.7-2Z" transform="translate(-1.5 -1.5)"/>
    <path id="BW" class="cls-1" d="M918.7,610.6l-1-.5-3.2,1.5h-1.6l-3.7,2.5-2-2.6-8.6,2.2-4.1.2-.9,22.7-5.4.2-.6,18.5,1.4,1,3,6.1-.7,3.8,1.1,2.3,4-.7,2.8-2.8,2.7-1.9,1.5-3.1,2.7-1.5,2.3.8,2.5,1.8,4.4.3,3.6-1.5.6-2,1.2-3,3-.5,1.7-2.4,2-4.3,5.2-4.7,8-4.7-3.4-2.9-4.2-.9-1.5-4.1.1-2.2-2.3-.7-6-7-1.6-3.7-1.1-1.1-1.9-5.1Z" transform="translate(-1.5 -1.5)"/>
    <path id="CF" class="cls-1" d="M912.5,442.9l-.5-.3-2-1.8-.3-2,.8-2.6v-2.6l-3.3-4-.7-2.7L903,428l-2.8,2.5-4,7-5.2,2.9-5.4-.4-1.6.6.6,2.3-2.9,2.2-2.3,2.5-7.1,2.4-1.4-1.4-.9-.2-1,1.7-4.7.4-2.7,6.5-1.4,1.1-.4,5,.6,2.7-.4,1.9,2.6,3.3.5,2.3,2.1,3.2,2.6,2.1.3,2.9.6,1.8,2.9-5.9,3.3-3.4,3.8,1.1,3.6.4.5-4.5,2.2-3.2,3-2,4.6,2.1,3.6,2.4,4.1.6,4.2,1.2,1.6-3.8.8-.5,2.6.6,6.2-3.1,2.2,1.3,1.8-.2.9-1.5,2-.6,4.3.7,3.6.1,1.8-.6-.9-2.1-4.2-2.5-1.5-3.8-2.4-2.7-3.8-3.4-.1-2-3.1-2.6-3.8-2.5Z" transform="translate(-1.5 -1.5)"/>
    <path id="CA" class="cls-1" d="M461,202.3l-.7-3-2.5,1.9.5,2.1,5.6,2.6,1.9-.4,3.3-2.5-4.7.1-3.4-.8Zm14.4-15.9.2-1.1-4.1-2.6-5.9-1.6-1.9.6,3.5,2.9,5.7,1.9,2.5-.1Zm-305.3,3.7.2-3.4-3.2-2.6-.4-2.9-.1-2.1-4.1-.7-2.4-.9-4.1-1.4-1.4,1.5-.6,3.3,4.3,1.1-.4,1.8,2.9,2.2v2.2l6.3,2.8,3-.9Zm336.1-13.5,3.9-3.8,1.4-1.7-2.1-.3-4.9,2.2-4.2,3.5-8.1,9.8-5.3,3.7,1.6,1.7-3.8,2.2.2,1.9,9.6.1,5.4-.3,4.4,1.5-4.4,2.9,2.9.2,7.3-5.4,1.2.8-2.5,5.1,3,1.2,2.3-.2,3.5-5.5-.5-3.9.3-3.3-3.7,1.1,2.8-4.6-4.3-1.9-2.7,1.5-3.9-1.7,2.4-2.1-2.9-1.3-3.8,2,4.9-5.4ZM149.4,155.4l-1.9,2-1.4,2.6.9,1.9-.6,2.8.7,2.8H149l-.2-4.9,7.1-6.9-4.9.5-1.6-.8Zm280.9-47-.4-1.2-1.7-.1-2.8,1.7-.4.4.1,1.7,1.7.5,3.5-3Zm-9.6-3.2.8-1.1-6-.1-4.9,2.7v1.5l3,.2,7.1-3.2Zm-3.1-16.6-2.7-.5-5,5.2-3.6,4.4-5.7,2.8,6.3-.6-.8,3.4,8.2-3,6.2-3,.8,2.6,5.9,1.3,4.9-1.8-1.9-1.8-3.4.4,1.3-2.7-3.7-1.7L421,91.7l-1.5-1.5-2.8.9.9-2.5Zm44.6-8.2,3.7-1.7,1-.7,1.4-2.3L466,74.2l-4.2.7L458,78l-.7,2.6,4.9-.2ZM388.4,69.7l-.8-2-.3-1-1.6-1-3-1.5-4.9,2.3-5,1.7,3.5,2.4,3.8-.6,4.1,1.6Zm22.4-2.1-6.6-1,5.7-2.6-.4-6-1.9-2.3-4.5-.8L395,58.7l-5.5,5.8,2.9,2.1,1.6,3.3-6.3,5.5-3.2-.2-6.2,4.4,4.2-5.2-4.8-1.8-4.5.9-2.4,3.4-5.9-.1-7.2.8-5.1-2.4-5,.4-1.5-2.9L344,71.4l-3.8.5-5.2.3L330.6,74l2,2.3-7,2.8-1.4-3.3-4.4,1-11.8.6-6.4-1.2,8.5-2.6-2.8-2.8-4.4.4-4.7-1-7.5-1.9L286.9,66l-4.5-.3-3.3,1.6-5.9.9,3.9-4.1-9.4,3.6L266.3,63l-2.1-.6-3.8,2.5-4.5,1.2-.2-2.2-8.2,1.4-8.8,2.3-5.2-.6-7,1.6-6.2,2.3-3.7-.5-3.3-2.6-5.9-1.3h0L183.1,86.7l-35.4,32.4,4.2.1,2.7,1.6.6,2.6.2,3.9L163,124l6.4-1.9-.5,3,.7,2.4,1.7,2.7-1.1,4.2-1.5,6.8,4.6,3.8-3.1,3.7-5.1,2.9h0l-2.5,3.1,2.1,4.4-3.1,4.9,4.1,2.6-3.6,3.7-1.3,5.5,6.9,2.5,1.6,2.7,5.4,6.1H311.3l1.3-2.4h1.6l-.8,3.4,1,1,3.2.4,4.6,1,3.8,1.9,4.4-.8,5.3,1.6h0l3.2-2.4,3.2-1,1.8-1.5,1.5-.8,4,1.2,3.3.2.8.8.1,3.5,5.2,1-1.7,1.7,1.2,1.9-1.9,2.3,1.8.8-1.9,2.1h0l1.2.2,1.3-.9.5,1.4,3.4.7,3.8.1,3.8.6,4,1.2.8,2,1.4,4.7-2.4,2-3.8-.8-1-3.8-.9,3.9-3.8,3.4-.8,2.9-1.1,1.7-4.1,2h0l-3.7,3.4-2,2.2,2.7.4,4.5-2,2.9-1.7,1.6-.3,2.6.6,1.7-.9,2.8-.8,4.7-.8h0l.3-1.8-.3.1-1.7.3-1.8-.6,2.3-2.1,1.9-.7,3.9-.9,4.6-.9,1.8,1.2,1.9-1.4,1.9-.8.9.4.1.1,6.7-4.2,2.7-1.2h17l1-1.6,1.7-.3,2.5-.9,2.7-2.8,3.2-4.9,5.5-4.7,1.1,1.7,3.7-1.1,1.5,1.8-2.8,8.5,2.1,3.5,5.9-.8,8.1-.2-10.4,5.1-1.5,5.2,3.7.5,7.1-4.5,5.8-2.4,12.2-3.7,7.5-4.1-2.6-2.2,1-4.5-7.1,7-8.6.8-5.5-3.1-.1-4.6.6-6.8,6.1-4.1-3.3-3.1-7.6.6L440,191.4l-10.9,8.2-4.6,1,7.8-5.7,10.1-8.3,7.2-2.7,5.7-4.4,5.2-.5,7.3.1,10,1.3,8.6-1,7.8-5.1,8.7-2.2,4.2-2.1,4.2-2.3,2-6.8-1.1-2.3-3.4-.8v-5.1l-2.3-1.9-6.9-1.6-2.8-3.4-4.8-3.4,3.4-3.7-2-7.1-2.6-7.5-1-5.2-4.3,2.7-7.4,6.5-8.1,3.2-1.6-3.4-3.7-1,2.2-7.3,2.6-4.9-7.7-.5-.1-2.2-3.6-3.3-3-2-4.5,1.5-4.2-.5-6.6-1.6-3.9,1.3-3.8,9-1,5.3-8.8,6.1,3.1,4.5.5,5-1.7,4-4.7,4.1-7.5,4.2-9,2.8,1.7,3.2-2.2,9.6-5.6,6.3-4.6,1.9-4.4-5.8-.1-6.8,1.7-6,3.6-5.2-4.8-.6-7.5-.4-3.6-2.5-4.8-1.6-1.7-2.9-3.3-2.2-7-2.6-7.1,1.2.7-4.5,1.5-5.5-6-1,4.9-6.8,4.9-4.6,9.4-6.5,8.6-4.6,5.6-.7,2.9-3.7,5.1-2.4,6.4-.4,7.7-3.8,2.9-2.4,7.4-4.7,3.2-2.8,3.2,1.7,6.5-.9L439,80.6l2.3-2.7-.8-2.9,5-2.9,1.7-2.7-3.5-2.6-5.4-.8-5.5-.4-4.6,5.9-6.5,4.6-7.2,4-1.3-3.7,4.2-4-2.2-3.5-8.7,4.2,4.3-5.5ZM335.3,48.7l-2.8-1-14.1,3.2-5.1,2-7.8,3.9,5.4,1.4,6.2-.1-11.5,2.1v1.9l5.6.1,9-.4,6.5,1.2-6.2,1-5.5-.3-7.1.9-3.3.6.6,4.2,4.2-.6,4.1,1.5-.3,2.5,7.8-.5,11.2-.8,9.4-1.8,5-.4,5.7,1.5,6.7.8,3.1-1.9-.7-2.1,7-.4,2.6-2.4-5-2.5-4.2-2.6,2.4-3.6,2.7-5.1-2.2-2-3-.9-4.2.8-2.8,5.3-4.3,2.1,2.2-5.1-1.7-1.7-7.3,2.7L341,49.6l-10.4,1.5,4.7-2.4Zm39.1-1.5-1.7-1.1-5.4.2-2.1.7,2.2,3.6Zm107.7,1.6L477.7,46l-8.4-.5-2.1.3-1.7,1.8,2,2.8.9.3,4.8-.7,4.1.1,4.1.1.7-1.4Zm-39.4-.3,5.7-3.2-11.2,1.3-5.8,2.1-7.1,4.6L421,58.5l5.6.1-6.1,2.3,1.8,1.9,5.9.8,7.3,1.5,13.8,1.2,7.9-.6,3.2-1.6,2,1.8,3.3.3,2,3.3-3.5,1.4,7.1,1.8,4.6,2.6.5,1.9-.4,2.4L467.4,85l-3.2,2.7.2,2-9.2.7-8,.1-5.4,4.2,2.4,1.9,13-.9.9-1.6,4.7,2.7,4.7,2.9-2.4,1.6,3.8,2.8,7.6,3.3,10.7,2.3.3-2-2.8-3.5-3.5-4.9,8.5,4.6,4.7,1.5,3.6-4.1V95.7l-1-1.5-4.4-2.5-2.7-3.3,2.3-3.2,5.8-.7,3.8,5.4,4,2.4,10.7-6.5,3.3-3.9-6.4-.3-3.2-5.1-5.9-1.2-7.7-3.5,9-2.5-.8-5-2.2-2.1-8.3-2.1-1.9-3.3L484.2,58l1.1-2.3-3.6-2.5-6.8-2.6-5.2,2.1-9,1.5,3.3-3.4-2.3-5.3-11.6,2.1L443,51.7l-.3-3.2Zm-50-3.4-7.1,2.4.9,3.4-7.4-.7-1.7,1.7,5.8,3.9.9,2,3.4.5,8.4-2,5.1-4.7-3.8-2.2,6-2.4.5-1.5-7.5.6-3.5-1ZM415,50.5l5.6-1,10-4.5-6.1-1.2-7.8-.2L411.5,45l-4.2,2.1-2.5,2.6L403,54.2l4.3.2ZM300.3,57.7l2.6-2.3,9.1-3.6,13.8-3.6,6.4-1.3-1.6-2.1-1.9-1.5-9.4-.2L315.2,42l-14,.8-.3,3.1-7.6,3.3L285.9,53l-4.3,2.2,5.9,2.7-.6,2.3,13.4-2.5ZM424.4,39.4l.3-1.6-1.4-1.7-6.9,1.3L412,39.6l3.2,1.3,5.1.4,4.1-1.9Zm-8.7-8.6-1.1.7-4.8-.3-7.6,1.6-3.8-.1-4.3,3.8,6.6-.4L397.3,39l3.2.8,6.8-.5,5.8-3.7,2.8-2.5Zm-39.1,2.5,1.8-2.3-3.1-.5-5.7,1.7-.7,4.7-6.1-.4L360,33.6,351.8,32l-5.4,1.4-11.6,4.8,4.1.8,17.8-.5-10.6,2.2-1.5,1.6,5.9-.1L362.7,40l13.8-.8,5.1-2.3,2.3-2.4-3.7-.2-4.3.8ZM431.8,29l-7.1-.3-3.8,2,2.6,1.5,7,.6,1.4,2.1-2.2,2.4-1.5,2.8,8.5,1.6,5.5.6,8-.1,11.6-.8,4.3.6,6.7-1,3.5-1.4,1-2L475,35.7l-5.8-.3-8,.4-7,1.1-5.1-.4-4.8-.3-1.2-1.1L440,34l2.8-1.9-1.4-1.6-7.3.1L431.8,29Zm-75-2.6-6,.7-5.5-.1-12.1,3.1-11.6,3.7h0l3.6,1,7-.7L342,32l3.8-.3,5.2-1.6Zm80.5.6,1-.5-1.5-.9-7.2-.1-.6,1.3,6.4.3,1.9-.1Zm-58.4-.8,3.2-1.4L378,24l-5.9.5L367,26l3.3,1.5Zm7.8-4.2-3.3-.9-1.6-.2-5.7,1.3-1,.7h6Zm46.4,2.5,3-1.7-2.3-1.6-1.7-.3-4.4-.1-2.1,1.8-.7,1.8,1.6,1.1,6.6-1Zm-13.7-1.2.1-2.2-7.4-1.7-6.1-.6-2.1,1.7,2.8,1.1L401.4,23l7.7.2,4,1.5,5.2.5Zm53.7-6.1.6-2.8-4.7-.8-4.7-.9-1.6-2.2-8.2.2.3.9-3.9.3-4.1,1.3-4.9,1.9-.3,1.9,2,1.5h6.5l-4.3,1.2-2.1,1.6,1.6,1.9,6.7.6,6.8-.4L469.3,20l6.4-1.3ZM551.6,3.4l-7-.2-6.9-.3-10.2.6-1.4-.4-10.3.2-6.4.4-5.1.6-5,2-2.3-1-3.9-.2-6.7,1.4-7.4.6-4.1.1-6,.8-1.1,1.3,2.5,1.2.8,1.6,4.4,1.5,12.4-.3,7.2.5-7.2,1.5-2.2-.4-9.3-.2-1.1,2.2,3,1.7-2.8,1.6L468,21.3,463.1,23l4.8.9,1.7,3-7.5-2-2.5.3-2,3.4-8,1.1-2,2.3,6.7.3,4.9.6,11.7-.8,8.4,1.4,12.6-3,1-1.1-6.4.2.5-1.1,6.5-1.4,3.6-1.9,6.8-1.3,5-1.6-.8-2.2,3.3-.8-4.3-.6,11.1-.4,3.2-.9,7.9-.8,9.3-3.5,6.8-1.1,10.3-2.5h-7.4l3.9-.9,9-.8,9.7-1.6L572,5.1l-5.2-1-6.7-.4-8.5-.3Z" transform="translate(-1.5 -1.5)"/>
    <path id="CH" class="cls-1" d="M826.3,196.2l-5.4-1.9-1,1.4h-4.2l-1.3,1-2.3-.6.2,1.6-3.5,3.5V204l2.4-.9,1.8,2.7,2.2,1.3,2.4-.3,2.7-2.1.9,1,2.4-.2.9-2.5,3.8.8,2.1-1.1.3-2.5-2.6-.2-2.3-1.1.7-1.6-.2-1.1Z" transform="translate(-1.5 -1.5)"/>
    <path id="CL" class="cls-1" d="M450.4,830.8l-3.7-.7-3.3,2.5.2,4.1-1.2,2.8-7.2-2.2-8.6-4-4.5-1.3,9.7,6.8,6.3,3.2,7.5,3.4,5.3.9,4.3,1.8,3,.5,2.3.1,3.2-1.8.5-2.4-2.9-.2h-5l-5.9-13.5ZM403.1,634.5l-3.7-7.1,1.1-6.2-3.2-2.7-1.2-4.6-3.1-4.3-1.2,3.3-2.7,1.6,2.1,9,1.5,10.4-.1,14.2v13.2l.9,12.3-1.9,7.8,2.1,7.8-.5,5.3,3.2,9.5-.1,9.5-1.2,10.2-.6,10.5-2.1.2,2.4,7.3,3.3,6.3-1.1,4.3,1.9,11.6,1.5,8.8,3.5.9-1.1-7.7,4,1.6,1.8,12.7-6.4-2.1,2,10.2-2.7,5.5,8.2,1.8-3.4,4.8.2,6,5,10.6,4.2,4.1.2,3.6,3.3,3.8,7.5,3.5h0l7.4,4.2,6.2,2,2-.1-1.8-5.7,3.4-2.2,1.7-1.5h4.2l-4.8-.9-12-.8-3.5-3.6-1.8-4.6-3.1.4L422,817l-3.1-6.6,2.7-2.7.1-3.9-1.8-3.2.7-5.3-1.1-8.2-1.8-3.7,1.8-1.1-1.3-2.3-2.8-1.3.8-2.6-3.1-2.3-3.6-7.1,1.6-1.2-3.3-7.6-.7-6.4-.3-5.7,2.5-2.4-3.3-6.3-1.5-5.9,2.9-4.3-1.4-5.4,1.6-6.2-1.3-5.9-1.6-1.2-4.9-10.9,2.1-6.5-1.7-6.2.9-5.8,2.6-5.9,3.2-4-2-2.5.9-2-1.6-10.6,5.6-3.2,1.1-6.6-.9-1.6-3.8.9-3.1-8.8Z" transform="translate(-1.5 -1.5)"/>
    <path id="CN" class="cls-1" d="M1389.2,378.9l.6-3.6,2-2.8-1.6-2.5-3.2-.1-5.8,1.8-2.2,2.8,1,5.5,4.9,2,4.3-3.1Zm13.2-196.5-6.1-6.1-4.4-3.7-3.8-2.7-7.7-6.1-5.9-2.3-8.5-1.8-6.2.2-5.1,1.1-1.7,3,3.7,1.5,2.5,3.3-1.2,2,.1,6.5,1.9,2.7-4.4,3.9-7.3-2.3.6,4.6.3,6.2,2.7,2.6,2.4-.8,5.4,1,2.5-2.3,5.1,2,7.2,4.3.7,2.2-4.3-.7-6.8.8-2.4,1.8-1.4,4.1-6.3,2.4-3.1,3.3-5.9-1.3-3.2-.5-.4,4,2.9,2.3,1.9,2.1-2.5,2-1.9,3.3-4.9,2.2-7.5.2-7.2,2.2-4.4,3.3-3.2-2-6.2.1-9.3-3.8-5.5-.9-6.4.8-11.2-1.3-5.5.1-4.7-3.6-4.9-5.7-3.4-.7-7.9-3.8-7.2-.9-6.4-1-3-2.7-1.3-7.3-5.8-5-8.1-2.3-5.7-3.3-3.3-4.4-1.7.5-1.8,4.2-3.8.6,2.5,6.2-1.6,2.8-10.7-2,1,11.1-2,1.4-9,2.4,8.7,10.7-2.9,1.6,1.7,3.5-.2,1.4-6.8,3.4-1,2.4-6.4.8-.6,4-5.7-.9-3.2,1.2-4,3,1.1,1.5-1,1.5,3,5.9,1.6-.6,3.5,1.4.6,2.5,1.8,3.7,1.4,1.9,4.7,3,2.9,5,9.4,2.6,7.6,7.5.8,5.2,3,3.3.6,3.3-4.1-.9,3.2,7,6.2,4,8.5,4.4,1.9-1.5,4.7,2,6.4,4.1,3.2.9,2.5,3.1,4.5,1.2,5,2.8,6.4,1.5,6.5.6,3-1.4,1.5,5.1,2.6-4.8,2.6-1.6,4.2,1.5,2.9.1,2.7,1.8,4.2-.8,3.9-4.8,5.3-4,4.9,1.5,3.2-2.6,3.5,3.9-1.2,2.7,6.1.9,3-.4,2.7,3.7,2.7,1.5,1.3,4.9.8,5.3-4.1,5.3.7,7.5,5.6-1,2.3,5.8,3.7,1.3-.8,5.2,4.5,2.4,2.5,1.2,3.8-1.8.6,2.6.7,1.5,2.9.1-1.9-7.2,2.7-1,2.7-1.5h4.3l5.3-.7,4.1-3.4,3,2.4,5.2,1.1-.2,3.7,3,2.6,5.9,1.6,2.4-1,7.7,2-.9,2.5,2.2,4.6,3-.4.8-6.7,5.6-.9,7.2-3.2,2.5-3.2,2.3,2.1,2.8-2.9,6.1-.7,6.6-5.3,6.3-5.9,3.3-7.6,2.3-8.4,2.1-6.9,2.8-.5-.1-5.1-.8-5.1-3.8-2-2.5-3.4,2.8-1.7-1.6-4.7-5.4-4.9-5.4-5.8-4.6-6.3-7.1-3.5.9-4.6,3.8-3.2,1-3.5,6.7-1.8-2.4-3.4-3.4-.2-5.8-2.5-3.9,4.6-4.9-1.9-1.5-2.9-4.7-1-4.7-4.4,1.2-3,5-.3,1.2-4.1,3.6-4.4,3.4-2.2,4.4,3.3-1.9,4.2,2.3,2.5-1.4,3,4.8-1.8,2.4-2.9,6.3-1.9,2.1-4,3.8-3.4,1-4.4,3.6,2,4.6.2-2.7-3.3,6.3-2.6-.1-3.5,5.5,3.6h0l-1.9-3.1,2.5-.1-3.8-7.3-4.7-5.3,2.9-2.2,6.8,1.1-.6-6-2.8-6.8.4-2.3-1.3-5.6-6.9,1.8-2.6,2.5h-7.5l-6-5.8-8.9-4.5-9.9-1.9Z" transform="translate(-1.5 -1.5)"/>
    <path id="CI" class="cls-1" d="M748.5,431.8l-2.3.9-1.3.8-.9-2.7-1.6.7-1-.1-1,1.9-4.3-.1-1.6-1-.7.6-1.1.5-.5,2.2,1.3,2.6,1.3,5.1-2,.8-.6.9.4,1.2-.3,2.8h-.9l-.3,1.8.6,3.1-1.2,2.8,1.6,1.8,1.8.4,2.3,2.7.2,2.5-.5.8-.5,5.2,1.1.2,5.6-2.4L746,466l6.6-1.1,3.6-.1,3.9,1.3,2.6-.1.2-2.5-2.4-5.5,1.5-7.2,2.3-5.3-1.4-9.1-3.8-1.6-2.7.2-1.9,1.6-2.5-1.3-1-2.1-2.5-1.4Z" transform="translate(-1.5 -1.5)"/>
    <path id="CM" class="cls-1" d="M862.1,428.5l.2-4.3-.5-4.2-2.2-4.1-1.6.4-.2,2,2.3,2.6-.6,1.1-.3,2.1-4.6,5-1.5,4-.7,3.3-1.2,1.4-1.1,4.5-3,2.6-.8,3.2-1.2,2.6-.5,2.6-3.9,2.2-3.2-2.6-2.1.1-3.3,3.7-1.6.1-2.7,6.1-1.4,4.5v1.8l1.4.9,1.1,2.8,2.6,1.1,2.2,4.2-.8,5,9.2.2,2.6-.4,3.4.8,3.4-.8.7.3,7.1.3,4.5,1.7,4.5,1.5.4-3.5-.6-1.8-.3-2.9-2.6-2.1-2.1-3.2-.5-2.3-2.6-3.3.4-1.9-.6-2.7.4-5,1.4-1.1,2.7-6.5.9-1.7-1.8-4.4-.8-2.6-2.5-1.1-3.3-3.7,1.2-3,2.5.6,1.6-.4,3.1.1-3.1-5.8Z" transform="translate(-1.5 -1.5)"/>
    <path id="CD" class="cls-1" d="M926.9,465l-4.3-.7-2,.6-.9,1.5-1.8.2-2.2-1.3-6.2,3.1-2.6-.6-.8.5-1.6,3.8-4.2-1.2-4.1-.6-3.6-2.4-4.6-2.1-3,2-2.2,3.2-.5,4.5-.3,3.8-1.6,3.4-1.1,4-.7,5.6.3,3.6-.9,2.2-.2,2.4-.6,2-3.7,3.1-2.6,3.2-2.5,6.2.2,5.3-1.4,2-3.3,3.1-3.4,4-2-1.1-.4-1.8-3.1-.1-1.9,2.4-1.5-.6-2,1.3-.9,1.7-.2,2.7-1.5.7.8,2,2.3-.9,1.7.1,1.9-.7,16.6.1,1.3,4.7,1.6,3.8,1.3,2.1,2.1,3.3,3.7-.5,1.9-.9,3,.9.9-1.6,1.5-3.7,3.4-.3.3-1.1h2.9l-.5,2.3h6.8v4l1.2,2.4-.9,3.8.3,4,1.9,2.3-.5,7.6,1.4-.6,2.4.2,3.5-1,2.6.4,1.9.1.3,2,2.6-.1,3.5.6,1.8,2.8,4.5.9,3.4-2,1.2,3.4,4.3.8,2,2.8,2.1,3.5h4.3l-.3-6.9-1.5,1.2-3.9-2.5-1.4-1.1.8-6.4,1.2-7.5-1.2-2.8,1.6-4.1,1.6-.7,7.5-1.1,1,.3.2-1.1-1.5-1.7-.7-3.5-3.4-3.5-1.8-4.5,1-2.7-1.5-3.6,1.1-10.2.1.1-.1-1.1-1.4-2.9.6-3.5.8-.4.2-3.8,1.6-1.8.1-4.8,1.3-2.4.3-5.1,1.2-3,2.1-3.3,2.2-1.7,1.8-2.3-2.3-.8.3-7.5h0l-5-4.2-1.4-2.7-3.1,1.3-2.6-.4-1.5,1.1-2.5-.8-3.5-5.2-1.8.6-3.6-.1Z" transform="translate(-1.5 -1.5)"/>
    <path id="CG" class="cls-1" d="M882.3,475.5l-3.6-.4-3.8-1.1-3.3,3.4-2.9,5.9-.4,3.5-4.5-1.5-4.5-1.7-7.1-.3-.4,2.8,1.5,3.3,4.2-.5,1.4,1.2-2.4,7.4,2.7,3.8.6,4.9-.8,4.3-1.7,3-4.9-.3-3-3-.5,2.8-3.8.8-1.9,1.6,2.1,4.2-4.3,3.5,4.6,6.7,2.2-2.7,1.8-1.1,2,2.2,1.5.6,1.9-2.4,3.1.1.4,1.8,2,1.1,3.4-4,3.3-3.1,1.4-2-.2-5.3,2.5-6.2,2.6-3.2,3.7-3.1.6-2,.2-2.4.9-2.2-.3-3.6.7-5.6,1.1-4,1.6-3.4.3-3.8Z" transform="translate(-1.5 -1.5)"/>
    <path id="CO" class="cls-1" d="M380.3,422.8l1.2-2.1-1.3-1.7-2-.4-2.9,3.1-2.3,1.4-4.6,3.2-4.3-.5-.5,1.3-3.6.1-3.3,3-1.4,5.4-.1,2.1-2.4.7-4.4,4.4-2.9-.2-.7.9,1.1,3.8-1.1,1.9-1.8-.5-.9,3.1,2.2,3.4.6,5.4-1.2,1.6,1.1,5.9-1.2,3.7,2,1.5-2.2,3.3-2.5,4-2.8.4-1.4,2.3.2,3.2-2.1.5.8,2,5.6,3.6,1-.1,1.4,2.7,4.7.9,1.6-1,2.8,2.1,2.4,1.5,1.5-.6,3.7,3,1.8,3,2.7,1.7,3.4,6.7,4.2.8,3-1.7,2.1,1.1,3.3-.6,4.4,3-3.5,6.5,1.7.1,2.9,3.4,2.2-17.4.1-2.8-.9-3.6-2.5-2.4v-4.6l3.2-1,1.1.6.2-2.4-3.3-.7v-3.9l10.9.1,1.9-2.2,1.6,2,1,3.8,1.1-.8-1.7-6.4-1.4-2.2-2-1.4,2.9-3.1-.2-1.5-1.5-1.9-1-4.2.5-4.6,1.3-2.1L401,459l-2-1.1-3.2.7-4-.3-2.3.7-3.8-5.5-3.2-.8-7.2.6-1.3-2.2-1.3-.6-.2-1.3.8-2.4-.4-2.5-1.1-1.4-.6-2.9-2.9-.5,1.8-3.7.9-4.5,1.8-2.4,2.2-1.8,1.6-3.2,3.7-1.1Z" transform="translate(-1.5 -1.5)"/>
    <path id="CR" class="cls-1" d="M311.1,428.2l-1.4,1.3-1.7-.4-.8-1.3-1.7-.5-1.4.8-3.5-1.7-.9.8-1.4,1.2,1.5.9-.9,2-.1,2,.7,1.3,1.7.6,1.2,1.8,1.2-1.6-.3-1.8,1.4,1.1.3,1.9,1.9.8,2.1,1.3,1.5,1.5.1,1.4-.7,1.1L311,444l2.9,1.4.4-1.2.5-1.3-.1-1.2.8-.7-1.1-1,.1-2.5,2.2-.6-2.4-2.7-2-2.6-1.2-3.4Z" transform="translate(-1.5 -1.5)"/>
    <path id="CU" class="cls-1" d="M341,352.9l-4.9-2.1-4.3-.1-4.7-.5-1.4.7-4.2.6-3,1.3-2.7,1.4-1.5,2.3-3.1,2,2.2.6,2.9-.7.9-1.6,2.3-.1,4.4-3.3,5.4.3-2.3,1.6,1.8,1.3,7,1,1.5,1.3,4.9,1.7,3.2-.2.8,3.6,1.7,1.8,3.5.4,2.1,1.7-4.1,3.5,7.9-.6,3.8.5,3.7-.3,3.8-.8.8-1.5-3.9-2.6-4-.3.6-1.7-3.1-1.3h-1.9l-3-2.8-4.2-4-1.8-1.5-5.2.8-1.9-2.4Z" transform="translate(-1.5 -1.5)"/>
    <path id="CZ" class="cls-1" d="M851.4,174.1l-2.1.6-1.4-.7-1.1,1.2-3.4,1.2-1.7,1.5-3.4,1.3,1,1.9.7,2.6,2.6,1.5,2.9,2.6,3.8,2,2.6-2.5,1.7-.5,4,1.9,2.3-.3,2.3,1.2.6-1.4,2.2.1,1.6-.6.1-.6.9-.3.2-1.4,1.1-.3.6-1.1H871l-2.6-3.1-3.6-.3-.7-2-3.4-.6-.6,1.5-2.7-1.2.1-1.7-3.7-.6-2.4-1.9Z" transform="translate(-1.5 -1.5)"/>
    <path id="DE" class="cls-1" d="M845.6,157.9l-2.4-1.9-5.5-2.4-2.5,1.7-4.7,1.1-.1-2.1-4.9-1.4-.2-2.3-3,.9-3.6-.8.4,3.4,1.2,2.2-3,3-1-1.3-3.9.3-.9,1.3,1,2-1,5.6-1.1,2.3h-2.9l1.1,6.4-.4,4.2,1,1.4-.2,2.7,2.4,1.6,7.1,1.2-2.3,4.2-.5,4.5h4.2l1-1.4,5.4,1.9,1.5-.3,2.6,1.7.6-1.6,4.4.3,3.4-1.2,2.4.2,1.7,1.3.4-1.1-1-4,1.7-.8,1.5-2.9-2.9-2.6-2.6-1.5-.7-2.6-1-1.9,3.4-1.3,1.7-1.5,3.4-1.2,1.1-1.2,1.4.7,2.1-.6-2.3-3.9.1-2.1-1.4-3.3-2-2.2L847,161l-1.4-3.1Z" transform="translate(-1.5 -1.5)"/>
    <path id="DJ" class="cls-1" d="M1019.8,424.8l-2.5-1.7,3.1-1.5.1-2.7-1.4-1.9-1.6,1.5-2.4-.5-1.9,2.8-1.8,3,.5,1.7.2,2,3.1.1,1.3-.5,1.3,1.1,2-3.4Z" transform="translate(-1.5 -1.5)"/>
    <path id="DK" class="cls-1" d="M837.9,146.8l-1.7-3-6.7,2,.9,2.5,5.1,3.4,2.4-4.9Zm-8.6-5.1-2.6-.9-.7-1.6,1.3-2-.1-3-3.6,1.6-1.5,1.7-4,.4-1.2,1.7-.7,1.6.4,6.1,2.1,3.4,3.6.8,3-.9-1.5-3,3.1-4.3,1.4.7,1-2.3Z" transform="translate(-1.5 -1.5)"/>
    <path id="DO" class="cls-1" d="M381.6,383v1.8l1.4,1,2.6-4.4,2-.9.6,1.6,2.2-.4,1.1-1.2,1.8.3,2.6-.2,2.5,1.3,2.3-2.6-2.5-2.3-2.4-.2.3-1.9-3,.1-.8-2.2-1.4.1-3.1-1.6-4.4-.1-.8,1.1.2,3.5-.7,2.4-1.5,1.1,1.2,1.9-.2,1.8Z" transform="translate(-1.5 -1.5)"/>
    <path id="DZ" class="cls-1" d="M823,262.5l-3.6.4-2.2-1.5h-5.6l-4.9,2.6-2.7-1-8.7.5-8.9,1.2-5,2-3.4,2.6-5.7,1.2-5.1,3.5,2,4.1.3,3.9,1.8,6.7,1.4,1.4-1,2.5-7,1-2.5,2.4-3.1.5-.3,4.7-6.3,2.5-2.1,3.2-4.4,1.7-5.4,1-8.9,4.7-.1,7.5v.4l-.1,1.2,20.3,15.5,18.4,13.9,18.6,13.8,1.3,3,3.4,1.8,2.6,1.1.1,4,6.1-.6,7.8-2.8,15.8-12.5,18.6-12.2-2.5-4-4.3-2.9-2.6,1.2-2-3.6-.2-2.7-3.4-4.7,2.1-2.6-.5-4,.6-3.5-.5-2.9.9-5.2-.4-3-1.9-5.6-2.6-11.3-3.4-2.6v-1.5l-4.5-3.8-.6-4.8,3.2-3.6L823,272l-1-6.2,1-3.3Z" transform="translate(-1.5 -1.5)"/>
    <path id="EC" class="cls-1" d="M355.1,498.7l-2.4-1.5-2.8-2.1-1.6,1-4.7-.9-1.4-2.7-1,.1-5.6-3.6-3.9,2.5-3.1,1.4.4,2.6-2.2,4.1-1,3.9-1.9,1,1,5.8-1.1,1.8,3.4,2.7,2.1-2.9,1.3,2.8-2.9,4.7.7,2.7-1.5,1.5.2,2.3,2.3-.5,2.3.7,2.5,3.2,3.1-2.6.9-4.3,3.3-5.5,6.7-2.5,6-6.7,1.7-4.1Z" transform="translate(-1.5 -1.5)"/>
    <path id="EG" class="cls-1" d="M931.7,300.4l-5.5-1.9-5.3-1.7-7.1.2-1.8,3,1.1,2.7-1.2,3.9,2,5.1,1.3,22.7,1,23.4h65.3l-1-1.3-6.8-5.7-.4-4.2,1-1.1-5.3-7-2-3.6-2.3-3.5-4.8-9.9-3.9-6.4-2.8-6.7.5-.6,4.6,9.1,2.7,2.9,2,2,1.2-1.1,1.2-3.3.7-4.8,1.3-2.5-.7-1.7-3.9-9.2h0l-2.5,1.6-4.2-.4-4.4-1.5-1.1,2.1-1.7-3.2L945,297l-4.7.6-2.1,1.8-3.9,2-2.6-1Z" transform="translate(-1.5 -1.5)"/>
    <path id="ER" class="cls-1" d="M1000.1,399.6l-3.2-3.1-1.8-5.9-3.7-7.3-2.6,3.6-4,1-1.6,2-.4,4.2-1.9,9.4.7,2.5,6.5,1.3,1.5-4.7,3.5,2.9,3.2-1.5,1.4,1.3,3.9.1,4.9,2.5,1.6,2.2,2.5,2.1,2.5,3.7,2,2.1,2.4.5,1.6-1.5-2.8-1.9-1.9-2.2-3.2-3.7-3.2-3.6Z" transform="translate(-1.5 -1.5)"/>
    <path id="EE" class="cls-1" d="M895.2,123.1l-5.5.9-5.4,1.6.9,3.4,3.3,2.1,1.5-.8.1,3.5,3.7-1,2.1.7,4.4,2.2h3.8l1.6-1.9-2.5-5.5,2.6-3.4-.9-1h0l-4.6.2Z" transform="translate(-1.5 -1.5)"/>
    <path id="ET" class="cls-1" d="M989.6,402.6l-1.5,4.7-6.5-1.3-.7,5.5-2.1,6.2-3.2,3.2-2.3,4.8-.5,2.6-2.6,1.8-1.4,6.7v.7l.2,5-.8,2-3,.1-1.8,3.6,3.4.5,2.9,3.1,1,2.5,2.6,1.5,3.5,6.9,2.9,1.1v3.6l2,2.1h3.9l7.2,5.4h1.8l1.3-.1,1.2.7,3.8.5,1.6-2.7,5.1-2.6,2.3,2.1h3.8l1.5-2,3.6-.1,4.9-4.5,7.4-.3,15.4-19.1-4.8.1-18.5-7.6-2.2-2.2-2.1-3.1-2.2-3.5,1.1-2.3-1.3-1.1-1.3.5-3.1-.1-.2-2-.5-1.7,1.8-3,1.9-2.8-2-2.1-2.5-3.7-2.5-2.1-1.6-2.2-4.9-2.5-3.9-.1-1.4-1.3-3.2,1.5-3.5-2.9Z" transform="translate(-1.5 -1.5)"/>
    <path id="FI" class="cls-1" d="M895.4,70l.8-3.8-5.7-2.1-5.8,1.8-1.1,3.9-3.4,2.4-4.7-1.3-5.3.3-5.1-2.9L863,69.7l5.9,2.7,7.2,3.7,1.7,8.4,1.9,2.2,6.4,2.6.9,2.3-2.6,1.2-8.7,6.1-3.3,3.6-1.5,3.3,2.9,5.2-.1,5.7,4.7,1.9,3.1,3.1,7.1-1.2,7.5-2.1,8-.5h0l7.9-7.4,3.3-3.3.9-2.9-7.3-3.9.9-3.7-4.9-4.1,1.7-4.8-6.4-6.3,2.8-4.1-7.2-3.7-.4-3.7Z" transform="translate(-1.5 -1.5)"/>
    <path id="FJ" class="cls-1" d="M1778.7,600l-3.7,2-1.9.3-3.1,1.3.2,2.4,3.9-1.3,3.9-1.6.7-3.1Zm-11,8.1-1.6,1-2.3-.8-2.7,2.2-.2,2.8,2.9.8,3.6-.9,1.8-3.3-1.5-1.8Z" transform="translate(-1.5 -1.5)"/>
    <path id="GA" class="cls-1" d="M852.2,483.3l-.7-.3-3.4.8-3.4-.8-2.6.4V491h-8.2l-1.9.3-1.1,4.8-1.3,4.6-1.3,2-.2,2.1,3.4,6.6,3.7,5.3,5.8,6.4,4.3-3.5-2.1-4.2,1.9-1.6,3.8-.8.5-2.8,3,3,4.9.3,1.7-3,.8-4.3-.6-4.9-2.7-3.8,2.4-7.4-1.4-1.2-4.2.5-1.5-3.3.4-2.8Z" transform="translate(-1.5 -1.5)"/>
    <path id="GB" class="cls-1" d="M752,153.1l-4.9-3.7-3.9.3.8,3.2-1.1,3.2,2.9-.1,3.5,1.3Zm13-24.3-5.5.5-3.6-.4-3.7,4.8-1.9,6.1,2.2,3,.1,5.8,2.6-2.8,1.4,1.6-1.7,2.7,1,1.6,5.7,1.1h.1l3.1,3.8-.8,3.5h0l-7.1-.6-1,4,2.6,3.3-5.1,1.9,1.3,2.4,7.5,1h0l-4.3,1.3-7.3,6.5,2.5,1.2,3.5-2.3,4.5.7,3.3-2.9,2.2,1.2,8.3-1.7,6.5.1,4.3-3.3-1.9-3.1,2.4-1.8.5-3.9-5.8-1.2-1.3-2.3-2.9-6.9-3.2-1-4.1-7.1-.4-.6-4.8-.4,4.2-5.3,1.3-4.9h-5l-4.7.8,5-6.4Z" transform="translate(-1.5 -1.5)"/>
    <path id="GE" class="cls-1" d="M1002,225.8l-7.5-2.9-7.7-1-4.5-1.1-.5.7,2.2,1.9,3,.7,3.4,2.3,2.1,4.2-.3,2.7,5.4-.3,5.6,3,6.9-1,1.1-1,4.2,1.8,2.8.4.6-.7-3.2-3.4,1.1-.9-3.5-1.4-2.1-2.5L1006,226l-2.9,1-1.1-1.2Z" transform="translate(-1.5 -1.5)"/>
    <path id="GH" class="cls-1" d="M778.8,427.7l-2.6-.5-1.8,1-2.4-.5-9.7.3-.2,3.6.8,4.8,1.4,9.1-2.3,5.3-1.5,7.2,2.4,5.5-.2,2.5,5,1.8,5-1.9,3.2-2.1,8.7-3.8-1.2-2.2-1.5-4-.4-3.2,1.2-5.7-1.4-2.3-.6-5.1.1-4.6-2.4-3.3.4-1.9Z" transform="translate(-1.5 -1.5)"/>
    <path id="GN" class="cls-1" d="M714.4,418.6l-.8.4-3-.5-.4.7-1.3.1-4-1.5-2.7-.1-.1,2.1-.6.7.4,2.1-.8.9h-1.3l-1.4,1-1.7-.1-2.6,3.1,1.6,1.1.8,1.4.7,2.8,1.3,1.2,1.5.9,2.1,2.5,2.4,3.7,3-2.8.7-1.7,1-1.4,1.5-.2,1.3-1.2h4.5l1.5,2.3,1.2,2.7-.2,1.8.9,1.7v2.3l1.5-.3,1.2-.2,1.5-.7,2.3,3.9-.4,2.6,1.1,1.3,1.6.1,1.1-2.6,1.6.2h.9l.3-2.8-.4-1.2.6-.9,2-.8-1.3-5.1-1.3-2.6.5-2.2,1.1-.5-1.7-1.8.3-1.9-.7-.7-1.2.6.2-2.1,1.2-1.6-2.3-2.7-.6-1.7-1.3-1.4-1.1-.2-1.3.9-1.8.8-1.6,1.4-2.4-.5-1.5-1.6-.9-.2-1.5.8h-.9l-.3-2.3Z" transform="translate(-1.5 -1.5)"/>
    <path id="GM" class="cls-1" d="M684.8,414.1l5,.1,1.4-.9h1l2.1-1.5,2.4,1.4,2.4.1,2.4-1.5-1.1-1.8-1.8,1.1-1.8-.1-2.1-1.5-1.8.1-1.3,1.5-6.1.2-.7,2.8Z" transform="translate(-1.5 -1.5)"/>
    <path id="GW" class="cls-1" d="M702.2,417.7l-10.3-.3-1.5.7-1.8-.2-3,1.1.3,1.3,1.7,1.4v.9l1.2,1.8,2.4.5,2.9,2.6,2.6-3.1,1.7.1,1.4-1h1.3l.8-.9-.4-2.1.6-.7.1-2.1Z" transform="translate(-1.5 -1.5)"/>
    <path id="GQ" class="cls-1" d="M842.1,483.4l-9.2-.2-1.9,7.2,1,.9,1.9-.3h8.2v-7.6Z" transform="translate(-1.5 -1.5)"/>
    <path id="GR" class="cls-1" d="M903.9,270.5l-.8,2.8,6.6,1.2v1.1l7.6-.6.5-1.9-2.8.8v-1.1l-3.9-.5-4.1.4-3.1-2.2Zm11.5-37.4-2.7-1.6.3,3-4.6.6-3.9-2.1-3.9,1.7-3.8-.2-1,.2-.7,1.1-2.8-.1-1.9,1.3-3.3.6v1.6l-1.6.9-.1,2.1-2.1,3,.5,1.9,2.9,3.6,2.3,3,1.3,4.3,2.3,5.1,4.6,2.9,3.4-.1-2.4-5.7,3.3-.7-1.9-3.3,5,1.7-.4-3.7-2.7-1.8-3.2-3,1.8-1.4-2.8-3-1.6-3.8.9-1.3,3,3.2h2.9l2.5-1-3.9-3.6,6.1-1.6,2.7.6,3.2.2,1.1-.7,1.2-3.9Z" transform="translate(-1.5 -1.5)"/>
    <path id="GL" class="cls-1" d="M689.4,1.9l-26-.4-11.8.3-5,1.3L635.1,3,622.4,5.1l-1.6,1.7,6.7,2.1-6.2-1.3-4.5-.3-7-1.4L599.2,8l-2.7-1.2H586.1l-10.9.6-8.9,1-.2,1.8-5.3.5-14.6,2.9-4.6,1.7,8.1,1.5-2.8,1.6L532,20.6l-15.5,2.2-2.2,1.7,6.4,2,14.5,1.2-7.5.2-10.9,1.5,3.8,3.1,3,1.5,9.4-.3,10.1-.2,7.6.3,8,2.9-1.4,2.1,3.6,1.9,1.4,5.3,1,3.6,1.4,1.9-7,4.8,2.6,1.3,4.4-.8,2.6,1.8,5.3,3.4-7.5-1.4h-3.8l-3,2.8L556.8,67l4.2,1.8,4-.8,2.6-.8,5.5-1.9-2.8,4.2-2.6,2.3-7.1,2-7,6.3,2,2-3.4,4,3.7,5.2-1.5,5,.7,3.7,4.8,7.1.8,5.6,3.1,3.2h8.9l5,4.7,6.5-.3,4.1-5.7,3.5-4.8-.3-4.4,8.6-4.6,3.3-3.7,1.4-3.9,4.7-3.5,6.5-1.3,6.1-1.4,3-.2,10.2-3.9,7.4-5.7,4.8-2.1,4.6-.1,12.5-1.8,12.1-4.3,11.9-4.6-5.5-.3-10.6-.2,5.3-2.8-.5-3.6,4.2,3,2.7,2.1,7.3-1-.6-4.3-4.5-3.1-5-1.3,2.4-1.4,7.2,2.1.5-2.3-4.1-3.4h5.4l5.6-.8,1.7-1.8-4-2.1,8.6-.3-4-4.3,4.1-.5.1-4.2-6.2-2.5,6.4-1.6,5.8-.1-3.6-3.2,1.1-5.1,3.6-2.9,4.9-3.2-8-.2,11.3-.7,2.2-1L737,10.4l-1.6-1.7-10-.8L708.5,9.4l-9.2,1.5,4.5-2.3-2.3-1.4-7,1.2L684.8,7l-12.1.5-1.4-.7,18.3-.4,12.9-.2,6.6-1.4L689.4,1.9Z" transform="translate(-1.5 -1.5)"/>
    <path id="GT" class="cls-1" d="M284.8,384.5l-5.1-.1h-5.2l-.4,3.6h-2.6l1.8,2.1,1.9,1.5.5,1.4.8.4-.4,2.1H269l-3.3,5.2.7,1.2-.8,1.5-.4,1.9,2.7,2.6,2.5,1.3,3.4.1,2.8,1.1.2-1,2.1-1.6,1.1-.7-.2-.7,1.4-.4,1.3-1.6-.3-1.3.5-1.2,2.8-1.8,2.8-2.4-1.5-.8-.6.9-1.7-1.1h-1.6l1.2-7.2.7-5Z" transform="translate(-1.5 -1.5)"/>
    <path id="GY" class="cls-1" d="M458.1,459.8l-2.1-2.3-2.9-3.1-2.1-.1-.1-3.3-3.3-4.1-3.6-2.4-4.6,3.8-.6,2.3,1.9,2.3-1.5,1.2-3.4,1.1v2.9l-1.6,1.8,3.7,4.8,2.9-.3,1.3,1.5-.8,2.8,1.9.9,1.2,3-1.6,2.2-1,5.4,1.4,3.3.3,2.9,3.5,3,2.7.3.7-1.3,1.7-.2,2.6-1.1,1.8-1.7,3.1.5,1.4-.2-3.3-5.6-.7-3.5-1.8-.1-2.4-4.6,1.1-3.3-.3-1.5,3.5-1.6,1-5.7Z" transform="translate(-1.5 -1.5)"/>
    <path id="HN" class="cls-1" d="M316.1,402.4l-1.3-1.8-1.9-1-1.5-1.4-1.6-1.2-.8-.1-2.5-.9-1.1.5-1.5.2-1.3-.4-1.7-.4-.8.7-1.8.7-2.6.2-2.5-.6-.9.4-.5-.6-1.6.1-1.3,1.1-.6-.2-2.8,2.4-2.8,1.8-.5,1.2.3,1.3-1.3,1.6,1.5.5,1.1,1.3,1.6,1,.1.9,2.5-.8,1.1.5.7.7-.6,2.5,1.7.6.7,2,1.8-.3.8-1.5h.8l.2-3.1,1.3-.2h1.2l1.4-1.7,1.5,1.3.6-.8,1.1-.7,2.1-1.8.3-1.3.5.1.8-1.5.6-.2.9.9,1.1.3,1.3-.8h1.4l2-.8.9-.9,1.9.2Z" transform="translate(-1.5 -1.5)"/>
    <path id="HR" class="cls-1" d="M867,206l-4-2.6-1.6-.8-3.9,1.7-.3,2.5-1.7.6.2,1.7-2-.1-1.8-1-.8,1-3.5-.2-.2.1v2.2l1.7,2,1.3-2.6,3.3,1,.3,2,2.5,2.6-1,.5,4.6,4.5,4.8,1.8,3.1,2.2,5,2.3h0l.5-1-4.7-2.4-2.2-2.5-2-1.4-2.5-2.3-1.3-1.9-2.7-2.9.9-2.5,1.9,1.4,1-1.3,2.3-.1,4.4,1,3.5-.1,2.4,1.4h0l1.7-2.3-1.7-1.8-1.5-2.4h0l-1.8.9L867,206Z" transform="translate(-1.5 -1.5)"/>
    <path id="HT" class="cls-1" d="M382.6,372.3l-4.6-1-3.4-.2-1.4,1.7,3.4,1-.3,2.4,2.2,2.8-2.1,1.4-4.2-.5-5-.9-.7,2.1,2.8,1.9,2.7-1.1,3.3.4,2.7-.4,3.6,1.1.2-1.8-1.2-1.9,1.5-1.1.7-2.4Z" transform="translate(-1.5 -1.5)"/>
    <path id="HU" class="cls-1" d="M881.1,189.4l-1.6.4-1,1.5-2.2.7-.6-.4-2.3,1-1.9.2-.3,1.2-4.1.8-1.9-.7-2.6-1.6-.2,2.6h-2.8l1.1,1.3-1.3,4,.8.1,1.2,2.1,1.6.8,4,2.6,4.2,1.2,1.8-.9h0l3.7-1.6,3.2.2,3.8-1.1,2.6-4.3,1.9-4.2,2.9-1.3-.6-1.6-2.9-1.7-1,.6-5.5-1.9Z" transform="translate(-1.5 -1.5)"/>
    <path id="ID" class="cls-1" d="M1453.9,562.9l.5-1.7-1.8-1.9-2.8-2-5.3,1.3,7,4.4,2.4-.1Zm20.9-.6,4-4.8.1-1.9-.5-1.3-5.7,2.6-2.8,3.9-.7,2.1.6.8,5-1.4Zm-35.6-13-1.6,2.2-3.1.1-2.2,3.6,3,.1,3.9-.9,6.6-1.2-1.2-2.8-3.5.6-1.9-1.7Zm28.1,0-5.2,2.3-3.8.5-3.4-1.9-4.5,1.3-.2,2.3,7.4.8,8.6-1.8,1.1-3.5Zm-79.5-8.4-.7-2.3-2.3-.5-4.4-2.4-6.8-.4-4.1,6.1,5.1.4.8,2.8,10,2.6,2.4-.8,4.1.6,6.3,2.4,5.2,1.2,5.8.5,5.1-.2,5.9,2.5,6.6-2.4-6.6-3.8-8.3-1.1-1.8-4.1-10.3-3.1-1.3,2.6-10.7-.6Zm146.6-3.6.2-3-1.2-1.9-1.3,2.2-1.2,2.2.3,4.8Zm-41-17.5-1.4-2.1-5.7.3,1,2.7,3.9,1.2,2.2-2.1Zm18.1-2.4-6.1-1.8-6.9.3-1.5,3.5,3.9.2,3.2-.4,4.6.5,4.7,2.6-1.9-4.9Zm21-12.3-.8-2.4-9-2.6-2.9,2.1-7.6,1.5,2.3,3.2,5,1.2,2.1,3.7,8.3.1.4,1.6-4-.1-6.2,2.3,4.2,3.1-.1,2.8,1.2,2.3,2.1-.5,1.8-3.1,8.2,5.9,4.6.5,10.6,5.4,2.3,5.3,1,6.9-3.7,1.8-2.8,5.2,7.1-.2,1.6-1.8,5.5,1.3,4.6,5.2,1.5-20.8,1-20.7-6-1.2-4.1-2.3-4.7-2.2h-5l-6.6,3.8-4.9,6.8-5.7-3.8Zm-50-16.4-1-1.4-5.5,4.6-6.5.3-7.1-.9-4.4-1.9-4.7,4.8-1.2,2.6-2.9,9.6-.9,5-2.4,4.2,1.6,4.3,2.3.1.6,6.1-1.9,5.9,2.3,1.9,3.6-1,.3-9.1-.2-7.4,3.8-1.9-.7,6.2,3.9,3.7-.8,2.5,1.3,1.7,5.6-2.4-3,5.2,2.1,2.2,3.1-1.9.3-4.1-4.7-7.4,1.1-2.2-5.1-8.1,5-2.5,2.6-3.7,2.4.9.5-2.9-10.5,2.1-3.1,2.9-5-5.6.9-4.8,4.9-1,9.3-.3,5.4,1.3,4.3-1.3,4.4-6.3Zm19.4,1.9-.6-2.6-3.3-.6-.5-3.5-1.8,2.3-1,5.1,1.7,8.2,2.2,4,1.6-.8-2.3-3.3.9-3.9,2.9.6.2-5.5Zm-60.9-4.5.9-2.9-4.3-6,3-5.8-5-1h-6.4l-1.7,7.2-2,2.2-2.7,8.9-4.5,1.3-5.4-1.8-2.7.6L1407,492l-3.6-.4-3.6,1.2-3.9-3.5-1-4.3-3.3,4.2-.6,5.9.8,5.6,2.6,5.4,2.8,1.8.7,8.5,4.6.8,3.6-.4,2,3.1,6.7-2.3,2.8,2,4,.4,2,3.9,6.5-2.9.8,2.3,2.5-9.7.3-6.4,5.5-4.3-.2-5.8,1.8-4.3,6.7-.8-6.5-5.9ZM1372.3,535l.7-9.8,1.7-8-2.6-4-4.1-.5-1.9-3.6-.9-4.4-2-.2-3.2-2.2,2.3-5.2-4.3-2.9-3.3-5.3-4.8-4.4-5.7-.1-5.5-6.8-3.2-2.7-4.5-4.3-5.2-6.2-8.8-1.2-3.6-.3.6,3.2,6.1,7,4.4,3.6,3.1,5.5,5.1,4,2.2,4.9,1.7,5.5,4.9,5.3,4.1,8.9,2.7,4.8,4.1,5.2,2.2,3.8,7,5.2,4.5,5.3,6.2-.1Z" transform="translate(-1.5 -1.5)"/>
    <path id="IN" class="cls-1" d="M1216.1,305.7l-8.5-4.4-6.2-4-3.2-7,4.1.9-.6-3.3-3-3.3-.8-5.2-7.6-7.5-3.7,5.4-5.7,1-8.5-1.6-1.9,2.8,3.2,5.6,2.9,4.3,5,3.1-3.7,3.7,1,4.5L1175,307l-2.1,6.5-4.5,6.7-6.4-.5-4.9,6.6,4,2.9,1.3,4.9,3.5,3.2,1.8,5.5h-12l-3.2,4.2,7.1,5.4,1.9,2.5-2.4,2.3,8,7.7,4,.8,7.6-3.8,1.7,5.9.8,7.8,2.5,8.1,3.6,12.3,5.8,8.8,1.3,3.9,2,8,3.4,6.1,2.2,3,2.5,6.4,3.1,8.9,5.5,6,2.2-1.8,1.7-4.4,5-1.8-1.8-2.1,2.2-4.8,2.9-.3-.7-10.8,1.9-6.1-.7-5.3-1.9-8.2,1.2-4.9,2.5-.3,4.8-2.3,2.6-1.6-.3-2.9,5-4.2,3.7-4,5.3-7.5,7.4-4.2,2.4-3.8-.9-4.8,6.6-1.3,3.7.1.5-2.4-1.6-5.2-2.6-4.8.4-3.8-3.7-1.7.8-2.3,3.1-2.4-4.6-3.4,1.2-4.3,4.8,2.7,2.7.4,1.2,4.4,5.4.9,5-.1,3.4,1.1-1.6,5.3-2.4.4-1.1,3.6,3.5,3.3.2-4,1.5-.1,4.5,10.1,2.4-1.5-.9-2.7.9-2.1-.9-6.6,4.6,1.4,1.5-5.2-.3-3.1,2.1-5.4-.9-3.6,6.1-4.4,4.1,1.1-1.3-3.9,1.6-1.2-.9-2.4-6.1-.9,1.2-2.7-3.5-3.9L1295,313l-4.9-1.5-5.3,4-3.9,4.8-4.2.8,2.7,2,.4,3.9-4.4.2-4.7-.4-3.2,1-5.5-2.5-.3-1.2-1.5-5.1-3,1.4.1,2.7,1.5,4.1-.1,2.5-4.6.1-6.8-1.5-4.3-.6-3.8-3.2-7.6-.9-7.7-3.5-5.8-3.1-5.7-2.5.9-5.9,2.8-2.9Z" transform="translate(-1.5 -1.5)"/>
    <path id="IE" class="cls-1" d="M749.3,157.3l-3.5-1.3-2.9.1,1.1-3.2-.8-3.2-3.7,2.8-6.7,4.7,2.1,6.1-4.2,6.4,6.7.9,8.7-3.6,3.9-5.4-.7-4.3Z" transform="translate(-1.5 -1.5)"/>
    <path id="IR" class="cls-1" d="M1015.5,250l-3.2-2.9-1.2-2.4-3.3,1.8,2.9,7.3-.7,2,3.7,5.2h0l4.7,7.8,3.7,1.9,1,3.8-2.3,2.2-.5,5,4.6,6.1,7,3.4,3.5,4.9-.2,4.6h1.7l.5,3.3,3.4,3.4,1.7-2.5,3.7,2.1,2.8-1,5.1,8.4,4.3,6.1,5.5,1.8,6.1,4.9,6.9,2.1,5.1-3.1,4-1.1,2.8,1.1,3.2,7.8,6.3.8,6.1,1.5,10.5,1.9,1.2-7.4,7.4-3.3-.9-2.9-2.7-1-1-5.7-5.6-2.7-2.8-3.9-3.2-3.3,3.9-5.8-1.1-4-4.3-1.1-1.1-4L1102,288l1.6-3.5-2.5-.9.5-4.7.5-8-1.6-5.5-3.9-.2-7.3-5.7-4.3-.7-6.5-3.3-3.8-.6-2.1,1.2-3.5-.2-3,3.7-4.4,1.2-.2,1.6-7.9,1.7L1046,263l-4.3-3.3-5.2-1.3-2.5-4.8-1.3.3-3.8-3.4,1.2-3.1-1.9-1.9-1.9.5-5.3,4.7-1.8.2-3.7-.9Z" transform="translate(-1.5 -1.5)"/>
    <path id="IQ" class="cls-1" d="M1009.3,260.5l-6.2-.9-2.1,1-2.1,4.1-2.7,1.6,1.2,4.7-.9,7.8-11,6.7,3.1,7.7,6.7,1.7,8.5,4.5,16.7,12.7,10.2.5,3.2-6.1,3.7.5,3.2.4-3.4-3.4-.5-3.3h-1.7l.2-4.6-3.5-4.9-7-3.4-4.6-6.1.5-5,2.3-2.2-1-3.8-3.7-1.9-4.7-7.8h0l-2.3,1.1-2.1-1.6Z" transform="translate(-1.5 -1.5)"/>
    <path id="IS" class="cls-1" d="M717.7,84.2l-6.9-.4-7.3,2.9-5.1-1.5-6.9,3-5.9-3.8-6.5.8-3.6,3.7,8.7,1.3-.1,1.6-7.8,1.1,8.8,2.7-4.6,2.5,11.7,1.8,5.6.8,3.9-1,12.9-3.9,6.1-4.2-4.4-3.8,1.4-3.6Z" transform="translate(-1.5 -1.5)"/>
    <path id="IL" class="cls-1" d="M969.8,286.1l-1.4.1-.4,1.1h-1.8l-.1.1-.6,1.6-.6,4.8-1.1,2.9.4.4-1.4,2.1h0l3.9,9.2.7,1.7,1.7-10.2-.4-2.4-2.4.8.1-1.7,1.2-.8-1.4-.7.7-4.3,2,.9.7-2h-.1l.6-1-.3-2.6Z" transform="translate(-1.5 -1.5)"/>
    <path id="IT" class="cls-1" d="M859.8,254.2l-4,.5-5.2.7-6.2-.6-.6,3.4,7.5,3.3,2.7.7,4.2,2.4.9-3.3-.9-2Zm-33.7-18.9-2.5,1.9-2.8-.3,1.3,3.6.4,7.6,2.1,1.7,2-2.1,2.4.4.4-8.4-3.3-4.4ZM840.4,201l-1.3-2.2-4.8,1.1-.5,1.2-3.1-.9-.3,2.5-2.1,1.1-3.8-.8-.9,2.5-2.4.2-.9-1-2.7,2.1-2.4.3-2.2-1.3-.2,1.7,1.6,2.4-1.7,1.8,1.5,4.8,2.7.8-.5,2.7,2.1-.5,2.8-2.8,2.3-.9,4.2,2.1,2.6.7,1.9,6,3.6,3.6,4.9,4L845,235l3.9.4,2.3,2.5,3.4,1.2,1.7,2.7,2.2.8,1.8,3.2,2.3,3.7-1.1,1.3-.8,3.5.1,2,2.1-.5,2.5-5.6,2.1-.4.4-3.3-3.9-2.3,1.9-4.1,4.5,1,3.1,3,.8-2.3-.6-1.2-4.7-3.2-3.9-1.9-4.8-2.3,1.4-1.2-1.4-1.4-4,.1-6-5-2.9-5.1-4.9-3.1-1.9-3.1.5-1.8-.4-3,3.9-2.2,4.1.9-1.4-2.7.3-3-7.2-1.6Z" transform="translate(-1.5 -1.5)"/>
    <path id="JM" class="cls-1" d="M352.7,384.1l3.9-.1-.8-1.8-2.7-1.5-3.7-.6-1.2-.2-2.4.4-.8,1.5,2.9,2.3,3,1,1.8-1Z" transform="translate(-1.5 -1.5)"/>
    <path id="JO" class="cls-1" d="M988.6,293.2l-3.1-7.7-9.6,6.7-6.3-2.5-.7,2,.4,3.9-.6,1.9.4,2.4-1.7,10.2.3.9,6.1,1,2.1-2,1.1-2.3,4-.8.7-2.2,1.7-1-6.1-6.4,10.4-3.1.9-1Z" transform="translate(-1.5 -1.5)"/>
    <path id="JP" class="cls-1" d="M1494.5,280.5l-4.5-1.3-1.1,2.7-3.3-.8-1.3,3.8,1.2,3,4.2,1.8-.1-3.7,2.1-1.5,3.1,2.1,1.3-3.9-1.6-2.2Zm24.4-19.3-3.6-6.7,1.3-6.4-2.8-5.2-8.1-8.7-4.8,1.2.2,3.9,5.1,7.1,1,7.9-1.7,2.5-4.5,6.5-5-3.1v11.5l-6.3-1.3-9.6,1.9-1.9,4.4-3.9,3.3-1.1,4-4.3,2,4,4.3,4.1,1.9.9,5.7,3.5,2.5,2.5-2.7-.8-10.8-7.3-4.7,6.1-.1,5-3,8.6-1.4,2.4,4.8,4.6,2.4,4.4-7.3,9.1-.4,5.4-3,.6-4.6-2.5-3.2-.6-5.2ZM1507.1,217l-5.3-2.1-10.4-6.4,1.9,4.8,4.3,8.5-5.2.4.6,4.7,4.6,6.1h5.7l-1.6-6.8,10.8,4.2.4-6.1,6.4-1.7-6-6.9-1.7,2.6-4.5-1.3Z" transform="translate(-1.5 -1.5)"/>
    <path id="KZ" class="cls-1" d="M1110.8,149.4l-9-1.3-3.1,2.5-10.8,2.2-1.7,1.5-16.8,2.1-1.4,2.1,5,4.1-3.9,1.6,1.5,1.7-3.6,2.9,9.4,4.2-.2,3-6.9-.3-.8,1.8-7.3-3.2-7.6.2-4.3,2.5-6.6-2.4-11.9-4.3-7.5.2-8.1,6.6.7,4.6-6-3.6-2.1,6.8,1.7,1.2-1.7,4.7,5.3,4.3,3.6-.2,4.2,4.1.2,3.2,2.8,1,4.4-1.3,5-2.7,4.7,1.5,4.9-.3,1.9,3.9.6,6-4.6-.9-4,1,.9,4.5-5-.6.6,2,3.2,1.6,3.7,5.5,6.4,2.1,1.5,2.1-.7,2.6.7,1.5,1.8-2,5.5-1.3,3.8,1.7,4.9,4.9,2.5-.3-6.2-22.8,11.9-3.6,1.1.5,9.1,4.5,4.8,2.3,6.5,5.5,5.7-.9,8.6-.5,7.5,4.5,1.5,6.2,2.5.1,2.6,5,6.6.2,2.3,3h1.9l.9-4.5,5.4-4.3,2.5-1.2.3-2.7,3.1-.8,9.1,2.1-.5-3.6,2.5-1.3,8.1,2.6,1.6-.7,8.6.2,7.8.6,3.3,2.2,3.5.9-1.7-3.5,2.9-1.6-8.7-10.7,9-2.4,2-1.4-1-11.1,10.7,2,1.6-2.8-2.5-6.2,3.8-.6,1.8-4.2-4.3-3.8-6,.9-3.3-2.6-3.9-1.2-4.1-3.6-3.2-1.1-6.2,1.6-8.3-3.6-1.1,3.3-18.1-15.5-8.3-4.7.8-1.9-9.1,5.7-4.4.4-1.2-3.3-7-2.1-4.3,1.5-4.3-6.3Z" transform="translate(-1.5 -1.5)"/>
    <path id="KE" class="cls-1" d="M1013.7,472.8h-3.8l-2.3-2.1-5.1,2.6-1.6,2.7-3.8-.5-1.2-.7-1.3.1h-1.8l-7.2-5.4h-3.9l-2-2.1v-3.6l-2.9-1.1-3.8,4.2-3.4,3.8,2.7,4.4.7,3.2,2.6,7.3-2.1,4.7-2.7,4.2-1.6,2.6v.3l1.4,2.4-.4,4.7,20.2,13,.4,3.7,8,6.3,2.2-2.1,1.2-4.2,1.8-2.6.9-4.5,2.1-.4,1.4-2.7,4-2.5-3.3-5.3-.2-23.2,4.8-7.2Z" transform="translate(-1.5 -1.5)"/>
    <path id="KG" class="cls-1" d="M1189.2,228.2l-3.5-.9-3.3-2.2-7.8-.6-8.6-.2-1.6.7-8.1-2.6-2.5,1.3.5,3.6-9.1-2.1-3.1.8-.3,2.7,1.8.6-3.1,4.1,4.6,2.3,3.2-1.6,7.1,3.3-5.2,4.5-4.1-.6-1.4,2-5.9-1.1.6,3.7,5.4-.5,7.1,2,9.5-.9,1-1.5-1.1-1.5,4-3,3.2-1.2,5.7.9.6-4,6.4-.8,1-2.4,6.8-3.4.2-1.4Z" transform="translate(-1.5 -1.5)"/>
    <path id="KH" class="cls-1" d="M1376.8,407.4l-5.2-2.3-2,4.3-4.9-2.4-5.3-1-7.1,1.3-3,5.2,2.1,7.7,3.4,6.6,2.6,3.3,4.7.9,4.7-2.5,5.8-.5-2.8-3.8,8.9-4.9-.1-7.7-1.8-4.2Z" transform="translate(-1.5 -1.5)"/>
    <path id="KR" class="cls-1" d="M1439.3,257.3l6.2,5.5-3.4,1.1,5.2,6.8,1.1,4.8,2.1,3.5,4.5-.5,3.2-2.7,4.2-1.2.5-3.6-3.4-7.5-3.3-4.2-8.2-7.6.1,1.6-2.1.4-3.5.3-.7,2.9-2.4-.2-.1.6Z" transform="translate(-1.5 -1.5)"/>
    <path id="KW" class="cls-1" d="M1037.6,307l-3.7-.5-3.2,6.1,4.9.6,1.7,3.1,3.8-.2-2.4-4.8.3-1.5-1.4-2.8Z" transform="translate(-1.5 -1.5)"/>
    <path id="LA" class="cls-1" d="M1376.8,407.4l.2-6.4-2-4.5-4.8-4.4-4.3-5.6-5.7-7.5-7.3-3.8,1.3-2.3,3.3-1.7-3-5.5-6.8-.1-3.4-5.7-4-5.1-2.7,1,1.9,7.2-2.9-.1-.7-1.5-4.1,4.1-.8,2.4,2.6,1.9.9,3.8,3.8.3-.4,6.7,1,5.7,5.3-3.8,1.8,1.2,3.2-.2.8-2.2,4.3.4,4.9,5.2,1.3,6.3,5.2,5.5.5,5.4-1.5,2.9,4.9,2.4,2-4.3,5.2,2.3Z" transform="translate(-1.5 -1.5)"/>
    <path id="LB" class="cls-1" d="M969.8,286.1l.9-3.5,2.6-2.4-1.2-2.5-2.4-.3-.1.2-2.1,4.5-1.3,5.2H968l.4-1.1,1.4-.1Z" transform="translate(-1.5 -1.5)"/>
    <path id="LR" class="cls-1" d="M731.4,448.9l-1.6-.2-1.1,2.6-1.6-.1-1.1-1.3.4-2.6-2.3-3.9-1.5.7-1.2.2-2.6,3-2.6,3.4-.3,1.9-1.3,2,3.7,4.1,4.8,3.5,5.1,4.8,5.7,3.1,1.5-.1.5-5.2.5-.8-.2-2.5-2.3-2.7-1.8-.4-1.6-1.8,1.2-2.8-.6-3.1.3-1.8Z" transform="translate(-1.5 -1.5)"/>
    <path id="LY" class="cls-1" d="M913.8,297l-1.5-2.1-5.4-.8-1.8-1.1h-2l-2-2.8-7.3-1.3-3.6.8-3.7,3-1.5,3.1,1.5,4.8-2.4,3-2.5,1.6-5.9-3.1-7.7-2.7-4.9-1.2-2.8-5.7-7.2-2.8-4.5-1.1-2.2.6L840,287l-.1,4.9-2.6,1.8-1.5,2-3.7,2.5.7,2.6-.4,2.7-2.6,1.4,1.9,5.6.4,3-.9,5.2.5,2.9-.6,3.5.5,4-2.1,2.6,3.4,4.7.2,2.7,2,3.6,2.6-1.2,4.3,2.9,2.5,4,8.8,2.8,3.1,3.5,3.9-2.4,5.4-3.5L888,361l22.4,12.2v-2.7h6.3l-.5-12.7-1-23.4-1.3-22.7-2-5.1,1.2-3.9L912,300l1.8-3Z" transform="translate(-1.5 -1.5)"/>
    <path id="LK" class="cls-1" d="M1234.2,458.3l2.3-1.8.6-6.6-3-6.6-2.9-4.5-4.1-3.5-1.9,10.3,1.4,9.1,2.8,5.1,4.8-1.5Z" transform="translate(-1.5 -1.5)"/>
    <path id="LS" class="cls-1" d="M930.1,692.1l1.1-2,3.1-1,1.1-2.1,1.9-3.1-1.7-1.9-2.3-2-2.6,1.3-3.1,2.5-3.2,4,3.7,4.9,2-.6Z" transform="translate(-1.5 -1.5)"/>
    <path id="LT" class="cls-1" d="M902.4,146.8l-5-2.9-2.5-.4-.9-1.3-4.4.6-7.9-.4-5,1.9,1.7,5,5,1.1,2.2.9-.2,1.7.6,1.5,2.5.6,1.4,1.9h4.6l4.8-2.2.5-3.4,3.5-2-.9-2.6Z" transform="translate(-1.5 -1.5)"/>
    <path id="LU" class="cls-1" d="M809,184.2l.2-2.7-1-1.4-1.3.2-.4,3.5,1.1.5Z" transform="translate(-1.5 -1.5)"/>
    <path id="LV" class="cls-1" d="M904.1,135.7h-3.8l-4.4-2.2-2.1-.7-3.7,1-.2,4.6-3.6.1-4.4-4.5-4,2.1-1.7,3.7.5,4.5,5-1.9,7.9.4,4.4-.6.9,1.3,2.5.4,5,2.9,2.6-1,4.6-2.3-2.1-3.6-1-2.8-2.4-1.4Z" transform="translate(-1.5 -1.5)"/>
    <path id="MA" class="cls-1" d="M767.2,274l-2.3-.1-5.5-1.4-5,.4-3.1-2.7h-3.9l-1.8,3.9-3.7,6.7-4,2.6-5.4,2.9-3.5,4.3-.9,3.4-2.1,5.4,1.1,7.9-4.7,5.3-2.7,1.7-4.4,4.4-5.1.7-2.8,2.4-.1.1-3.6,6.5-3.7,2.3-2.1,4-.2,3.3-1.6,3.8-1.9,1-3.1,4-2,4.5.3,2.2-1.9,3.3-2.2,1.7-.3,3h.1l12.4-.5.7-2.3,2.3-2.9,2-8.8,7.8-6.8,2.8-8.1,1.7-.4,1.9-5,4.6-.7,1.9.9h2.5l1.8-1.5,3.4-.2-.1-3.4h.8l.1-7.5,8.9-4.7,5.4-1,4.4-1.7,2.1-3.2,6.3-2.5.3-4.7,3.1-.5,2.5-2.4,7-1,1-2.5-1.4-1.4-1.8-6.7-.3-3.9-2-4.1Z" transform="translate(-1.5 -1.5)"/>
    <path id="MD" class="cls-1" d="M920.5,208.9l1.2-.7.5-2.1,1.1-2-.5-1.1,1-.5.6.9,3,.2,1.2-.5-1-.6.2-1-2-1.5-1.1-2.6-1.9-1.1v-2.1l-2.5-1.6-2-.3-3.9-1.9-3.2.6-1.1.9,1.6.6,1.8,1.9,1.9,2.6,3.4,3.7.6,2.7-.2,2.7Z" transform="translate(-1.5 -1.5)"/>
    <path id="MG" class="cls-1" d="M1057.7,584l-1.1-4.2-1.4-2.7-1.8-2.7-2,2.8-.3,3.8-3.3,4.5-2.3-.8.6,2.7-1.8,3.2-4.8,3.9-3.4,3.7h-2.4l-2.2,1.2-3.1,1.3-2.8.2-1,4.1-2.2,3.5.1,5.9.8,4,1.1,3-.8,4.1-2.9,4.8-.2,2.1-2.6,1.1-1.3,4.6.2,4.6,1.6,5-.1,5.7,1.2,3.3,4.2,2.3,3,1.7,5-2.7,4.6-1.5,3.1-7.4,2.8-8.9,4.3-12,3.3-8.8,2.7-7.4.8-5.4,1.6-1.5.7-2.7-.8-4.7,1.2-1.9,1.6,3.8,1.1-1.9.8-3.1-1.3-2.9-.5-7.7Z" transform="translate(-1.5 -1.5)"/>
    <path id="MX" class="cls-1" d="M246.4,333.4l-3.6-1.4-3.9-2-.8-3-.2-4.5-2.4-3.6-1-3.7-1.6-4.4-3.1-2.5-4.4.1-4.8,5-4-1.9-2.2-1.9-.4-3.5-.8-3.3-2.4-2.8-2.1-2-1.3-2.2h-9.3l-.8,2.6h-15L171.6,294l-7.1-3.1,1-1.3-7,.7-6.3.5.2,5.7.7,5.1.7,4.1.8,4,2.6,1.8,2.9,4.5-1,2.9-2.7,2.3-2.1-.3-.6.5,2.3,3.7,2.9,1.5,1,1.7.9-.9,3.1,2.9,2.1,2,.1,3.4-1.2,4.7,2.5,1.6,3.3,3.1,2.9,3.6.7,3.9h1l2.7-2.3.4-1.2-1.5-2.8-1.6-2.9-2.6-.2.4-3.4-.9-3-1-2.8-.5-5.9-2.6-3.2-.6-2.3-1.2-1.6v-4.1l-1,.1-.1-2.2-.7-.5-.4-1.4-2.7-4.4-1.1-2.6,1-4.8.1-3,1.8-2.6,2.4,1.7,1.9-.2,3.1,2.5-.9,2.4.4,4.9,1.5,4.7-.4,2,1.7,3.1,2.3,3.4,2.7.5.3,4.4,2.4,3.1,2.5,1.5-1.8,4,.7,1.5,4.1,2.6,1.9,4,4.5,4.9,3.8,6.4,1.3,3.2v2.5l1.4,2.9-.3,2.2-1.6,1.6.3,1.8-1.9.7.8,3.1,2.2,4,5.3,3.6,1.9,2.9,5.4,2,3,.4,1.2,1.7,4.2,3,5.9,3,4,.9,4.8,2.9,4,1.2,3.7,1.7,2.9-.7,4.8-2.4,3.1-.4,4.4,1.6,2.6,2.1,5.5,6.9.4-1.9.8-1.5-.7-1.2,3.3-5.2h7.1l.4-2.1-.8-.4-.5-1.4-1.9-1.5-1.8-2.1h2.6l.4-3.6h5.2l5.1.1.1-1,.7-.3.9.8,2.5-3.9h1l1.2-.1,1.2,1.6,2-5,1.2-2.7-.9-1.1,1.8-3.9,3.5-3.8.6-3.1-1.2-1.3-3.4.5-4.8-.2-6,1.5-4,1.7L280,366l-1.2,5.4-1.8,3.7-3.9,2.6-3.6,1.1-4.3,1.1-4.3.6-5.1,1.8-1.9-2.6-5.6-1.7-1.8-3.2-.7-3.6-3-4.7-.4-5-1.2-3.1-.5-3.4,1.1-3.1,1.8-8.6,1.8-4.5,3.1-5.6-2.1.2Z" transform="translate(-1.5 -1.5)"/>
    <path id="MK" class="cls-1" d="M896,230.4l-2.8-2-2.4.1-1.7.4-1.1.2-2.9,1-.1,1.2h-.7l-.4,2.1.9,2.6,2.3,1.6,3.3-.6,1.9-1.3,2.8.1.7-1.1,1-.2-.8-4.1Z" transform="translate(-1.5 -1.5)"/>
    <path id="ML" class="cls-1" d="M802.3,375.9l-6.1.6-.1-4-2.6-1.1-3.4-1.8-1.3-3-18.6-13.8-18.4-13.9-8.4.1,2.4,27.4,2.4,27.5,1,.8-1.3,4.4-22.3.1-.9,1.4-2.1-.4-3.2,1.3-3.8-1.8-1.8.2-1,3.7-1.9,1.2.2,3.9,1.1,3.7,2.1,1.8.4,2.4-.3,2,.3,2.3h.9l1.5-.8.9.2,1.5,1.6,2.4.5,1.6-1.4,1.8-.8,1.3-.9,1.1.2,1.3,1.4.6,1.7,2.3,2.7-1.2,1.6-.2,2.1,1.2-.6.7.7-.3,1.9,1.7,1.8.7-.6,1.6,1,4.3.1,1-1.9,1,.1,1.6-.7.9,2.7,1.3-.8,2.3-.9-.4-3.7,1.6-2.7-.2-2.2L754,418l.8-4.4,1.6-1.6,2.7.9,2.3-1.3.8-1.6,4.3-2.9,1.1-2,5.2-2.6,3-.9,1.4,1.2h3.6l3.6-.3,2-2.2,7.6-.6,4.9-1,.5-3.9,3-4.3-.1-14.6Z" transform="translate(-1.5 -1.5)"/>
    <path id="MM" class="cls-1" d="M1335.9,361.4l-.6-2.6-3.8,1.8-2.5-1.2-4.5-2.4.8-5.2-3.7-1.3-2.3-5.8-5.6,1-.7-7.5,4.1-5.3-.8-5.3-1.3-4.9-2.7-1.5-2.7-3.7-3,.4.9,2.4-1.6,1.2,1.3,3.9-4.1-1.1-6.1,4.4.9,3.6-2.1,5.4.3,3.1-1.5,5.2-4.6-1.4.9,6.6-.9,2.1.9,2.7-2.4,1.5.5,4.6-2.1-1,1.1,5.1,4.6,5.2,3.4.9-.4,2.2,5.4,7.4,1.9,5.9-.9,7.9,3.6,1.5,3.2.6,5.8-4.6,3.2-3.1,3.1,5.2,2,8.1,2.6,7.6,2.6,3.3.2,6.9,2.2,3.8-1.3,4.8.9,4.8,2.2-6.6,2.6-5.9-2.8-5.8-.2-3-1-3.5-4.2-5.1-1.7-3.2,1.7-1.1,1.4-5.6-2.9-4.2-4.1-4.6-3.5-5.6,2.2-1.1,1.5-6.9,3.9-.3,2.8-2.8,3-1.4.8-2.4,4.1-4.1Z" transform="translate(-1.5 -1.5)"/>
    <path id="ME" class="cls-1" d="M882,225.4l.4-.6-2-1.2-1.8-.7-.8-.8-1.5-1.1-.9.6-1.5,1.4-.4,3.4-.5,1h0l2.3,1.2,1.6,2.1,1.1.4h0l-.5-1.9,2-3.1.4,1.2,1.3-.5Z" transform="translate(-1.5 -1.5)"/>
    <path id="MN" class="cls-1" d="M1275.7,177.7l-3.7-4.6-6.6-1.5-4.8-.8-6.9-2.5-1.3,6.4,4,3.6-2.4,4.3-7.9-1.6-5-.2-4.7-2.9-5.1-.1-5.3-1.9-5.9,2.9-6.6,5.4-4.7,1,3.3,4.4,5.7,3.3,8.1,2.3,5.8,5,1.3,7.3,3,2.7,6.4,1,7.2.9,7.9,3.8,3.4.7,4.9,5.7,4.7,3.6,5.5-.1,11.2,1.3,6.4-.8,5.5.9,9.3,3.8,6.2-.1,3.2,2,4.4-3.3,7.2-2.2,7.5-.2,4.9-2.2,1.9-3.3,2.5-2-1.9-2.1-2.9-2.3.4-4,3.2.5,5.9,1.3,3.1-3.3,6.3-2.4,1.4-4.1,2.4-1.8,6.8-.8,4.3.7-.7-2.2-7.2-4.3-5.1-2-2.5,2.3-5.4-1-2.4.8-2.7-2.6-.3-6.2-.6-4.6-5.5.5-3.9-2.1-3.3-.7-4.5,4.4-5.8,1-3.6,1.6-6.7-1h-4.5l-4.9-3.1-6.5-3-5.4-.8-5.7.8-3.9,1.1-8.4-2.6Z" transform="translate(-1.5 -1.5)"/>
    <path id="MZ" class="cls-1" d="M1005,566.3l-.8-2.9h0l-4.6,3.7-6.2,2.5-3.3-.1-2.1,1.9-3.9.1-1.4.8-6.7-1.8-2.1.3-1.6,6,.7,7.3h.3l1.9,2,2.2,4.6.1,8.2-2.5,1.3-1.9,4.5-3.4-4-.2-4.5,1.3-2.9-.3-2.6-2.1-1.6-1.6.6-3-3-17.1,5.2.3,4.5.3,2.4,4.6-.1,2.6,1.3,1.1,1.6,2.6.5,2.8,2-.3,8.1-1.3,4.4-.5,4.7.8,1.9-.8,3.7-.9.6-1.6,4.6-6.2,7.2,2.2,9,1.1,4.5-1.4,7.1.4,2.3.6,2.9.3,2.8h4.1l.7-3.3-1.4-.5-.3-2.6,2.6-2.4,6.8-3.4,4.6-2.2,2.5-2.3.9-2.6-1.2-1.1,1.1-3,.5-6.2-1,.3v-1.9l-.8-3.7-2.4-4.8.7-4.6,2.3-1.4,4.1-4.6,2.2-1.1,6.7-6.8,6.4-3.1,5.2-2.5,3.7-3.9,2.4-4.4,1.9-4.6-.9-3.1.2-9.9-.4-5.6.4-6.3Z" transform="translate(-1.5 -1.5)"/>
    <path id="MR" class="cls-1" d="M751.8,338.9l-20.3-15.5-.2,9.7-17.9-.3-.2,16.3-5.2.5-1.4,3.3.9,9.2-21.6-.1-1.2,2.2,2.8,2.7,1.4,3-.7,3.2.6,3.2.5,6.3-.8,5.9-1.7,3.2.4,3.4,2-2,2.7.5,2.8-1.4h3.1l2.6,1.8,3.7,1.7,3.2,4.7,3.6,4.4,1.9-1.2,1-3.7,1.8-.2,3.8,1.8,3.2-1.3,2.1.4.9-1.4,22.3-.1,1.3-4.4-1-.8-2.4-27.5L743.4,339l8.4-.1Z" transform="translate(-1.5 -1.5)"/>
    <path id="MW" class="cls-1" d="M971.2,587.1l.1-2.3-1.2-1.9.1-2.8-1.5-4.7,1.7-3.5-.1-7.7-1.9-4.1.2-.7h0l-1.1-1.7-5.4-1.2,2.6,2.8,1.2,5.4-1,1.8-1.2,5.1.9,5.3-1.8,2.2-1.9,5.9,2.9,1.7,3,3,1.6-.6,2.1,1.6.3,2.6-1.3,2.9.2,4.5,3.4,4,1.9-4.5,2.5-1.3-.1-8.2-2.2-4.6-1.9-2H973v.8l1.1.3,1,3.4-.2.8-1.9-2.5-1,1.6-.8-1.4Z" transform="translate(-1.5 -1.5)"/>
    <path id="MY" class="cls-1" d="M1345.6,458.3l-4.7-2.8-.9,1.1,1.4,2.7-.4,4.7,2.1,3.4,1,5.3,3.4,4.3.8,3.2,6.7,5,5.4,4.8,4-.5.1-2.1-2.3-5.6-2.1-1.8-.5-3.8-.6-2.1.5-2.9-.5-4.3-2.6-4.3-3.5-3.8-1.3-.6-1.7,2.6-3.7.8-.6-3.3Zm99,11-1.2-3.1,3.8-.4.3-2.4-4.8-2-3.8-1.7-.4-2.8-3.1-3.2h-2.3l-2.5,5-4.1,4.4-.1,3.1-.1,4.1-2.7-.2-1.1,2.2-2.7-3.3-2.6,4-3.8,5-6.7,1.4-2.4,1.2-.9,5.4-4.4,1.2-4.1-2.2,1,4.3,3.9,3.5,3.6-1.2,3.6.4,3.2-3.2,2.7-.6,5.4,1.8,4.5-1.3,2.7-8.9,2-2.2,1.7-7.2h6.4l5,1Z" transform="translate(-1.5 -1.5)"/>
    <path id="NA" class="cls-1" d="M907.4,609.3l-10.3,2.5-13.4-.9-3.7-3-22.5.3-.9.4-3.2-2.9-3.6-.1-3.3,1-2.7,1.2.2,4.9,4.4,6.2,1.1,4,2.8,7.7,2.7,5.2,2.1,2.6.6,3.5v7.6l1.6,9.8,1.2,4.6,1,6.2,1.9,4.7,3.9,4.8,2.7-3.2,2.1,1.8.8,2.7,2.4.5,3.3,1.2,2.9-.5,5-3.2,1.1-23.6.6-18.5,5.4-.2.9-22.7,4.1-.2,8.6-2.2,2,2.6,3.7-2.5h1.6l3.2-1.5v-.5l-2.1-1.4-3.6-.4-4.6,1.5Z" transform="translate(-1.5 -1.5)"/>
    <path id="NE" class="cls-1" d="M853.3,351.2l-8.8-2.8-18.6,12.2-15.8,12.5-7.8,2.8.1,14.6-3,4.3-.5,3.9-4.9,1-7.6.6-2,2.2-3.6.3-.5,3.1.8,2.9,3.1,4.1.2,3.1,6.4,1.4-.1,4.4,1.9-1.9h2l4.3,3.7.3-5.7,1.6-2.6.8-3.6,1.4-1.4,6-.8,5.6,2.4,2.1,2.4,2.9.1,2.6-1.5,6.8,3.3,2.8-.2,3.3-2.7,3.3.2,1.6-.9,3,.4,4.3,1.8,4.3-3.5,1.3.2,3.9,7,1-.2.2-2,1.6-.4.5-2.9-3.6-.2v-4.1l-2.4-2.3,2.3-8.4,6.9-6,.2-8.3,1.8-12.9,1.1-2.7-2.3-2.2-.2-2.1-2-1.6-1.6-9.9-3.9,2.4-3.1-3.5Z" transform="translate(-1.5 -1.5)"/>
    <path id="NG" class="cls-1" d="M857.8,418.3l-1,.2-3.9-7-1.3-.2-4.3,3.5L843,413l-3-.4-1.6.9-3.3-.2-3.3,2.7-2.8.2-6.8-3.3-2.6,1.5-2.9-.1-2.1-2.4-5.6-2.4-6,.8-1.4,1.4-.8,3.6-1.6,2.6-.3,5.7-.2,2.1,1.2,3.8-1.1,2.5.6,1.7-2.7,4-1.7,1.9-1,4,.1,4.1-.3,10.2H803l3.9,4.2,1.9,4.6,3,3.9,4.5.2,2.2-1.4,2.1.3,5.8-2.3,1.4-4.5,2.7-6.1,1.6-.1,3.3-3.7,2.1-.1,3.2,2.6,3.9-2.2.5-2.6,1.2-2.6.8-3.2,3-2.6,1.1-4.5,1.2-1.4.7-3.3,1.5-4,4.6-5,.3-2.1.6-1.1-2.3-2.6Z" transform="translate(-1.5 -1.5)"/>
    <path id="NI" class="cls-1" d="M316.1,402.4l-1.9-.2-.9.9-2,.8h-1.4l-1.3.8-1.1-.3-.9-.9-.6.2-.8,1.5-.5-.1-.3,1.3-2.1,1.8-1.1.7-.6.8-1.5-1.3-1.4,1.7h-1.2l-1.3.2-.2,3.1h-.8l-.8,1.5-1.8.3-.4.4-.9-1-.7,1,2.6,2.9,2.2,2,1,2.1,2.5,2.6,1.8,2,.9-.8,3.5,1.7,1.4-.8,1.7.5.8,1.3,1.7.4,1.4-1.3-.8-1.1-.1-1.7,1.2-1.6-.2-1.7.7-2.7.9-.7.1-2.8-.2-1.7.4-2.8.9-2.5,1.4-2.2-.3-2.3.4-1.4.6-.6Z" transform="translate(-1.5 -1.5)"/>
    <path id="NL" class="cls-1" d="M807.5,169.5h2.9l1.1-2.3,1-5.6-1-2-3.9-.2-6.5,2.6-3.9,8.9-2.5,1.7h0l3.6.5,4.4-1.3,3.1,2.7,2.8,1.4-1.1-6.4Z" transform="translate(-1.5 -1.5)"/>
    <path id="NO" class="cls-1" d="M890.8,58.7l-6.9,1.1-7.3-.3-5.1,4.4-6.7-.3-8.5,2.3-10.1,6.8-6.4,4L831,87.4l-7.1,7.8-8.1,5.8-11.2,4.8-3.9,3.6,1.9,13.4,1.9,6.3,6.4,3,6-1.4,8.5-6.8,3.3,3.6,1.7-3.3,3.4-4,.9-6.9-3.1-2.9-1-7.6,2.3-5.3,4.3.1,1.3-2.2-1.8-1.9,5.7-7.9,3.4-6.1,2.2-3.9,4,.1.6-3.1,7.9.9V70l2.5-.3,2.1-1.4,5.1,2.9,5.3-.3,4.7,1.3,3.4-2.4,1.1-3.9,5.8-1.8,5.7,2.1-.8,3.8,3.2-.5,6.4-2.2h0L899.6,64l4.8-1.4-13.6-3.9ZM868.2,25.4l-5.6-1-1.9-1.7-7.2.9,2.6,1.5-2.2,1.2,6.7,1.1Zm-25.4-8.3L838,15.5l-5.1.2-1,1.5h-5l-2.2-1.5-9.3,1.6,3.2,3.5,7.6,3.8,5.7,1.4-3,1.7,8.4,2.9,4.4-.2.9-3.9,3-.9,1.2-3.4,8.5-1.8ZM867,14l-9.1-1-3.2,1.2-5.3-1L839,14.4l4.3,2h5.1l.9,1.3,10.6.7,10.1-.5,4.3-2.4Z" transform="translate(-1.5 -1.5)"/>
    <path id="NP" class="cls-1" d="M1257.2,320.4l-6.5-.6-6.4-1.5-5-2.8-4.5-1.2-2.5-3.1-3.2-.9-6.4-4.1-4.7-2-1.9,1.5-2.8,2.9-.9,5.9,5.7,2.5,5.8,3.1,7.7,3.5,7.6.9,3.8,3.2,4.3.6,6.8,1.5,4.6-.1.1-2.5-1.5-4.1-.1-2.7Z" transform="translate(-1.5 -1.5)"/>
    <path id="NZ" class="cls-1" d="M1670.6,758.4l.9-2.6-5.8,2.9-3.4,3.4-3.2,1.6-5.9,4.6-5.6,3.2-7,3.2-5.5,2.4-4.3,1.1-11.3,6.1-6.4,4.6-1.1,2.3,5.1.4,1.5,2.1,4.5.1,4-1.8,6.3-2.8,8.1-6.2,4.7-4.1,6.2-2.3,4-.1.6-2.9,4.6-2.5,7-4.5,4.2-2.9,2.1-2.6.5-2.6-5.6,2.5.8-2.6Zm28.8-30.5,1.9-5.7-3.1-1.7-.8-3.6-2.3.5-.4,4.6.8,5.7.9,2.7-.9,1.1-.6,4.4-2.4,4.1-4.2,5-5.3,2.2-1.7,2.4,3.7,2.5-.8,3.5-6.9,5.1,1.4.9-.4,1.6,5.9-2.5,5.9-4.2,4.5-3.4,1.6-1.2,1.5-2.7,2.8-2,3.8.2,4.2-3.8,5.1-5.7-2.1-.8-4.6,2.5-3.2-.5-2.9-2.1,2.3-4.9-1.2-1.8-2.9,4.4.4-6.8Z" transform="translate(-1.5 -1.5)"/>
    <path id="OM" class="cls-1" d="M1103,363.4l2.1-2,.8-1.8,1.6-3.8-.1-1.4-2.1-.8-1.6-2.1-2.9-3.7-3.3-1.1-4.1-.9-3.3-2.3-2.9-4.3h-2.8l-.1,4.2,1.1.8-2.4,1.3.3,2.6-1.4,2.6.1,2.6,2.9,4.5-2.6,12.7-16.1,6.4,5.2,10.5,2.1,4.4,2.5-.3,3.6-2.2,3.1.6,2.5-1.8-.2-2.5,2.1-1.6h3.4l1.2-1.3.2-3.1,3.3-2.4h2.6l.4-.8-1-4.2.6-3.2,1-1.5,2.5.3,1.7-4.4ZM1086.4,333l.2-2.6-.7-.6-1.3,2.2,1.3,2.2Z" transform="translate(-1.5 -1.5)"/>
    <path id="PK" class="cls-1" d="M1190.3,271.9l-9.4-2.6-2.9-5-4.7-3-2.8.7-2.4,1.2-5.8.8-5.3,1.3-2.4,2.8,1.9,2.8,1.4,3.2-2,2.7.8,2.5-.9,2.3-5.1-.2,3,4.2-3,1.6-1.5,3.8,1.1,3.8-1.7,1.8-2.1-.6-4,.9-.2,1.7h-4l-2.3,3.6.8,5.4-6.6,2.6-3.8-.5-.9,1.4-3.3-.8-5.3.9-9.6-3.2,3.2,3.3,2.8,3.9,5.6,2.7,1,5.7,2.7,1,.9,2.9-7.4,3.3-1.2,7.4,7.6-.9,8.9-.1,9.9-1.2,4.9,4.8,2.1,4.6,4.2,1.6,3.2-4.2h12l-1.8-5.5-3.5-3.2-1.3-4.9-4-2.9,4.9-6.6,6.4.5,4.5-6.7,2.1-6.5,3.9-6.3-1-4.5,3.7-3.7-5-3.1-2.9-4.3-3.2-5.6,1.9-2.8,8.5,1.6,5.7-1,3.7-5.4Z" transform="translate(-1.5 -1.5)"/>
    <path id="PA" class="cls-1" d="M345.5,442.6l-2-1.8-1.7-1.9-2.5-1.1-3.1-.2.3-.6-3.1-.4-2,1.9-3.5,1.3-2.5,1.6-2.7.5-1.5-1.6-.5.5-2.3-.3.2-1.3-1.9-2.3-2.2.6-.1,2.5,1.1,1-.8.7.1,1.2-.5,1.3-.4,1.2.6,1,.3-1.4h2.4l1.4.7,2.3.5,1,2.5,1.8.4.8-1.1.8,3.8,2.6-.3.9-.9,1.5-.9-2.5-3.4.6-1.3,1.3-.3,2.3-1.6,1.2-2.2,2.5-.4,2.7,1.8,1,2.1,1.4.4-1.5,1.7,1,3.5,1.8,1.8.9-3.1,1.8.5,1.1-1.9-1.1-3.8Z" transform="translate(-1.5 -1.5)"/>
    <path id="PE" class="cls-1" d="M386.3,525.1l-2.9-3.4-1.7-.1,3.5-6.5-4.4-3-3.3.6-2.1-1.1-3,1.7-4.2-.8-3.4-6.7-2.7-1.7-1.8-3-3.7-3-1.5.6.8,4.9-1.7,4.1-6,6.7-6.7,2.5-3.3,5.5-.9,4.3-3.1,2.6-2.5-3.2-2.3-.7-2.3.5-.2-2.3,1.5-1.5-.7-2.7-4.4,4-1.6,4.5,3,6.1-1.7,2.8,4.1,2.6,4.5,4.1,2,4.7,2.4,2.9,6,12.7,6.2,11.7,5.4,8.4-.8,1.8,2.8,5.3,4.6,3.9,10.7,6.9,11.6,6.4.7,2.6,5.9,3.7,2.7-1.6,1.2-3.3,2.8-6.9-2.8-5.3,1.1-2.1-1.2-2.4,1.9-3.2-.3-5.4-.1-4.5,1.1-2.1L390,567.4l-3,1.1-2.6-.7-.2-9.7-4.4,3.8-4.9-.2-2.3-3.4-3.7-.3,1-2.8-3.3-3.8-2.6-5.8,1.5-1.1-.1-2.7,3.3-1.9-.7-3.4,1.3-2.2.4-3,6.2-4.3,4.6-1.2.7-1,5.1.3Z" transform="translate(-1.5 -1.5)"/>
    <path id="PH" class="cls-1" d="M1486.6,444.2l-.6-2.3-.8-3.2-4.8-3,.8,4.9-3.9.2-.7,2.8-4.2,1.7-2.2-2.8-2.8,2.4-3.4,1.7-1.9,5.4,1.1,1.9,3.9-3.6,2.7.3,1.5-2.7,3.8,3-1.5,3.1,1.9,4.6,6.8,3.7,1.4-3-2.1-4.7,2.4-3.2,2.5,6.4,1.5-5.8-.6-3.5-.8-4.3Zm-14.5-11.8v-6.1l-3.6,6.1.5-4.2-3,.3-.3,4-1.2,1.8-1,1.7,3.8,4.4,1.6-1.9,1.4-4,1.8-2.1Zm-30.1,6.1,2.6-4.4,3.4-3.5-1.5-5.2-2.4,6.3-2.9,4.4-3.8,4-2.4,4.4,7-6Zm17.4-16.4,1.2,3-.1,3.3.5,2.9,3.3-1.9,2.4-2.7-.2-2.6h-3.6l-3.5-2Zm20-1.7-1.8-2.4-5.4-.1,4,4.8.3,2.4-3.3-.5,1.2,3.9,1.7.3.7,4.5,2.5-1.4-1.7-4-.4-2.1,4.5,1.7-2.3-7.1Zm-22.9-5.8-2.2-2.3-4.8-.2,3.4,4.8,2.8,3.2.8-5.5Zm-6.4-34.6h-3.3l-.9,5.8,1.1,9.9-2.6-2,1.2,6,1.2,2.8,3.3,3.7.4-2.3,1.8,1.4-1.5,1.7.1,2.6,2.9,1.4,5-.9,4,3.8,1.1-2.4,2.5,3.4,4.8,3.1.2-2.9-2-1.6.1-3.4-7.5-3.6-2.3.8-3.1-.7-2-5.1.1-5.1,3-2.1.6-5.3-2.7-4.6.4-2.6-.7-1.6-1.5,1.6-3.7-1.8Z" transform="translate(-1.5 -1.5)"/>
    <path id="PG" class="cls-1" d="M1652.7,541.2l.9-1.8-2.4-2.2-2.5-4-1.6-1.5-.5-1.9-.8.7.9,4.8,2.2,4,2.2,2.5,1.6-.6Zm-21.2-8.6,2.1-3.9.4-3.5-1.1-1-3.4.1.4,3.7-3.3,2.3-1.7,2.2-3.2.5-.4-3.4-.8.1-1,3.1-3.1.5-5-.9-.6,1.9,3.1,1.8,4.5,1.9h2.9l3-1.5,3.2-1.6,1-1.8,3-.5Zm-27.8,12.2-.9-4.3,5.2-.7-1.1-3.3-9.1-4-.6-3.7-2.9-3.2-3.7-3.3-10.2-3.6-9.6-4.4-1,20.7-1.5,20.8,5.7.2,3.1,1.1,4.6-2.2-.3-4.7,3.6-2.1,4.9-1.8,7,2.8,2.4,5.6,2.9,3.5,3.9,4,5.5,1,4.8.7,1.1,1.6,3.8-.4.8-1.8-5.6-2.7,1.8-1.2-4.2-1.1.5-2.8-3.2.2-3-6.8-4.7-4.1Zm34.7-18.4-.5-3.3-2-2.1-2.1-2.6-2.3-1.5-1.9-1.4-2.9-1.8-1.6,1.5,3.9,1.9,3.1,2.7,2.4,2.1,1.2,2.4.8,3.8,1.9-1.7Z" transform="translate(-1.5 -1.5)"/>
    <path id="PL" class="cls-1" d="M871.4,153.9l-4.6-.1-.5-1.4-4.8-1.1-5.7,2.1-7.1,2.8-3.1,1.7L847,161l-1.2,1.6,2,2.2,1.4,3.3-.1,2.1,2.3,3.9,2.4,1.9,3.7.6-.1,1.7,2.7,1.2.6-1.5,3.4.6.7,2,3.6.3L871,184l.3.4,1.9-.9,2.7,2.2,2.8-1.3,2.4.6,3.4-.8,4.9,2.3,1.1.4-1.6-2.8,3.8-5.1,2.3-.7.3-1.8-3.1-5.3-.5-2.7-1.9-2.9,2.7-1.2-.3-2.4-1.7-2.3-.6-2.7-1.4-1.9-2.5-.6-8.7.1-5.9-.7Z" transform="translate(-1.5 -1.5)"/>
    <path id="KP" class="cls-1" d="M1446.7,227.9h0l-5.5-3.6.1,3.5-6.3,2.6,2.7,3.3-4.6-.2-3.6-2-1,4.4-3.8,3.4-2.1,4,3.3,1.7,3.4.7.8,1,.4,3.5,1.1,1.2-.9.7-.1,2.9,1.9,1,1.6.6.8,1.2,1.3-.5V256l3.1,1.3.1-.6,2.4.2.7-2.9,3.5-.3,2.1-.4-.1-1.6-4.3-2.8-2.6-1,.2-.7-1.2-2.8,1.3-1.7,2.9-1,1-1.9.3-1.1,1.9-1.4-2.8-4.5.3-2.1.9-2,2.2.3h0l-1.4-1.1Z" transform="translate(-1.5 -1.5)"/>
    <path id="PT" class="cls-1" d="M739.6,261.5l-.4-2.1,2-2.5.8-1.7-1.8-1.9,1.6-4.3-2-3.8,2.2-.5.3-3,.9-.9.2-4.9,2.4-1.7-1.3-3.1-3-.2-.9.8h-3l-1.2-3.1-2.1.9-1.9,1.6.1,2.1.9,2.2.1,2.7-1.3,3.8-.4,2.5-2.2,2.3-.6,4.2,1.2,2.4,2.3.6.4,4-1,5.1,2.8-.7,2.7.9,2.2-1.7Z" transform="translate(-1.5 -1.5)"/>
    <path id="PY" class="cls-1" d="M457.7,626.1l-.3-1.9-5.4-3.3-5.1-.1-9.5,1.9-2.1,5.6.2,3.4-1.5,7.6,11.2,10.4,4.6,1,7.2,4.7,5.9,2.5,1.1,2.8-4.2,9.6,5.7,1.8,6.2,1,4.2-1.1,4.3-4.8.3-5.7.7-3.6.3-3.8-.3-3.5-2.1-1.2-2,1.1-2-.3-.9-2.5-1-5.8L472,640l-3.9-1.7-2.1,1.2-6-1.2-.4-8.6-1.9-3.6Z" transform="translate(-1.5 -1.5)"/>
    <path id="PS" class="cls-1" d="M968.9,291.7l-2-.9-.7,4.3,1.4.7-1.2.8-.1,1.7,2.4-.8.6-1.9-.4-3.9Z" transform="translate(-1.5 -1.5)"/>
    <path id="QA" class="cls-1" d="M1060,341.1l.8-3.8-.5-3.7-1.9-2-1.4.7-1.1,3.3.8,4.7,1.8,1.2,1.5-.4Z" transform="translate(-1.5 -1.5)"/>
    <path id="RO" class="cls-1" d="M910.1,191.9H908l-1,1.5-3.6.6-1.6.9-2.4-1.5h-3.2l-3.2-.7-1.9,1.3-2.9,1.3-1.9,4.2-2.6,4.3-3.8,1.1,2.9,2.5.8,1.9,3.2,1.5.7,2.5,3.1,1.8,1.4-1.3,1.4.7-1.1,1.1,1,1,1.8,2.6,1.9-.5,4,1,7.5.3,2.3-1.6,5.8-1.4,4,2.2,3,.7.4-7.4,1.6.5,2.3-1.3-.4-1.6-2.4-1.1-2.2,1-2.4-1.1-1.3-2.8.2-2.7-.6-2.7-3.4-3.7-1.9-2.6-1.8-1.9-1.6-.6Z" transform="translate(-1.5 -1.5)"/>
    <path id="RU" class="cls-1" d="M1134.3,20.7l-4.5-4-13.6-4.1-9.4-2.1-6.2.9-5.3,2.9,5.8.8,6.6,3.2,8,1.7,11.5,1.3ZM955.6,13.4l.9-.6-5.7-.9-2.8.7-1.3,1-1.5-1.2-5.2.1-6.2.8,7.7.1-1.1,1.3,4.4,1,3.6-.7.1-.7,2.9-.3Zm200.5,9.9-1.5-1.8-12.5-2.6-3-.3-2.2.5,1.2,6Zm15.2,6.3-9.2-.7,3.4-1.2-8.2-1.5-6.1,1.9-1,2,1.5,2.1-6.9-.1-5.3,2.6-4.3-1.1-9.3.5.3,1.3-9.2.7-4.9,2.4-4.2.2-1.2,3.3,5.5,2.6-7.7.7L1095,45l-5.8,1.1,4.8,5.4,6.9,4.3-9.6-3-7.9.3-5.1,2,4.5,3.8-4.9-1-2.1-5-4.2-2.8-1.8.1,3.6,3.7-4.6,3.5,8.1,4.2.4,5.4,2.9,2.9,4.7.5.4,3.5,4.4,3.1-1.9,2.6.5,2.7-3.7,1.4-.5,2-5.3-.8,3.5-7.8-.5-3.6-6.7-3.3-3.8-7.3-3.7-3.7-3.6-1.6.8-4.2-2.9-2.9-11.3-1.4-2.1,1,.5,4.7-4.3,4.7,1.2,1.7,4.7,4.1.1,2.6,5.3.5.8,1.1,5.8,2.9-1,2.8-18.5-6.1-6.6-1.7-12.8-1.6-1.2,1.7,5.9,3.1-2.7,3.6-6.4-3.2-5,2.2-7.6.1-2.1,1.9-5.3-.6,2.5-3.3-3.2-.2-12.3,4.6-7.6,2.6.4,3.5-6,1.2-4-1.9-1.2-3,5-.7-3.6-3-12.2-1.8,4.3,3.4-.8,3.2,4.7,3.3-1.1,3.8-4.6-1.9-4-.3-8,5.4,4.2,4.1L948.6,95l-11.4-3.5-2.1,2.1,3.3,2.4.2,2.7-3.8-1.4-6-1.7-1.9-5.8-1-2.6-8-4,2.9-.7,20.1,4.2,6.4-1.5,3.7-2.9-1.6-3.6-4-2.6L927.8,70l-11.6-1.3-7.6-3.2L905,67.3h0l-6.4,2.2-3.2.5.4,3.7,7.2,3.7-2.8,4.1,6.4,6.3-1.7,4.8,4.9,4.1-.9,3.7,7.3,3.9-.9,2.9-3.3,3.3-7.9,7.4h0l5.3,2.8-4.5,3.2h0l.9,1-2.6,3.4,2.5,5.5-1.6,1.9,2.4,1.4,1,2.8,2.1,3.6,5.2,1.5,1,1.4,2.3-.7,4.8,1.4,1,2.9-.6,1.6,3.7,3.9,2.2,1.1-.1,1.1,3.4,1.1,1.7,1.6-1.6,1.3-3.9-.2-.8.6,1.5,2,2,3.9h0l1.8.2,1-1.4,1.5.3,4.8-.5,3.8,3.4-.9,1.3.7,1.9,4,.2,2.2,2.7.2,1.2,6.6,2.2,3.5-1,3.6,2.9,2.9-.1,7.6,2,.4,1.9-1.3,3.2,1.8,3.4-.3,2.1-4.7.5-2.2,1.7.4,2.8,4.2-1,.4,1.3-6.8,2.6,3.2,2.4-3.2,5.2-3.4,1,5,3.6,6.2,2.4,7.4,5.1.5-.7,4.5,1.1,7.7,1,7.5,2.9,1.1,1.2,2.9-1,5.1,1.3,2.1,2.5,3.5,1.4,1.5.2,4.3,3.8,2.4.4.5-1.5,2.6-2.5h0l-7.3-7.3-.4-4.1-5.9-5.9,3.5-6.3,4.6-1.1,1.4-3.7-2.8-1-.2-3.2-4.2-4.1-3.6.2-5.3-4.3,1.7-4.7-1.7-1.2,2.1-6.8,6,3.6-.7-4.6,8.1-6.6,7.5-.2,11.9,4.3,6.6,2.4,4.3-2.5,7.6-.2,7.3,3.2.8-1.8,6.9.3.2-3-9.4-4.2,3.6-2.9-1.5-1.7,3.9-1.6-5-4.1,1.4-2.1,16.8-2.1,1.7-1.5,10.8-2.2,3.1-2.5,9,1.3,4.3,6.3,4.3-1.5,7,2.1,1.2,3.3,4.4-.4,9.1-5.7-.8,1.9,8.3,4.7,18.1,15.5,1.1-3.3,8.3,3.6,6.2-1.6,3.2,1.1,4.1,3.6,3.9,1.2,3.3,2.6,6-.9,4.3,3.8,1.7-.5,4.7-1,6.6-5.4,5.9-2.9,5.3,1.9,5.1.1,4.7,2.9,5,.2,7.9,1.6,2.4-4.3-4-3.6,1.3-6.4,6.9,2.5,4.8.8,6.6,1.5,3.7,4.6,8.4,2.6,3.9-1.1,5.7-.8,5.4.8,6.5,3,4.9,3.1h4.5l6.7,1,3.6-1.6,5.8-1,4.5-4.4,3.3.7,3.9,2.1,5.5-.5,7.3,2.3,4.4-3.9-1.9-2.7-.1-6.5,1.2-2-2.5-3.3L1353,164l1.7-3,5.1-1.1,6.2-.2,8.5,1.8,5.9,2.3,7.7,6.1,3.8,2.7,4.4,3.7,6.1,6.1,9.9,1.9,8.9,4.5,6,5.8h7.5l2.6-2.5,6.9-1.8,1.3,5.6-.4,2.3,2.8,6.8.6,6-6.8-1.1-2.9,2.2,4.7,5.3,3.8,7.3-2.5.1,1.9,3.1h0l1.4,1.1h0l-.4-2,4-4.5,5.1,3,3.2-.1,4.4-3.6,1-3.7,2.1-7.1,1.9-7.2-1.3-4.3,1-9-5.2-9.9-5.5-7.3-1.3-6.2-4.7-5.1-12.7-6.7-5.6-.4-.3,3-5.8-1.3-5.7-3.8-8-.7,4.9-14.1,3.5-11.5,13.1-1.8,14.9,1,2.5-2.8,7.9.8,4.3,4.3,6.4-.6,8.4-1.6-7.7-3.5v-9.8l9.1-1.9,12.1,7.1,3.6-6.4-3.2-4.7,4.7-.5,6.5,8.1-2.4,4.6-.8,6,.3,7.5-5.7,1.3,2.8,2.7-.1,3.6,6.4,8.3,16,13.4,10.5,8.8,5.7,4.3,1.6-5.7-4.5-6.2,5.7-1.5-5.4-6.9,5-3.1-4.7-2.6-3.4-5,4.1-.2-9-8.6-6.7-1.4-2.9-2.4-1.1-5.6-3.1-3.9,7,.8,1.3-2.5,4.7,2.2,6.1-4.6,11.4,4-1.7-2.6,2-3.6,1.5-4,3.1-.7,6.5-4.3,9.8,1.2-.9-1.5-3.8-2.3-4.1-1.6-9.1-4.6-8.1-3,6.1.4,2-2.5h0l-32.9-21.9-9.4-2.3-15.7-2.6-7.9.3-15.2-1.4,1.8,2.3,8.5,3.4-2.5,1.8-14.2-4.8-6.8.6-9.2-1.1-7,.2L1433,68l-7.2-1.6-5.1-3.8-6.5-2.2-9.2-.9-14.7,1-16.1-4-7.8-3-40.1-3.4-2.1,2.2,9.3,4.8-7.5-.7-1,1.5-9.7-1.6-5,1.4-9.3-2.4,3,5.5-8.9-2.1-10-4.1-.4-2.2-6-3.3-9.8-2.6h-6.1l-9.3-.9,4.7,3.9-17.2-.8-3.9-2.3-13.3-.9-5.3.8-.1,1.3-5.8-3.2-2.3.9-7.2-1.2-5.6-.7,1.1-1.5,6.6-2.8,2.3-1.5-2.4-2.5-5.5-1.9-11.5-2.3-10.8-.1-1.9,1.2-4.1-2.4ZM1009.1,61.2l-9.9-4.3-3.1-4.3,3.3-4.9,2.8-5,8.6-4.7,9.8-2.4,11.3-2.4,1.3-1.5-4.2-1.9-6.6.6-4.9,1.8-11.7.9-10.1,3.1-6.8,2.7,2.5,2.2-6.6,4.4,3.9.7-5.4,4.3,1.6,2.8-3.4,1.1,1.9,2.8,7.9,1.4,2.2,2.3,13.4.7,2.2-.4Zm314-24.7-17.9-2.6-10.2-.2-3.4.9L1295,38l12.4,3.2,4.5-1.2,14.2.2Zm25.2,2.3-11.7-1.3-8.2-.7,1.7,1.6,10.3,2,6.8.4,1.1-2Zm-12.5,9.5-2.5-1.4L1325,45l-4.1.5-.8,2,1.1.2,8.8.6Zm162.6,12.3-6-3.6-1.4,2.2,3.5,1.6ZM886,154.5l-.6-1.5.2-1.7-2.2-.9-5-1.1-6.3,2-.7,2.6,5.9.7Zm589.7,21.8-7.2-6.2-5.1-6-6.8-5.8-4.9-4-1.3.8,4.4,2.8-1.9,2.8,6.8,8.3,7.8,6,6.4,8.3,2.4,4.6,5.5,6.8,3.8,6,4.6,5.2-.1-4.8,6.5,3.8-3-4.4-9.5-6.3-3.7-9,8.9,2-13.6-10.9Z" transform="translate(-1.5 -1.5)"/>
    <path id="RW" class="cls-1" d="M949.6,505l-3.3,1.9-1.4-.6-1.6,1.8-.2,3.8-.8.4-.6,3.5,3.5.5,1.7-3.6,3,.4h0l1.6-.8.4-3.7-2.3-3.6Z" transform="translate(-1.5 -1.5)"/>
    <path id="EH" class="cls-1" d="M731.6,321.8h-.8l.1,3.4-3.4.2-1.8,1.5h-2.5l-1.9-.9-4.6.7-1.9,5-1.7.4-2.8,8.1-7.8,6.8-2,8.8-2.3,2.9-.7,2.3-12.4.5H685l-.3,2.7,1.2-2.2,21.6.1-.9-9.2,1.4-3.3,5.2-.5.2-16.3,17.9.3.2-9.7.1-1.2v-.4Z" transform="translate(-1.5 -1.5)"/>
    <path id="SA" class="cls-1" d="M1030.7,312.6l-10.2-.5-16.7-12.7-8.5-4.5-6.7-1.7-.9,1-10.4,3.1,6.1,6.4-1.7,1-.7,2.2-4,.8-1.1,2.3-2.1,2-6.1-1-.5,2.5v2.2l-.6,3.5h2.7l3.2,4.4,3.7,5.1,2.5,4.7,1.7,1.5,1.7,3.3-.2,1.4,2.1,3.7,3,1.3,2.8,2.5,3.6,7v3.8l.9,4.4,4,6.1,2.5,1,4.1,4.4,1.9,5.2,3.2,5.3,3,2.3.6,2.5,1.8,1.9.9,2.8,2.3-2.1-.7-2.7,1.2-3.1,2.4,1.7,1.5-.6,6.4-.2,1,.7,5.4.6,2.1-.3,1.6,2.1,2.5-1,3.5-6.7,5-2.9,15.7-2.4,16.1-6.4,2.6-12.7-2.9-4.5-1,1.3-16.8-3.2-2.6-6.4-.4-1.5-1.2-2.4-1.5.4-1.8-1.2-1-1.6-.9-2.1-1.7-1.8-1-2.1.4-2.1-.6-2.7-4-2.6-1.2-2.3-2.9-1.4-2.7-5.5-3.8.2-1.7-3.1-4.9-.6Z" transform="translate(-1.5 -1.5)"/>
    <path id="SD" class="cls-1" d="M982.8,394.1l.4-4.2,1.6-2,4-1,2.6-3.6-3.1-2.4-2.2-1.6-2.5-7.6-1.1-6.5,1.1-1.2-2.1-6.2H916.2l.5,12.7h-6.3v2.7l1.1,25.2-4.8-.4-2.4,4.7-1.4,3.9,1.2,1.5-1.8,1.9.7,2.7-1.4,2.6-.5,2.4,2-.4,1.2,2.5.1,3.7,2.1,1.8v1.6l.7,2.7,3.3,4v2.6l-.8,2.6.3,2,2,1.8.5.3,1.7-.7,1.9-1.2,1.3-5.7,1.5-2.9,4-.9,1,1.8,3,3.7,1.5.5,2-1.1,4.1.3.8,1.3h5.5l.2-1.3,2.9-1.2.5-1.9,2.1-1.3,4.8,3.7,2.8-.7,2.7-4.5,3-3.5-.6-3.9-1.4-1.8,3.4-.3.3-1.5,2.6.5-.5,4.7.8,4.6,2.9,2.5.7,2.2v3.1l.8.1v-.7l1.4-6.7,2.6-1.8.5-2.6,2.3-4.8,3.2-3.2,2.1-6.2.7-5.5-.7-2.5,1.9-9.4Z" transform="translate(-1.5 -1.5)"/>
    <path id="SS" class="cls-1" d="M968,434.3l-.7-2.2-2.9-2.5-.8-4.6.5-4.7-2.6-.5-.3,1.5-3.4.3,1.4,1.8.6,3.9-3,3.5-2.7,4.5-2.8.7-4.8-3.7-2.1,1.3-.5,1.9-2.9,1.2-.2,1.3h-5.5l-.8-1.3-4.1-.3-2,1.1-1.5-.5-3-3.7-1-1.8-4,.9-1.5,2.9-1.3,5.7-1.9,1.2-1.7.7,3.8,2.5,3.1,2.6.1,2,3.8,3.4,2.4,2.7,1.5,3.8,4.2,2.5.9,2.1,3.5,5.2,2.5.8,1.5-1.1,2.6.4,3.1-1.3,1.4,2.7,5,4.2h0l2.3-1.7,3.5,1.4,4.5-1.5,4,.1,3.4-3,3.4-3.8,3.8-4.2-3.5-6.9-2.6-1.5-1-2.5-2.9-3.1-3.4-.5,1.8-3.6,3-.1.8-2-.2-5-.8-.1v-3.1Z" transform="translate(-1.5 -1.5)"/>
    <path id="SN" class="cls-1" d="M710.9,404.8l-3.6-4.4-3.2-4.7-3.7-1.7-2.6-1.8h-3.1l-2.8,1.4-2.7-.5-2,2-1.3,3.3-2.8,4.4-2.5,1.2,2.7,2.3,2.2,5,6.1-.2,1.3-1.5,1.8-.1,2.1,1.5,1.8.1,1.8-1.1,1.1,1.8-2.4,1.5-2.4-.1-2.4-1.4-2.1,1.5h-1l-1.4.9-5-.1.8,4.9,3-1.1,1.8.2,1.5-.7,10.3.3,2.7.1,4,1.5,1.3-.1.4-.7,3,.5.8-.4.3-2-.4-2.4-2.1-1.8-1.1-3.7-.2-3.9Z" transform="translate(-1.5 -1.5)"/>
    <path id="SL" class="cls-1" d="M721.4,444.3l-1.5.3v-2.3l-.9-1.7.2-1.8-1.2-2.7-1.5-2.3H712l-1.3,1.2-1.5.2-1,1.4-.7,1.7-3,2.8.7,4.7.9,2.3,2.9,3.5,4.1,2.5,1.5.5,1.3-2,.3-1.9,2.6-3.4,2.6-3Z" transform="translate(-1.5 -1.5)"/>
    <path id="SV" class="cls-1" d="M289.2,412.6l.6-2.5-.7-.7-1.1-.5-2.5.8-.1-.9-1.6-1-1.1-1.3-1.5-.5-1.4.4.2.7-1.1.7-2.1,1.6-.2,1,1.4,1.3,3.1.4,2.2,1.3,1.9.6,3.3.1.7-1.5Z" transform="translate(-1.5 -1.5)"/>
    <path id="RS" class="cls-1" d="M886.8,210.8l-3.2-1.5-.8-1.9-2.9-2.5-3.2-.2-3.7,1.6h0l1.5,2.4,1.7,1.8-1.7,2.3h1.8l-1,2.7,2.7,2.3-.5,2.9-1.2.3,1.5,1.1.8.8,1.8.7,2,1.2-.4.6,1.2-.5.5-2,.9-.4.8.9,1,.4.8,1,.8.3,1.1,1.1h.8l-.5,1.5-.5.7.2.5,1.7-.4,2.4-.1.7-.9-.6-.7.7-2,1.7-1.9-2.8-2.6-.7-2.3,1.1-1.4-1-1,1.1-1.1-1.4-.7-1.4,1.3-3.1-1.8-.7-2.5Z" transform="translate(-1.5 -1.5)"/>
    <path id="SR" class="cls-1" d="M470,459.4l-4.6.5-.6,1.1-6.7-1.2-1,5.7-3.5,1.6.3,1.5-1.1,3.3,2.4,4.6,1.8.1.7,3.5,3.3,5.6,3.1.5.5-1.3-.9-1.3.5-1.8,2.3.6,2.7-.7,3.2,1.4,1.4-2.7.6-2.9,1-2.8-2.1-3.7-.4-4.4,3.1-5.5-6-1.7Z" transform="translate(-1.5 -1.5)"/>
    <path id="SK" class="cls-1" d="M889.4,186.5l-4.9-2.3-3.4.8-2.4-.6-2.8,1.3-2.7-2.2-1.9.9-.3-.4h-1.5l-.6,1.1-1.1.3-.2,1.4-.9.3-.1.6-1.6.6-2.2-.1-.6,1.4-.3.8.7,2.1,2.6,1.6,1.9.7,4.1-.8.3-1.2,1.9-.2,2.3-1,.6.4,2.2-.7,1-1.5,1.6-.4,5.5,1.9,1-.6.7-2.5,1.1-1.7Z" transform="translate(-1.5 -1.5)"/>
    <path id="SI" class="cls-1" d="M861.4,202.6l-1.2-2.1-.8-.1-.9,1.1-4.3.1-2.4,1.4-4.2-.4-.3,3,1.4,2.7-1.1.5,3.5.2.8-1,1.8,1,2,.1-.2-1.7,1.7-.6.3-2.5,3.9-1.7Z" transform="translate(-1.5 -1.5)"/>
    <path id="SE" class="cls-1" d="M879.7,86.7l-1.9-2.2-1.7-8.4-7.2-3.7L863,69.7l-2.5.3v3.5l-7.9-.9-.6,3.1-4-.1-2.2,3.9-3.4,6.1-5.7,7.9,1.8,1.9-1.3,2.2-4.3-.1-2.3,5.3,1,7.6,3.1,2.9-.9,6.9-3.4,4-1.7,3.3,4.2,8.4,4.4,6.7,2,5.7,5.3-.3,2.2-4.7,5.7.5,2-5.5.6-10,4.6-1.3,3.3-6.6-4.8-3.3-3.6-4,2.1-8.1,7.7-4.9,6.1-4.5-1.2-3.5,3.4-3.9,7-1.5Z" transform="translate(-1.5 -1.5)"/>
    <path id="SZ" class="cls-1" d="M952.5,662.2l-2.7-1.2-1.6.5-.7,1.8-1.6,2.4-.1,2.2,3,3.5,3.3-.7,1.3-2.8-.3-2.8-.6-2.9Z" transform="translate(-1.5 -1.5)"/>
    <path id="SY" class="cls-1" d="M985.5,285.5l11-6.7.9-7.8-1.2-4.7,2.7-1.6,2.1-4.1-5.9,1.1-2.8-.2-5.7,2.5h-4.3l-3-1.2-5.5,1.8-1.9-1.3.1,3.6-1.2,1.5-1.2,1.4-1,2.6,1.1,5,2.4.3,1.2,2.5-2.6,2.4-.9,3.5.3,2.6-.6,1h.1l6.3,2.5,9.6-6.7Z" transform="translate(-1.5 -1.5)"/>
    <path id="TD" class="cls-1" d="M910.4,373.2,888,361l-22.3-12.2-5.4,3.5,1.6,9.9,2,1.6.2,2.1,2.3,2.2-1.1,2.7-1.8,12.9-.2,8.3-6.9,6-2.3,8.4,2.4,2.3v4.1l3.6.2-.5,2.9,2.2,4.1.5,4.2-.2,4.3,3.1,5.8-3.1-.1-1.6.4L858,434l-1.2,3,3.3,3.7,2.5,1.1.8,2.6,1.8,4.4-.9,1.7,4.7-.4,1-1.7.9.2,1.4,1.4,7.1-2.4,2.3-2.5,2.9-2.2-.6-2.3,1.6-.6,5.4.4,5.2-2.9,4-7L903,428l3.5-1.1v-1.6l-2.1-1.8-.1-3.7-1.2-2.5-2,.4.5-2.4,1.4-2.6-.7-2.7,1.8-1.9-1.2-1.5,1.4-3.9,2.4-4.7,4.8.4-1.1-25.2Z" transform="translate(-1.5 -1.5)"/>
    <path id="TG" class="cls-1" d="M783.7,427.8l-4.9-.1-.4,1.9,2.4,3.3-.1,4.6.6,5.1,1.4,2.3-1.2,5.7.4,3.2,1.5,4,1.2,2.2,4.6-1.3-1.4-4.4.2-14.6-1.1-1.3-.2-3.1-2-2.3-1.7-1.9.7-3.3Z" transform="translate(-1.5 -1.5)"/>
    <path id="TH" class="cls-1" d="M1364.7,407l1.5-2.9-.5-5.4-5.2-5.5-1.3-6.3-4.9-5.2-4.3-.4-.8,2.2-3.2.2-1.8-1.2-5.3,3.8-1-5.7.4-6.7-3.8-.3-.9-3.8-2.6-1.9-3,1.4-2.8,2.8-3.9.3-1.5,6.9-2.2,1.1,3.5,5.6,4.1,4.6,2.9,4.2-1.4,5.6-1.7,1.1,1.7,3.2,4.2,5.1,1,3.5.2,3,2.8,5.8-2.6,5.9-2.2,6.6-1.3,6.1-.3,3.9,1.2,3.6.7-3.8,2.9,3.1,3.2,3.5,1.1,3.2,2.4,2.4.9-1.1,4.7,2.8.6,3.3,3.7-.8,1.7-2.6-3.1-3.3-3.4-.8-3.3-3.6-1.4-5.5-2.6-5.8-3.7-.2-.7-4.6,1.4-5.6,2.2-9.3-.2-7,4.9-.1-.3,5,4.7-.1,5.3,2.9-2.1-7.7,3-5.2,7.1-1.3,5.3,1Z" transform="translate(-1.5 -1.5)"/>
    <path id="TJ" class="cls-1" d="M1146.1,241.3l-2.1.2-1.3-1.8.2-2.9-6.4,1.5-.5,4-1.5,3.5-4.4-.3-.6,2.8,4.2,1.6,2.4,4.7-1.3,6.6,1.8.8,3.3-2.1,2.1,1.3.9-3,3.2.1.6-.9-.2-2.6,1.7-2.3,3.2,1.5v2l1.6.3,1,5.4,2.6,2.1,1.5-1.3,2.1-.7,2.5-2.9,3.8.5h5.4l-1.8-3.7-.6-2.5-3.5-1.4-1.6.6-3-5.9-9.5.9-7.1-2-5.4.5-.6-3.7,5.9,1.1,1.4-2Z" transform="translate(-1.5 -1.5)"/>
    <path id="TM" class="cls-1" d="M1127.6,259.8l-.8-4-7.7-2.7-6.2-3.2-4.2-3-7-4.4-4.3-6.4-2-1.2-5.5.3-2.3-1.3-1.9-4.9-7.8-3.3-3.3,3.6-3.8,2.2,1.6,3.1-5.8.1-2.5.3-4.9-4.9-3.8-1.7-5.5,1.3-1.8,2,2.5,4-.5-4.5,3.7-1.6,2.4,3.6,4.6,3.7-4,2-5.3-1.5.1,5.2,3.5.4-.4,4.4,4.5,2.1.7,6.8,1.8,4.5,4.4-1.2,3-3.7,3.5.2,2.1-1.2,3.8.6,6.5,3.3,4.3.7,7.3,5.7,3.9.2,1.6,5.5,5.9,2.4,3.9-.8.4-3,4-.9,2.5-2-.1-5.2,4.1-1.2.3-2.3,2.9,1.7,1.6.2Z" transform="translate(-1.5 -1.5)"/>
    <path id="TL" class="cls-1" d="M1478.8,557.5l4.9-1.8,6-2.8,2.2-1.7-2-.8-1.8.8-4,.2-4.9,1.4-.8,1.5.5,1.3-.1,1.9Z" transform="translate(-1.5 -1.5)"/>
    <path id="TN" class="cls-1" d="M840,287l-2-1-1.5-3-2.8-.1-1.1-3.5,3.4-3.2.5-5.6-1.9-1.6-.1-3,2.5-3.2-.4-1.3-4.4,2.4.1-3.3-3.7-.7-5.6,2.6-1,3.3,1,6.2-1.1,5.3-3.2,3.6.6,4.8,4.5,3.8V291l3.4,2.6,2.6,11.3,2.6-1.4.4-2.7-.7-2.6,3.7-2.5,1.5-2,2.6-1.8.1-4.9Z" transform="translate(-1.5 -1.5)"/>
    <path id="TR" class="cls-1" d="M968.6,234.5l-9.7-4.4-8.5.2-5.7,1.7-5.6,4-9.9-.8-1.6,4.8-7.9.2-5.1,6.1,3.6,3-2,5,4.2,3.6,3.7,6.4,5.8-.1,5.4,3.5,3.6-.8.9-2.7,5.7.2,4.6,3.5,8-.7,3.1-3.7,4.6,1.5,3.2-.6-1.7,2.4,2.3,3,1.2-1.4,1.2-1.5-.1-3.6,1.9,1.3,5.5-1.8,3,1.2h4.3l5.7-2.5,2.8.2,5.9-1.1,2.1-1,6.2.9,2.1,1.6,2.3-1.1h0l-3.7-5.2.7-2-2.9-7.3,3.3-1.8-2.4-1.9-4.2-1.5v-3.1l-1.3-2.2-5.6-3-5.4.3-5.5,3.2-4.5-.6-5.8,1-7.8-2.4Zm-49.6,4,2-1.9,6.1-.4.7-1.5-4.7-2-.9-2.4-4.5-.8-5,2,2.7,1.6-1.2,3.9-1.1.7.1,1.3,1.9,2.9,3.9-3.4Z" transform="translate(-1.5 -1.5)"/>
    <path id="TW" class="cls-1" d="M1444.3,352.8l1.2-10.2.1-3.9-2.9-1.9-3.3,4.8-1.9,6.3,1.5,4.7,4,5.4,1.3-5.2Z" transform="translate(-1.5 -1.5)"/>
    <path id="TZ" class="cls-1" d="M951.6,504.2l-2,.8,2.3,3.6-.4,3.7-1.6.8h0l.3,2.5,1.2,1.5v2l-1.4,1.4-2.2,3.3-2.1,2.3-.6.1-.3,2.7,1.1.9-.2,2.7,1,2.6-1.3,2.4,4.5,4.3.3,3.9,2.7,6.5h0l.3.2,2.2,1.1,3.5,1.1,3.2,1.9,5.4,1.2,1.1,1.7h0l.4-1.2,2.8,3.4.3,6.7,1.8,2.4v.1l2.1-.3,6.7,1.8,1.4-.8,3.9-.1,2.1-1.9,3.3.1,6.2-2.5,4.6-3.7h0l-2-1.4-2.2-6.3-1.8-3.9.4-3.1-.3-1.9,1.7-3.9-.2-1.6-3.5-2.3-.3-3.6,2.8-7.9-8-6.3-.4-3.7-20.2-13h0l-2.8,2.8-1.9,2.9,2.2,2.2-3.2,1.6-.7-.8-3.2.4-2.5,1.4-1.6-2.4,1.1-4.5.2-3.8h0l-6.2-.1Z" transform="translate(-1.5 -1.5)"/>
    <path id="UG" class="cls-1" d="M969.6,470.7l-3.4,3-4-.1-4.5,1.5-3.5-1.4-2.3,1.7h0l-.3,7.5,2.3.8-1.8,2.3-2.2,1.7-2.1,3.3-1.2,3-.3,5.1-1.3,2.4-.1,4.8,1.4.6,3.3-1.9,2-.8,6.2.1h0l-.3-2.5,2.6-3.7,3.5-.9,2.4-1.5,2.9,1.2.3.5v-.3l1.6-2.6,2.7-4.2,2.1-4.7-2.6-7.3-.7-3.2-2.7-4.4Z" transform="translate(-1.5 -1.5)"/>
    <path id="UA" class="cls-1" d="M940.5,166.6l-4.8.5-1.5-.3-1,1.4-1.8-.2h0l-4.1.3-1.2,1.4.2,3.1-2-.6-4.3.3-1.5-1.5-1.6,1.1-2-.9-3.8-.1-5.6-1.5-5-.5-3.7.2-2.4,1.6-2.2.3,3.1,5.3-.3,1.8-2.3.7-3.8,5.1,1.6,2.8-1.1-.4-1.1,1.7-.7,2.5,2.9,1.7.6,1.6,1.9-1.3,3.2.7h3.2l2.4,1.5,1.6-.9,3.6-.6,1-1.5h2.1l1.1-.9,3.2-.6,3.9,1.9,2,.3,2.5,1.6v2.1l1.9,1.1,1.1,2.6,2,1.5-.2,1,1,.6-1.2.5-3-.2-.6-.9-1,.5.5,1.1-1.1,2-.5,2.1-1.2.7,2.4,1.1,2.2-1,2.4,1.1,3.3-4.6,1.3-3.4,4.5-.8.7,2.4,8,1.5,1.7,1.4-4.5,2.1-.7,1.2,5.8,1.8-.6,2.9,3,1.3,6.3-3.6,5.3-1.1.6-2.2-5.1.4-2.7-1.5-1-3.9,3.9-2.3,4.6-.3,3-2,3.9-.5-.4-2.8,2.2-1.7,4.7-.5.3-2.1-1.8-3.4,1.3-3.2-.4-1.9-7.6-2-2.9.1-3.6-2.9-3.5,1-6.6-2.2-.2-1.2-2.2-2.7-4-.2-.7-1.9.9-1.3-3.8-3.4Z" transform="translate(-1.5 -1.5)"/>
    <path id="UY" class="cls-1" d="M494.5,712.6l-2.1-3.7,1.9-3-3.8-4.3-4.8-3.5-6.2-4.1-1.9.2-6.2-4.9-3.4.7-.5,5.1-.3,6.5,1.1,6.3-.9,1.4.4,4.2,3.9,3.5,3.6-.2,5.4,2.7,2.7-.6,4.2,1.2,5.3-3.5,1.6-4Z" transform="translate(-1.5 -1.5)"/>
    <polygon id="USA" class="cls-1" points="437.2 206.1 440 197.6 438.5 195.8 434.8 196.9 433.7 195.2 428.2 199.9 425 204.8 422.3 207.6 419.8 208.5 418.1 208.8 417.1 210.4 400.1 210.4 397.4 211.6 390.7 215.8 390.9 216.7 390.3 219.1 385.7 221.1 381.8 220.6 377.8 220.4 375.2 221.1 374.9 222.9 374.8 223.5 369 227.2 364.5 229 361.6 229.8 357.9 231.5 353.9 232.4 351.4 232.1 348.7 230.8 351.4 228.4 353.4 226.2 357.1 222.8 357.8 220.3 358.3 216.8 356.7 216.1 352.4 218.9 351.5 218.8 351.8 217.3 355.6 214.8 357.2 212 357.9 209.2 355.2 206.8 351.5 205.5 349.8 207.9 348.4 208.5 346.2 211.6 346.6 209.5 344 211 341.9 213 339.3 216.1 338 218.7 338.1 222.5 336.3 226.5 333 229.5 331.6 230.4 330 231.1 328.2 231.1 327.9 230.7 327.8 227.4 328.5 225.8 329.2 224.3 329.8 221.3 332.3 217.8 335.2 213.5 339.8 208.8 339.1 208.8 333.7 212.8 333.3 212.1 336.2 209.8 340.9 205.8 344.6 205.3 349 204 352.7 204.7 352.8 204.7 357.5 204.2 356 201.7 354.8 201.5 353.4 201.2 353 199.5 347.9 200 342.9 201.4 340.4 199.1 337.9 198.3 341 195 335.7 197 330.8 199.1 326.2 200.6 324.1 198.5 318.6 199.8 319 198.9 323.6 196.3 328.3 193.8 334.2 191.7 328.9 190.1 324.5 190.9 320.7 189 316.1 188 312.9 187.6 311.9 186.6 312.7 183.2 312.7 183.2 311.1 183.2 309.8 185.6 173.9 185.6 172.3 190.7 169.9 195.8 167.6 197.4 168.7 191.5 162.9 189.4 161.5 190.6 161.1 193.5 159.3 198.9 155.1 207.2 151.1 212.8 147.1 218.4 141.7 224.2 140.6 228.9 137.8 234.2 133.9 239.4 134.9 242.8 133 248 134.5 253.4 135.8 255.6 135 257.1 135.4 266.1 137.9 272.6 137.1 276.1 138.1 277.1 142.7 277.8 144 279.5 146.8 279.8 146.7 281.7 148.9 282.4 151 286.1 150.7 289.3 157 288.8 164 288.1 163 289.4 170.1 292.5 180.8 296.9 195.8 296.9 196.6 294.3 205.9 294.3 207.2 296.5 209.3 298.5 211.7 301.3 212.5 304.6 212.9 308.1 215.1 310 219.1 311.9 223.9 306.9 228.3 306.8 231.4 309.3 233 313.7 234 317.4 236.4 321 236.6 325.5 237.4 328.5 241.3 330.5 244.9 331.9 247 331.7 246.4 329.5 246.8 326.4 247.8 322 249.7 319.2 253.4 316.1 259.4 313.4 265.5 308.7 270.4 307.2 273.9 306.8 277.4 308.2 282.3 307.4 285.6 310.8 289.4 311 291.8 309.8 293.5 310.7 294.8 309.9 293.9 308.6 294.6 306.1 294.1 304.4 296.5 303.4 300.7 303 305.4 303.7 311.6 302.9 314.6 304.4 316.6 307.4 317.5 307.7 323.6 304.8 325.5 305.8 328.5 311.1 329.3 314.6 327.3 318.8 327.7 321.3 329.3 326.2 331.3 331.7 333.1 333.1 333.5 335.9 336.1 336.7 337.8 335.9 339.8 332 340.5 329.5 341.4 325.2 340.2 317.8 340.7 315.1 339.2 310.6 338.5 305.2 338.6 300.8 340.4 296.3 343.9 292.5 347.6 289.5 354.5 285.4 355.8 283.2 359.1 280.9 361.9 280.5 366.3 276.7 372.3 274.8 376.9 270 377.8 263.5 377.9 261.3 376.5 260.9 378 254.7 375 252.6 378.2 253.6 378.2 249.5 380.1 246.8 379.1 252.1 381.1 254.6 378.2 259 378.6 259.2 383 254.1 385.4 251.6 386 249.1 385.1 248 385 244.5 386.2 246.1 387.3 246.5 387.2 248.1 392.4 243.2 394.9 238.7 393.5 238.4 395.6 236.6 395.2 237.4 398.5 237.4 406.3 235.5 405.2 234.3 397.3 235.5 402.1 233.7 405.2 233.4 407.6 233.1 411.7 232 414.1 232.1 417.9 231.1 418.9 229.4 417.8 228 417.6 230.2 415.5 230.1 414.9 226.8 416 223.5 417.4 222.2 421.3 218.5 427.2 216.7 433.2 214.6 439.5 211.6 439.3 209.6 437.2 206.1"/>
    <polygon id="USA2" class="cls-1" points="36.1 99.9 36.4 101 38.1 102.2 43 101 44.2 100.4 40.9 99.6 39.3 98.1 35.9 98.7 34.6 97.6 31.5 99.8 31.9 100.3 36.1 99.9"/>
    <polygon id="USA3" class="cls-1" points="29.5 120.8 33.4 119.9 35.7 117.6 32.8 117.1 27.1 118.1 27.9 119.7 29.5 120.8"/>
    <polygon id="USA4" class="cls-1" points="73 132.2 66.6 134.3 64.4 137 65.1 138.6 72.1 136.3 79 133.5 79 131.7 76.4 131.3 73 132.2"/>
    <polygon id="USA5" class="cls-1" points="143.5 120.9 146.7 122 150 128.1 153.7 129.8 160.8 130 164.9 130.4 162.2 135.9 163.8 140.8 160.5 146 163 147.9 163.6 150.1 168.7 147.2 171.8 143.5 167.2 139.7 168.7 132.9 169.8 128.7 168.1 126 167.4 123.6 167.9 120.6 161.5 122.5 153.9 125.8 153.7 121.9 153.1 119.3 150.4 117.7 146.2 117.6 181.6 85.2 205.9 65 202.4 64.3 198.3 62.7 191.8 63.5 189.6 62.8 182.5 62.3 176.3 60.7 171.5 61.2 166.6 60.3 168.6 59.1 162.3 58.8 159 59.8 159.5 57.4 155.1 56.3 144.9 59.1 141.7 58.8 130.7 61.1 125.9 61.7 118.1 64.2 113.3 66.8 104.7 69.3 97.1 69.4 90.8 72.3 94 74 94.7 76.3 93.9 79 96.2 81.1 95 84.6 85.8 84.8 90.1 82 86.7 82 73.6 84.7 64.5 87 65.5 90.3 64.3 92.5 68.8 93.9 75.7 93.2 77.5 94.5 80.4 93.2 86.5 92 89.2 92 83.3 94.1 84.4 95.1 81.9 97.7 76.4 99.5 73.9 99 66.9 101.7 65.1 100.8 61 101.2 55.7 104.2 48.1 107.3 42.3 110.7 42.6 113.1 38.6 116.4 40 117.8 40.5 120.5 47.7 119.4 48.1 121.5 44.8 123.6 41.2 127.1 44 127.1 51.2 124.8 49.6 127.7 53.2 125.6 52.8 128.6 57.6 126.4 58 127.5 65.2 125.7 59 129.1 53.3 133.6 47.6 135.7 45.3 136.9 35 140.5 30.1 142.9 23.6 143.6 15.1 146.9 8.5 148.7 0.4 151.5 0 152.5 10 150.8 16 148.8 22.9 146.8 29 145.1 31.8 145.6 39.9 143 44.4 140.2 54.9 137.1 58.8 134.5 65.4 132.7 73 130.2 81.9 126 81.7 123.1 92.8 119 100.2 115.1 109.4 111.9 109 113.3 102.3 115.1 94 120.8 90.8 124.3 97.2 123 103.3 121.1 109.8 119.8 112.7 119.5 116.2 115.4 122.5 114.2 125.1 116.7 131.1 119.4 137.8 118.9 143.5 120.9"/>
    <path id="UZ" class="cls-1" d="M1141.8,228.7l-2.5,1.2-5.4,4.3-.9,4.5h-1.9l-2.3-3-6.6-.2-2.6-5-2.5-.1-1.5-6.2-7.5-4.5-8.6.5-5.7.9-6.5-5.5-4.8-2.3-9.1-4.5-1.1-.5-11.9,3.6,6.2,22.8,5.8-.1-1.6-3.1,3.8-2.2,3.3-3.6,7.8,3.3,1.9,4.9,2.3,1.3,5.5-.3,2,1.2,4.3,6.4,7,4.4,4.2,3,6.2,3.2,7.7,2.7.8,4h2.9l4.3,1.4,1.3-6.6-2.4-4.7-4.2-1.6.6-2.8,4.4.3,1.5-3.5.5-4,6.4-1.5-.2,2.9,1.3,1.8,2.1-.2,4.1.6,5.2-4.5-7.1-3.3-3.2,1.6-4.6-2.3,3.1-4.1-1.8-.6Z" transform="translate(-1.5 -1.5)"/>
    <path id="VE" class="cls-1" d="M444,444.5l-2.2-1.5-2.9.2-.7-5.1-4.1-3.2-4.4-.4-1.8-3,4.8-1.9-6.7.1-6.9.4-.2,1.6-3.2,1.9-4.2-.7-3.1-2.9-6,.7-5-.1-.1-2.1-3.5-3.5-3.9-.1-1.7-4.5-2.1,2,.6,3-7.1,2.6v4.8l1.6,2.2-1.5,4.6-2.4.4-1.9-5,2.7-3.7.3-3.3-1.7-2.9,3.3-.8.3-1.5-3.7,1.1-1.6,3.2-2.2,1.8-1.8,2.4-.9,4.5-1.8,3.7,2.9.5.6,2.9,1.1,1.4.4,2.5-.8,2.4.2,1.3,1.3.6,1.3,2.2,7.2-.6,3.2.8,3.8,5.5,2.3-.7,4,.3,3.2-.7,2,1.1-1.2,3.4-1.3,2.1-.5,4.6,1,4.2,1.5,1.9.2,1.5-2.9,3.1,2,1.4,1.4,2.2,1.7,6.4,3,3.4,4.4-.5,1.1-1.9,4.2-1.5,2.3-1,.7-2.7,4.1-1.8-.3-1.4-4.8-.5-.7-4,.3-4.3-2.4-1.6,1-.6,4.2.8,4.4,1.6,1.7-1.5,4-1,6.4-2.4,2.1-2.4-.7-1.8-3.7-4.8,1.6-1.8v-2.9l3.4-1.1,1.5-1.2-1.9-2.3.6-2.3,4.6-3.8Z" transform="translate(-1.5 -1.5)"/>
    <path id="VN" class="cls-1" d="M1373.6,360.6l-5.9-1.6-3-2.6.2-3.7-5.2-1.1-3-2.4-4.1,3.4-5.3.7H1343l-2.7,1.5,4,5.1,3.4,5.7,6.8.1,3,5.5-3.3,1.7-1.3,2.3,7.3,3.8,5.7,7.5,4.3,5.6,4.8,4.4,2,4.5-.2,6.4,1.8,4.2.1,7.7-8.9,4.9,2.8,3.8-5.8.5-4.7,2.5,4.5,3.7-1.3,4.3,2.3,4,6.6-5.9,4.1-5.3,6.1-4.1,4.3-4.2-.4-11.2-4-11.7-4.1-5.1-5.6-4-6.4-8.3-5.3-6.7.5-4.4,3.7-6Z" transform="translate(-1.5 -1.5)"/>
    <path id="VU" class="cls-1" d="M1710.6,602.5l-2.7-3.6-.6,1.7,1.3,2.8,2-.9Zm-2-9.7-2.3-2-.9,4.9.5,1.8,1.2-.4,1.3.8.2-5.1Z" transform="translate(-1.5 -1.5)"/>
    <path id="YE" class="cls-1" d="M1073.5,391.8l-2.1-4.4-5.2-10.5-15.7,2.4-5,2.9-3.5,6.7-2.5,1-1.6-2.1-2.1.3-5.4-.6-1-.7-6.4.2-1.5.6-2.4-1.7-1.2,3.1.7,2.7-2.3,2.1.4,2.7-.6,1.3.7,2.9-1.1.3,1.7,2.6,1.3,4.7,1,1.9v3.4l1.6,3.8,3.9.3,1.8-.9,2.7.2.8-1.7,1.5-.4,1.1-1.7,1.4-.4,4.7-.3,3.5-1.2,3.1-2.7,1.7.4,2.4-.3,4.7-4.5,8.8-3,5.3-2.7v-2.1l.9-2.9,3.9-1.7Z" transform="translate(-1.5 -1.5)"/>
    <path id="ZA" class="cls-1" d="M950.2,639.3l-2.9-.6-1.9.8-2.6-1.1-2.2-.1-8,4.7-5.2,4.7-2,4.3-1.7,2.4-3,.5-1.2,3-.6,2-3.6,1.5-4.4-.3-2.5-1.8-2.3-.8-2.7,1.5-1.5,3.1-2.7,1.9-2.8,2.8-4,.7-1.1-2.3.7-3.8-3-6.1-1.4-1-1.1,23.6-5,3.2-2.9.5-3.3-1.2-2.4-.5-.8-2.7-2.1-1.8-2.7,3.2,3.5,8.2v.1l2.5,5.3,3.2,6-.2,4.8-1.7,1.2,1.4,4.2-.2,3.8.6,1.7.3-.9,2.1,2.9,1.8.1,2.1,2.3,2.4-.2,3.5-2.4,4.6-1,5.6-2.5,2.2.3,3.3-.8,5.7,1.2,2.7-1.2,3.2,1,.8-1.8,2.7-.3,5.8-2.5,4.3-2.9,4.1-3.8,6.7-6.5,3.4-4.6,1.8-3.2,2.5-3.3,1.2-.9,3.9-3.2,1.6-2.9,1.1-5.2,1.7-4.7h-4.1l-1.3,2.8-3.3.7-3-3.5.1-2.2,1.6-2.4.7-1.8,1.6-.5,2.7,1.2-.4-2.3,1.4-7.1-1.1-4.5-2.2-9Zm-20.1,52.8-2,.6-3.7-4.9,3.2-4,3.1-2.5,2.6-1.3,2.3,2,1.7,1.9-1.9,3.1-1.1,2.1-3.1,1-1.1,2Z" transform="translate(-1.5 -1.5)"/>
    <path id="ZM" class="cls-1" d="M951.2,552.3l-1.9-.5.4-1.3-1-.3-7.5,1.1-1.6.7-1.6,4.1,1.2,2.8-1.2,7.5-.8,6.4,1.4,1.1,3.9,2.5,1.5-1.2.3,6.9H940l-2.1-3.5-2-2.8-4.3-.8-1.2-3.4-3.4,2-4.5-.9-1.8-2.8-3.5-.6-2.6.1-.3-2-1.9-.1.5,2-.7,3,.9,3-.9,2.4.5,2.2-11.6-.1-.8,20.3,3.6,5.2,3.5,4,4.6-1.5,3.6.4,2.1,1.4v.5l1,.5,6.2.7,1.7.7,1.9-.1,3.2-4.1,5.1-5.3,2-.5.7-2.2,3.3-2.5,4.2-.9-.3-4.5,17.1-5.2-2.9-1.7,1.9-5.9,1.8-2.2-.9-5.3,1.2-5.1,1-1.8-1.2-5.4-2.6-2.8-3.2-1.9-3.5-1.1-2.2-1.1-.3-.2h0l.5,1.1-1,.4-1.2-1.4Z" transform="translate(-1.5 -1.5)"/>
    <path id="ZW" class="cls-1" d="M950.2,639.3l6.2-7.2,1.6-4.6.9-.6.8-3.7-.8-1.9.5-4.7,1.3-4.4.3-8.1-2.8-2-2.6-.5-1.1-1.6-2.6-1.3-4.6.1-.3-2.4-4.2.9-3.3,2.5-.7,2.2-2,.5-5.1,5.3-3.2,4.1-1.9.1-1.7-.7-6.2-.7,1.9,5.1,1.1,1.1,1.6,3.7,6,7,2.3.7-.1,2.2,1.5,4.1,4.2.9,3.4,2.9,2.2.1,2.6,1.1,1.9-.8,2.9.6Z" transform="translate(-1.5 -1.5)"/>
    <path id="SO" class="cls-1" d="M1025.4,431.3l-2.6-2.7-1.2-2.6-1.8-1.2-2,3.4-1.1,2.3,2.2,3.5,2.1,3.1,2.2,2.2,18.5,7.6,4.8-.1-15.4,19.1-7.4.3-4.9,4.5-3.6.1-1.5,2-4.8,7.2.2,23.2,3.3,5.3,1.3-1.5,1.3-3.4,6.1-7.7,5.3-4.8,8.3-6.4,5.6-5.1,6.4-8.7,4.7-7.1,4.6-9.3,3.2-8.2,2.5-7.1,1.3-6.8,1.1-2.3-.2-3.4.4-3.7-.2-1.7H1062l-2.6,2.2-2.9.6-2.5.9-1.8.2h0l-3.2.2-1.9,1.1-2.8.5-4.8,1.9-6.1.8-5.2,1.6Z" transform="translate(-1.5 -1.5)"/>
    <path id="GF" class="cls-1" d="M483.4,481.8l1.8-4.7,3.5-5.8-.9-2.6-5.8-5.4-4.1-1.5-1.9-.7-3.1,5.5.4,4.4,2.1,3.7-1,2.7-.6,2.9-1.4,2.8,2.4,1.3,1.8-1.8,1.2.3.8,1.8,2.7-.5Z" transform="translate(-1.5 -1.5)"/>
    <path id="FR" class="cls-1" d="M827.7,229.4l-1.1-5.2-3.2,2.3-1,2.3,1.4,4.2,2.4,1.2Zm-31.5-50.9-2.4-2.4-2.2-.1-.7-2.2-4.3,1.2-1.4,5.1-11.3,4.8-4.6-2.6,1.4,7-8.2-1.6-6.4,1.3.4,4.6L764,196l3.6,3.1,5.1,6.5-1,12.3-2.7,3.7,2,2.4,9.4,2.8,1.9-1.3,5.7,2.8,6-.8.5-3.7,7.4-2,10,1.6,4.5-3.4.5-2.7-2.7-.8-1.5-4.8,1.7-1.8-1.6-2.4.2-1.7-1.8-2.7-2.4.9v-2.8l3.5-3.5-.2-1.6,2.3.6,1.3-1,.5-4.5,2.3-4.2-7.1-1.2-2.4-1.6-1.4.1-1.1-.5-4.4-2.8-2.5.4-3.4-2.9Z" transform="translate(-1.5 -1.5)"/>
    <path id="ES" class="cls-1" d="M787,251.3v-.2h-.5l-.3-.4-.1.2-.1.2v.2h.5l.4.1.1-.1Zm-.8-1.6h.3l.6-.7v-.3l-.3-.2-1.1.2-.2.3v.3l-.3.1-.1.4.1.2.8.1ZM769,221.6l-8.2-.2-4.2.3-5.4-1h-6.8l-6.2-1.1-7.4,4.5,2,2.6-.4,4.4,1.9-1.6,2.1-.9,1.2,3.1h3l.9-.8,3,.2,1.3,3.1-2.4,1.7-.2,4.9-.9.9-.3,3-2.2.5,2,3.8-1.6,4.3,1.8,1.9-.8,1.7-2,2.5.4,2.1,4.8,1,1.4,3.7,2,2.2,2.5.6,2.1-2.5,3.3-2.3,5,.1h6.7l3.8-5,3.9-1.3,1.2-4.2,3-2.9-2-3.7,2-5.1,3.1-3.5.5-2.1,6.6-1.3,4.8-4.2-.3-3.5-6,.8-5.7-2.8-1.9,1.3L771,224l-2-2.4Zm26,22.6.1-.3.1-.2.1-.1-.2-.2v-.1l.2-.2-.2-.1-1.3.4-.7.4-2.1,1.5v.3l.1.2h.4l.2.4.4-.4.3-.1.3.1.3.2.1.6.1.2.6.1.9.4.4-.2.5-.3.2-.6.3-.5.3-.5.3-.4-.1-.4-.3-.1-.3-.1-.5.2-.5-.2Zm6-.3.1-.4v-.1l-.5-.7-.9-.3-1,.1-.1.1v.4l.1.1.6.1,1.6.7Z" transform="translate(-1.5 -1.5)"/>
    <path id="AW" class="cls-1" d="M388.6,418.5l-.1-.1-.3-.6-.3-.3-.1.1-.1.3.3.3.3.4.3.1v-.2Z" transform="translate(-1.5 -1.5)"/>
    <path id="AI" class="cls-1" d="M429.9,381.8l.1-.2-.2-.1-.8.5v.1Z" transform="translate(-1.5 -1.5)"/>
    <path id="AD" class="cls-1" d="M787.4,227.3l.1-.2.1-.2v-.1l-.2-.1-.7-.2-.3-.1-.2.1-.2.2-.1.3.1.1v.4l.1.2h.4l.3-.1.5-.3Z" transform="translate(-1.5 -1.5)"/>
    <path id="AG" class="cls-1" d="M436.3,389.4l.2-.1V389l-.1-.1-.1-.2-.4-.2-.5.5v.2l.1.3.6.1.2-.2Zm.2-3.5v-.5l-.1-.2h-.3l-.1-.1h-.1l-.1.1.1.6.5.3.1-.2Z" transform="translate(-1.5 -1.5)"/>
    <path id="BS" class="cls-1" d="M376.4,362.9l.2-.6-.3-.1-.5.7-.6.3h-.3l-.7-.3h-.5l-.4.5-.6.1.1.1v.2l-.2.3v.2l.1.3,1.5-.1,1.3-.2.7-.9Zm.8-2-.4-.3-.4.3.1.3.7-.3Zm0-5.8-.4-.2-.3.5.3.1.7-.1.5.1.5.4.3-.2-.1-.1-.4-.3-.6-.1h-.2l-.3-.1Zm-6.6,1.3.7-.6.7-.3.9-1.1-.1-.9.2-.4-.6.1-.1.3-.1.3.3.4v.2l-.2.4-.3.1-.1.2-.3.1-.4.5-.8.6-.2.3.4-.2Zm1.2-3.2-.6-.2-.2-.4-.4-.1-.1.2v.2l.1.4.2-.1.8.4.4-.3Zm-4.1-1.1v-.7l-.4-.5-.6-.4-.1-1.2-.3-.7-.2-.6-.4-.8v.5l.1.1.1.6.4.9.1.4-.1.4-.4.1-.1.2.5.3.8.3.5,1.3.1-.2Zm-4.1-3.5-.5-.3-.2-.3-.7-.7-.3-.1-.2.4.4.1.9.7.4.2Zm7.3-4-.1-.3h-.1l-.3.1-.3.9h.3l.5-.7Zm-17.6-1.1-.2-.3-.3.2h-.5l-.2.1h-.4l-.3.2.4.8.3.3.1,1,.2.1-.1.7,1.1.1.4-.8v-1.7l-.3-.5-.4.6-.4-.3.6-.4v-.1Zm12.9.3-1-1.4v-.2l-.5-1.5-.3-.1-.1.1-.1.2.4.4v.4l.3.2.4,1.1.4.4-.1.3-.4.3-.1.2h.1l.6-.1h.4v-.3Zm-10.5-5.2.5-.2h0l-.3-.2h-.7l-.4.1-.2.2.1.1.4.1.6-.1Zm-2.4,2-.5-.6-.3-.9-.2-.4.1-.5-.3-.4-.6-.4-.3.1.1,1.1-.2.6-.8,1.1.1.4h0l.1.2-.5.4V341l-.6.1.3.5.6.4.3.1.3-.2v.5l.3.4.1.4.3-.3.6-.2.2-.2.7-.4v-.2l.1-.6.1-.7Zm6.7-5-.3-.5-.1.1-.1.4-.3.4.5-.1.4.1.6.5.7.2.3.6.6.6v.6l-.4.6-.1.7-.6.1.1.1.3.3.1.4.2.2v-.7l.3-.8.4-1.3-.1-.3-.3-.3-.7-.9-.7-.3-.8-.7Zm-8.8-7.9-.5-.4-.2.4v.1l-.1.3-.5.4-.5.1-.7-.6-.2-.1.8,1.1.3.1h.4l.9-.3,1.6-.5,1.7-.2.1-.2-.1-.3-.8.2-1-.1-.2.2h-.4Zm6.1,5.2.2-.3.4-1.8.8-.6.1-1.2-.5-.5-.4-.2-.1-.2.1-.2-.2-.1-.3-.2-.4-.6-.4-.4-.7-.1-.6-.1-.4-.1-.5.3h.8l1.5.3.7,1.5.5.4.1.4-.2.4v.4l-.3.5-.1.8-.3.4-.7.5.4.2.3.6.2-.1Z" transform="translate(-1.5 -1.5)"/>
    <path id="BM" class="cls-1" d="M432.2,292.4l.4-.6h-.1l-.5.5-.6.2.1.1h.1Z" transform="translate(-1.5 -1.5)"/>
    <path id="BB" class="cls-1" d="M446.9,414.5l.4-.4-.3-.3-.6-.8-.3.1v1l.1.3.5.3.2-.2Z" transform="translate(-1.5 -1.5)"/>
    <path id="KM" class="cls-1" d="M1023.1,576.1l-.4-.4h-.4v.2l.1.4,1.1.2-.4-.4Zm3.9-1.5h-.1l-.2.1-.1.2-.1.3h-.9l.8.5.5.5.2.2.1-.2.1-.7-.3-.9Zm-5.6-1.1.2-.3-.2-.7-.4-.8.1-1.4-.2-.2h-.3l-.1.1-.1.3-.3,2,.4.6.3.1.5.4.1-.1Z" transform="translate(-1.5 -1.5)"/>
    <path id="CV" class="cls-1" d="M643.4,403.2l.1-.4-.2-.6-.3-.1-.6.4-.1.3.1.3.3.3.3.1.4-.3Zm6.3-1.7.4-.2v-.7l-.1-.3h-.4l-.2.4v.5l.2.3Zm-1.4.8-.5-.9-.3-.1-.6-.7v-.3l-.3-.1v.6l-.2.5v.5l.4.8.4.2.7.1.4-.6Zm3.1-7.8v.5l-.3.7.5.3.3.1.6-.4.2-.5-.1-.3-.3-.3-.3-.1-.1.1-.5-.1ZM645,392l-1-.1-.6-.2h-.1v.3l.4.8.2-.5.2-.1.8.2.4-.1-.1-.1-.2-.2Zm6.7-.2-.1-.5v-.7h-.2l-.3.2.1.7.1.1.2.5.2-.3Zm-11.1-1v-.2l-.3-.5-.3.1-.4.2-.1.3.4.2h.2l.5-.1Zm-1.5-.9.8-.6.2-.3-.2-.5-.5-.1-1.2.6-.1.2.1.3.1.5.2.1.6-.2Z" transform="translate(-1.5 -1.5)"/>
    <path id="KY" class="cls-1" d="M329,374.7l-.1-.3-.1.1v.6h.7l.3-.2h.6l-.1-.2-.8-.1-.1.1-.2.1-.2-.1Zm8-2.3h0l-.1-.1h-.1l-.3.1h-.2l-.1.1-.1.1h.2l.4-.2h.3Zm.8-.1.5-.2h0l-.1-.1h-.1l-.1.1h-.1l-.5.3h.2l.2-.1Z" transform="translate(-1.5 -1.5)"/>
    <path id="DM" class="cls-1" d="M437.8,400.7l.3-.7-.1-1-.2-.4-.8-.3v.2l-.1.5.3.8.1,1.1Z" transform="translate(-1.5 -1.5)"/>
    <path id="FK" class="cls-1" d="M492.3,828.3l-.1-.3-.4-.2-.2-.1.1.2.1.3.1.2.2.1.2-.2Zm5.5-1.3-.1-.1h-.2l-.1.2.2.3.4.1-.2-.5Zm-12.9-1.4-.1.2-.4.1.2.3.6.4h.4l.1-.3-.1-.6h-.3l-.4-.1Zm2.8-2-.9-.3-.4-.3h-.3l.4.4.1.2.1.2.6.3.6.3.4.3-.1.1-.8.3h-.3l-.2.1.4.2.6-.1.2-.1h.2l.3.1v.2l-.1.2-.2.2-.4.3-.6.4h-.8l-.7.7.9.5.7.3h.9V828l.2-.1h.3l.1-.1.2-.4v-.6h.2l.3.1.7-.1.3-.1.6-.9.4-.8.2-.4.3-.2.1-.2.1-.3.3-.2v-.3l-.4-.2-.3-.2-.3.3-.2-.1-.9.3h-.4l-.3-.2-.4-.1-.4.1-.5.5-.8-.2Zm.7-.4.1-.3-.1-.2-.5-.2h-.5l.2.5.2.2Zm5.9-.7h-.4l.4.5-.8.8.2.6.3.4.1.2-.1.1-.4.1-.3.1-.2.3-.9.9.2.2-.3.7.2.3.8.7.8.4v-.7l.4-.1.4.2.4-.2-.9-1h.3l2.5.5-.1-.4-.1-.2-.3-.4,1.5-.4.5-.3.2-.3.6-.1.8-.3-.1-.1.1-.3-.4-.2-.5-.1.1-.3.5-.1-.8-.7-.3-.1-1,.1-.3.1v.2l.1.3.3.3.1.2-.2-.1-1.1-.4-.2-.1-.2-.4.2-.1.3.1.1-.3-.4-.3-.4-.1-.9.1-.8-.3Z" transform="translate(-1.5 -1.5)"/>
    <path id="FO" class="cls-1" d="M749,112.5v-.3l-.1-.3v-.2h-.1l-.5-.1-.1-.2h-.1v.2l.1.4.5.4.3.2h.1l-.1-.1Zm.5-2.1v-.1l-.2-.2-.5-.2-.2-.1-.2.1v.2l.1.1.4.1.4.3h.1l.1-.2Zm-2.4-1.9-.2-.1-.5.1h-.3l.1.3.6.2h.6l.2-.1-.1-.2-.4-.2Zm2.5-.5-.8-.2-.6-.3-1,.1.7,1.1.8.7.4.2v-.3l-.4-.5-.1-.1v-.1l.1-.1h.2l.3.2h.2l.2-.7Zm1-.2-.3-.2-.4-.4v.9h.1l.3.1.3-.4Z" transform="translate(-1.5 -1.5)"/>
    <path id="GD" class="cls-1" d="M434.1,421.3l.5-.2.2-1.1-.3-.1-.3.3-.3.5v.4l-.2.3.4-.1Z" transform="translate(-1.5 -1.5)"/>
    <path id="HK" class="cls-1" d="M1406.9,356.5v-.4l-.4-.2h-.3l.1.2.4.5.2-.1Zm-1.3,0-.1-.5.2-.3-.9.3-.1.3v.1l.2.1Zm1.6-1.2-.1-.3-.2-.1-.1-.3-.1-.2h0l-.3-.1-.2-.1h-.4l-.1.1h-.2l-.2.2h0v.2l-.5.4v.2l.3.2.5-.1.6.2.8.3v-.5l.2-.1Z" transform="translate(-1.5 -1.5)"/>
    <path id="KN" class="cls-1" d="M431.9,388.8v-.3l-.2-.2h-.3v.5l.2.2Zm-.5-.7-.1-.2-.1-.1-.2-.4-.4-.4-.2.1-.1.2v.1h0l.3.3.4.1.2.4.2-.1Z" transform="translate(-1.5 -1.5)"/>
    <path id="LC" class="cls-1" d="M439.4,409.8l.1-1.2-.1-.5-.2.1-.3.4-.4.6-.1.3v.6l.6.4.4-.7Z" transform="translate(-1.5 -1.5)"/>
    <path id="LI" class="cls-1" d="M826.4,199.2V199l.1-.2-.1-.1-.1-.2-.1-.1v-.2l-.1-.1v-.2l-.1-.1-.2.6v.5l.1.2h.1l.4.1Z" transform="translate(-1.5 -1.5)"/>
    <path id="MV" class="cls-1" d="M1191.1,477.2l.1-.1v-.2l-.1-.1h-.1l-.1.2v.2Zm.3-5.9.1-.2v-.4l-.1.1-.1.2v.1l-.1.1v.1h.2Z" transform="translate(-1.5 -1.5)"/>
    <path id="MT" class="cls-1" d="M855.6,269.6l-.2-.2-.5-.5-.5-.1.1.6.4.4h.5l.2-.2Zm-1.4-1.2h0v-.2l-.3-.1-.4.1.1.1.3.2Z" transform="translate(-1.5 -1.5)"/>
    <path id="MS" class="cls-1" d="M433.8,391.3l-.1-.5h-.1l-.2.4v.3l.3.1Z" transform="translate(-1.5 -1.5)"/>
    <path id="MU" class="cls-1" d="M1096.7,628.1l.3-.3.2-.4.3-.3.1-.7-.2-.8-.4-.7-.5.1-.3.4-.2.5-.5.3-.1.3-.2.7-.1.4-.2.1v.2l.3.3.8.1.7-.2Z" transform="translate(-1.5 -1.5)"/>
    <path id="NC" class="cls-1" d="M1699.3,641.7v-.3l-.4-.2-.2.5v.1l.2.1h.2l.2-.2Zm4.6-7.6-.1-.1v-.3l.1-.2-.4.2-.6.2.1.8-.1.4.3.1.1.3h.2l.7-.2.3-1.1h-.4l-.2-.1Zm-3-1.7.3-.5.1-.2-.2-.7-.3-.3.3-1-.1-.2-.4-.2-.9.3-.1.2.5.1.2.2-.5.7-.5.1.1.5.2.4.7.2.3.4Zm-3.9-2.9.3-.3.3-.4-.1-.1v-.3l.2-.4.3-.1-.2-.2-.2-.1v.3l-.3.7-.1.3-.5.6Zm-12.3-2.9-.6-.7-.1.2-.1.4v.3l.3.2.1.2-.1.5v.4l.6.9.1.7.3.6.5.5.4.5.8,1.4.2.5.4.3,1,1.2.4.4.4.2.9.7.6.3.3.5.6.3.8.4.1.2v.3l.1.3.5.4.6.3.1.2.1.2.3-.1.3.1.9.7.4-.1h.3l.5-.2.3-.4-.1-1.1-.5-.5-.7-.4-.4-.5-.4-.5-.8-1-1.1-1-.5-.2-.3-.4-.3-.1-.2-.3-.5-.3-.3-.6-.6-.6-.1-.3.1-.3-.1-.3-.4-.3-.2-.5-.2-.3-.4-.2-.7-.4-1.6-1.9-.7-.6-.7.2-.6-.4Zm-22-6,.2-.4.1-.8-.2.4-.2,1Z" transform="translate(-1.5 -1.5)"/>
    <path id="NR" class="cls-1" d="M1717,501.1v-.2h-.2l-.1.2.1.1.1.1.1-.2Z" transform="translate(-1.5 -1.5)"/>
    <path id="PR" class="cls-1" d="M402.8,382.9v-.1h.1v-.1l.1-.1h0v-.1h-.5v.2l.2.1h0v.1Zm13.6-.3.7-.2v-.1l-.4-.1h-.6l-.5.2.1.2h.7Zm-3.7-2.2-.1-.2h-.2l-3.5-.1-1.3-.2-.3.1-.3.1-.1.4-.2.2-.3.2.1.3.1.2.2.4-.1.5-.2,1,.3.2.7-.1.3.1.3.1.4-.1.4-.2.9.1.5-.1.6.3.4-.1.2.1h.9l.9-.2.8-.5.3-.5.4-.3.6-.4v-.9l-.7-.1-.6-.3-1.1-.1h-.1l.1.2h-.1l-.2-.1Z" transform="translate(-1.5 -1.5)"/>
    <path id="SG" class="cls-1" d="M1363,489.3l.1-.2-.2-.2-.3-.1-.5-.2-.6.1-.3.6.9.4.9-.4Z" transform="translate(-1.5 -1.5)"/>
    <path id="SB" class="cls-1" d="M1711.1,572l-.2-.2-.1-.4h-.3l-.3.1.2.6h.2l.5-.1Zm-35.6.8-.1-.2-.5-.4-1.9-1.3-.4-.1-.1.1-.1.3.1.2.5.1v.1l.3.2.7.2.4.3.1.5.3.1.3.1.4-.2Zm32-6.6v-.1l.2-.3-.2-.1-.5-.1-.7.1-.3.2-.2.3h-.2v.2l.1.4.2-.1.2.1.5-.5h.4l.5-.1Zm-24.4-2.3-.1-.2-.2-.1-.9-.7-.5-.2h-.5l-.1.5v.3h.6l.4.2v.6l.2.2v.5l1.2.9.7.4.7.1.4.2.5-.1.5.2.4-.1-.4-.3v-.4l-.5-1.3-.3-.3-.5.1-.5-.2h-.4l-.7-.3Zm-.4-4.9-.6-1.6-.2-.1.1.6.1.4-.1.5-.1.6.2.2.2-.2.4.5V559Zm-9.8-2.2-.3-.1-.4.3-.1.3-.1.7v.4l.3.7.3.5.3.3.2.2.9.1,1.7.1.9.4.9.2.4-.1.5-.2.1-.1-.1-.6-.2-.3-.4-.2-.2-.6-.5-.4-.9-.7h-1.6l-.6.1-1.1-1Zm2.6-1.8-.5.2v.3l.4.1.4.2.1.3h0l.2-.1.4.2.2-.3-.4-.5-.4-.3h-.1l-.3-.1Zm-5.6.8.3-.2v-.4h-.3l-.1-.2h-.2l-.3.2-.2.3.1.2h.4l.2.1Zm-8.4-2.3-.1-.2-.3-.2h-.2l-.5.1.1.1.6.3.3.1.1-.2Zm3.1.4.3-.2-.1-.2-.1-.5-.4.7.1.2Zm-.5-.9v-.4l-.2-.1.4-.3-.1-.1-.6-.2-.2.2-.2.1-.1.1-.1.1-.1.5.2.4.4.2.6-.5Zm-4,.2-.3-.4.1-.5.2-.1.2-.5-.1-.4-.2.1-.7.6-.1.3.6.8.3.2v-.1Zm13-1.3-.2-.4v-.2l-.3-.2-.2.1-.1.3.1.2.4.3.3-.1Zm6-1.2h-.2l-.1.1h-.5l-.1.2.6,1.1-.3.5.4,2.2.4,1.2.8.8v.2l.8.5.6,1.3.2.1.1-.2v-.6l-.5-1.1.1-.8-.2-.3v-.3l-.2-.8-.6-.7-.3-.1-.2-.3.2-.6.2-.2.1-.3-1.3-1.9Zm-16.6-.5-.6-.2-.2-.3v-1l-.6-.3-.3.2-.6.7-.2.4-.5.3-.1.3v.4l.4.1.3-.4.9-.1.3.1v.4l.1.7.3.3.5.2.4.6.1-.3h.2l.2-.4-.3-1.2-.3-.5Zm-6.5-.4.1-.5-.1-.9-.2.1v.2l-.1.4.2.8Zm3.2-.4.2-.2v-.9l-.2-.4-.2-.2-.5.1-.4.5v.5l.4.6h.7Zm-2.6-1.2.2-.3.5-.7.1-.3-.5-.2-.4-.5-.4-.2-.3.4v.4l.5.6-.1.4.2.1.1.4.1-.1Zm17.5,3.9-.1-.5-.3-.4.4-.5-2.2-1.9-.3-.2-.4-.1-.5-.4-.5-.1-.5-.4-.2-.3-.6-.4-.6-.8-1.5-.3.1.2.4.4.1.7.5.4.5.6.2.1.2.2.4.5.8.4.8.6.3.1.3.3,1.5.7.5.7.7.5v-.1Zm-21.8-9.2.2-.3-.7-.5-.2.3-.2.5.4.2.5-.2Zm9.1,1.5-.1-.1h-.3l-.4-.2-.7-.8-.2-.3-.2-1-.4-.4-1.4-.8-.8-.8-.7-.2-.2.2v.5l.2.3,1,.9,1.1,1.7,1,1,.8.1h.4v.1l.1.2.5.2.5-.4-.2-.2Z" transform="translate(-1.5 -1.5)"/>
    <path id="ST" class="cls-1" d="M816.1,497l.5-.8v-.5l-.3-.5h-.4l-.5.4-.3.4v.3l.1.7.1.3.3.2.5-.5Zm4.3-9.2.2-.4v-.2l-.1-.1-.1-.1-.2.1-.3.5.1.2.2.2.2-.2Z" transform="translate(-1.5 -1.5)"/>
    <path id="SX" class="cls-1" d="M429.1,382.8h0l.2.2.3.1.1-.1v-.2Z" transform="translate(-1.5 -1.5)"/>
    <path id="SC" class="cls-1" d="M1090.5,527.6l-.5-.8-.4.3.2.3.3.2.1.4.3.2v-.6Z" transform="translate(-1.5 -1.5)"/>
    <path id="TC" class="cls-1" d="M380.7,358.7l-.1.4v.2l.2.1.6-.1.1-.1.2-.1V359l-.4.1Zm3.6.6.2-.2-.2-.2-.7-.2-.2.1v.3h.6l.3.3v-.1Zm-1.1-.5-.1-.1-.1-.6h-.5v.2l.1.2h.1l.1.2.3.2.1-.1Z" transform="translate(-1.5 -1.5)"/>
    <path id="TT" class="cls-1" d="M437.4,433.3l.1-.2v-.6l.2-.4-.2-.4-.1-.6.1-.5v-.7l.2-.3.5-.8h-.9l-.6.2-1.1.1-.5.2-.7.1-.4.2.1.1.5.2.2.2.1.2.1.4-.3,1.7-.1.1-.6.1-.2.3-1.4.8.8-.1.9.1,2.4-.1.9-.3Zm1.8-6.7,1.2-.5.1-.4h-.2l-.8.3-.6.5v.2Z" transform="translate(-1.5 -1.5)"/>
    <path id="VC" class="cls-1" d="M436.5,417h0v-.1h.1v-.1h0v-.1h-.1v.1h0v.1h-.1v.1h.1Zm.7-1.9.1-.2.1-.1h0l-.1-.1h0v.1l-.2.1h0v.1h0v.1H437l.1.1h0l.1-.1Zm.3-1.1.3-.2.1-.6-.1-.4h-.2l-.3.1-.2.3-.1.5.4.4.1-.1Z" transform="translate(-1.5 -1.5)"/>
    <path id="VG" class="cls-1" d="M421.2,380.7l.3-.2-.2-.1h-.4l-.3.2.1.1Zm1.1-.4.4-.4-.5.1-.2.2.1.1h.2Zm.8-1.8h-.7l.1.1h.3l.3.1h0v-.2Z" transform="translate(-1.5 -1.5)"/>
    <path id="VI" class="cls-1" d="M419.9,384.5l-.7.2-.1.4h1.1l.7-.3h-.6l-.4-.3Zm.9-3.5-.5-.1-.2.2h0l.3.1Zm-1.1.1-.2-.2-.3-.1-.4.1.5.3.4-.1Z" transform="translate(-1.5 -1.5)"/>
    <path id="CY" class="cls-1" d="M951.9,274l-.3-.1-.5.2-.4.4-.4.3-.5-.3.2.9.6,1.1.2.3.3.2,1.1.3h.9l.2.1.2.4h.4v-.4l.2-.2.3-.2h.3l.6-.1.6-.2.5-.4.9-1h1.2l.6-.1-.2-.4-.1-.1-.4-.5-.2-.4.1-.6,2.5-1.9.5-.5-.8.2-.6.4-.4.2-.7.4-2.3.8-.8.1h-.8l-1-.1-.9-.2v.7l-.2.6-.6.2-.3-.1Z" transform="translate(-1.5 -1.5)"/>
    <path id="RE" class="cls-1" d="M1086,633.5l.2-.4.1-.8-.4-.8-.4-.7-.4-.2-.8-.1-.7.3-.4.6-.2.3.4,1.1.2.3,1.1.6h.5l.8-.2Z" transform="translate(-1.5 -1.5)"/>
    <path id="YT" class="cls-1" d="M1030.7,580.3V580l.2-.5v-.1l.1-.5-.3-.3h-.2l-.2-.3-.3.3.3.5-.1.3-.1.4.1.4.2.2.3-.1Z" transform="translate(-1.5 -1.5)"/>
    <path id="MQ" class="cls-1" d="M440,405.5l-.2-.7-.1-.2-.2-.3.1-.3v-.1h-.2l-.3-.5-.6-.3h-.3l-.2.2v.3l.3.9.2.2.5.2-.4.4v.1l.1.3h.9l.2.3.1-.1.1-.4Z" transform="translate(-1.5 -1.5)"/>
    <path id="GP" class="cls-1" d="M438.4,396.7l.2-.2v-.3l-.2-.3-.2.1-.2.3v.3l.1.1Zm-1.9-.8.2-.2v-1.2l.1-.3-.2-.1-.2-.2-.6-.2-.1.1-.2.3.1,1.5.2.5.2.1.5-.3Zm1.6-1.4.8-.2-.9-.6-.2-.4V393l-.4-.3-.2.2-.1.3.1.5-.3.4.1.4.4.1.7-.1Z" transform="translate(-1.5 -1.5)"/>
    <path id="CW" class="cls-1" d="M397.9,420.5v-.6l-.9-.4v.3l.1.2.3.1.1.2-.1.6.2.3.3-.7Z" transform="translate(-1.5 -1.5)"/>
    <path id="IC" class="cls-1" d="M681.6,320.8l-.2-.2-.7.5h-.6l.1.2.1.2.7.4.6-1.1Zm13.5-2.1v-.1H695l-.1.1-1.3-.1-.2.6-.5.4v.7l.5.7.3.1.5.1.7-.4.2-.4.1-.8-.1-.4v-.5Zm-9.7.8.5-.4v-.2l-.1-.3-.5-.3h-.2l-.2.2-.2.4.3.5.2.1Zm4.7-2.3,1.2-1v-.3l-1,.1-1.1,1-.3.1-1,.1h-.5l-.4.2.2.3.4,1,.7.9.6-.2.3-.2.4-.6.5-1.4Zm11.6,1.3,1.5-.5.3-1,.3-1.1v-.7l-.2-.3h-.5l-.3.2-.1.6L702,317l-.5,1.2-.7.6-.7.2.1.1.7.1.8-.7Zm-19.7-2,.5-.5.1-.3-.1-.5.2-.2-.1-.4-.3-.4h-.7l-.4.6.6,1.2.1.5Zm22.4-2.7.9-.3.5-.3.1-.9.2-.3-.2-.3-.2.2-.2.4-.6.2-.8.4-.2.3-.2.9.4.1.3-.4Z" transform="translate(-1.5 -1.5)"/>
</svg>